SplineFontDB: 3.2
FontName: Libron-Regular
FullName: Libron Regular
FamilyName: Libron
Weight: Regular
Copyright: Newsreader (c) 2020 The Newsreader Project Authors\nLibron (c) 2026 Nico Verbruggen
Version: 1.0
ItalicAngle: 0
UnderlinePosition: -303
UnderlineWidth: 96
Ascent: 1600
Descent: 400
InvalidEm: 0
sfntRevision: 0x00010000
LayerCount: 2
Layer: 0 1 "Back" 1
Layer: 1 1 "Fore" 0
XUID: [1021 1048843124 806278810 571616354]
StyleMap: 0x0040
FSType: 0
OS2Version: 4
OS2_WeightWidthSlopeOnly: 0
OS2_UseTypoMetrics: 1
CreationTime: 1606394360
ModificationTime: 1780433338
PfmFamily: 17
TTFWeight: 400
TTFWidth: 5
LineGap: 0
VLineGap: 0
Panose: 2 0 0 0 0 0 0 0 0 0
OS2TypoAscent: 1600
OS2TypoAOffset: 0
OS2TypoDescent: -400
OS2TypoDOffset: 0
OS2TypoLinegap: 0
OS2WinAscent: 2080
OS2WinAOffset: 0
OS2WinDescent: 520
OS2WinDOffset: 0
HheadAscent: 2080
HheadAOffset: 0
HheadDescent: -520
HheadDOffset: 0
OS2SubXSize: 1300
OS2SubYSize: 1200
OS2SubXOff: 0
OS2SubYOff: 150
OS2SupXSize: 1300
OS2SupYSize: 1200
OS2SupXOff: 0
OS2SupYOff: 700
OS2StrikeYSize: 130
OS2StrikeYPos: 501
OS2CapHeight: 1417
OS2XHeight: 1081
OS2Vendor: 'PROD'
OS2CodePages: 20000193.00000000
OS2UnicodeRanges: 00000047.00000001.00000000.00000000
Lookup: 1 0 0 "'locl' Localized Forms in Latin lookup 0" { "'locl' Localized Forms in Latin lookup 0 subtable"  } ['locl' ('latn' <'MOL ' > ) ]
Lookup: 1 0 0 "'locl' Localized Forms in Latin lookup 1" { "'locl' Localized Forms in Latin lookup 1 subtable"  } ['locl' ('latn' <'ROM ' > ) ]
Lookup: 6 0 0 "'ordn' Ordinals in Latin lookup 2" { "'ordn' Ordinals in Latin lookup 2 contextual 0"  "'ordn' Ordinals in Latin lookup 2 contextual 1"  } ['ordn' ('DFLT' <'dflt' > 'latn' <'MOL ' 'ROM ' 'dflt' > ) ]
Lookup: 1 0 0 "Single Substitution lookup 3" { "Single Substitution lookup 3 subtable"  } []
Lookup: 4 0 0 "'ordn' Ordinals in Latin lookup 4" { "'ordn' Ordinals in Latin lookup 4 subtable"  } ['ordn' ('DFLT' <'dflt' > 'latn' <'MOL ' 'ROM ' 'dflt' > ) ]

StartChar: .notdef
Encoding: 65536 -1 0
Width: 950
GlyphClass: 1
Flags: W
LayerCount: 2
Fore
SplineSet
190 -381 m 1,0,-1
 760 -381 l 1,1,-1
 760 1419 l 1,2,-1
 190 1419 l 1,3,-1
 190 -381 l 1,0,-1
95 -481 m 1,4,-1
 95 1519 l 1,5,-1
 855 1519 l 1,6,-1
 855 -481 l 1,7,-1
 95 -481 l 1,4,-1
EndSplineSet
EndChar

StartChar: exclam
Encoding: 33 33 4
Width: 595
GlyphClass: 1
Flags: W
LayerCount: 2
Fore
SplineSet
297 288 m 0,0,1
 365 288 365 288 406 248 c 128,-1,2
 447 208 447 208 447 137 c 0,3,4
 447 65 447 65 406.5 25 c 128,-1,5
 366 -15 366 -15 297 -15 c 0,6,7
 230 -15 230 -15 189 25 c 128,-1,8
 148 65 148 65 148 137 c 0,9,10
 148 208 148 208 189 248 c 128,-1,11
 230 288 230 288 297 288 c 0,0,1
419 1360 m 2,12,-1
 418 1267 l 2,13,14
 418 1250 418 1250 414 1195.5 c 128,-1,15
 410 1141 410 1141 404.5 1063 c 128,-1,16
 399 985 399 985 392 896 c 128,-1,17
 385 807 385 807 377.5 719 c 128,-1,18
 370 631 370 631 364.5 557.5 c 128,-1,19
 359 484 359 484 355 437 c 1,20,-1
 240 437 l 1,21,22
 236 484 236 484 230.5 557.5 c 128,-1,23
 225 631 225 631 218 719 c 128,-1,24
 211 807 211 807 204.5 896 c 128,-1,25
 198 985 198 985 192 1063 c 128,-1,26
 186 1141 186 1141 182.5 1195.5 c 128,-1,27
 179 1250 179 1250 179 1267 c 2,28,-1
 177 1360 l 2,29,30
 177 1378 177 1378 188.5 1390.5 c 128,-1,31
 200 1403 200 1403 226 1409 c 128,-1,32
 252 1415 252 1415 298 1415 c 128,-1,33
 344 1415 344 1415 370.5 1409 c 128,-1,34
 397 1403 397 1403 408.5 1390.5 c 128,-1,35
 420 1378 420 1378 419 1360 c 2,12,-1
EndSplineSet
EndChar

StartChar: ampersand
Encoding: 38 38 9
Width: 1521
GlyphClass: 1
Flags: W
LayerCount: 2
Fore
SplineSet
685 783 m 1,0,-1
 1036 390 l 1,1,2
 1060 435 1060 435 1082 490 c 0,3,4
 1120 589 1120 589 1148 725 c 1,5,-1
 1006 762 l 1,6,-1
 1006 851 l 1,7,-1
 1464 851 l 1,8,-1
 1464 762 l 1,9,-1
 1321 725 l 1,10,11
 1260 563 1260 563 1200 442 c 0,12,13
 1160 363 1160 363 1118 298 c 1,14,-1
 1263 136 l 1,15,-1
 1456 89 l 1,16,-1
 1456 0 l 1,17,-1
 1104 0 l 1,18,-1
 984 136 l 1,19,20
 941 95 941 95 896 66 c 0,21,22
 824 20 824 20 741.5 -0.5 c 128,-1,23
 659 -21 659 -21 562 -21 c 0,24,25
 400 -21 400 -21 301.5 24.5 c 128,-1,26
 203 70 203 70 159 153 c 128,-1,27
 115 236 115 236 115 349 c 0,28,29
 115 450 115 450 152.5 532.5 c 128,-1,30
 190 615 190 615 272 680 c 0,31,32
 333 729 333 729 423 768 c 1,33,34
 368 832 368 832 336 884 c 0,35,36
 300 942 300 942 286.5 995 c 128,-1,37
 273 1048 273 1048 273 1107 c 0,38,39
 273 1196 273 1196 314 1266 c 128,-1,40
 355 1336 355 1336 440 1376 c 0,41,42
 526 1417 526 1417 656 1417 c 0,43,44
 778 1417 778 1417 854.5 1382 c 128,-1,45
 931 1347 931 1347 968.5 1286.5 c 128,-1,46
 1006 1226 1006 1226 1006 1149 c 0,47,48
 1006 1087 1006 1087 988 1034 c 128,-1,49
 970 981 970 981 928 934 c 128,-1,50
 886 887 886 887 815 846 c 0,51,52
 760 813 760 813 685 783 c 1,0,-1
621 855 m 1,53,54
 728 913 728 913 776 977 c 0,55,56
 827 1045 827 1045 827 1134 c 0,57,58
 827 1210 827 1210 784.5 1252.5 c 128,-1,59
 742 1295 742 1295 654 1295 c 0,60,61
 568 1295 568 1295 519 1255.5 c 128,-1,62
 470 1216 470 1216 470 1141 c 0,63,64
 470 1099 470 1099 482.5 1059.5 c 128,-1,65
 495 1020 495 1020 526 974 c 128,-1,66
 557 928 557 928 613 864 c 2,67,-1
 621 855 l 1,53,54
904 226 m 1,68,-1
 488 695 l 1,69,70
 434 662 434 662 400 624 c 0,71,72
 358 579 358 579 340.5 525.5 c 128,-1,73
 323 472 323 472 323 409 c 0,74,75
 323 318 323 318 354.5 255 c 128,-1,76
 386 192 386 192 453 159.5 c 128,-1,77
 520 127 520 127 626 127 c 0,78,79
 724 127 724 127 804 162 c 0,80,81
 857 186 857 186 904 226 c 1,68,-1
EndSplineSet
EndChar

StartChar: quotesingle
Encoding: 39 39 10
Width: 443
GlyphClass: 1
Flags: W
LayerCount: 2
Fore
SplineSet
155 879 m 1,0,-1
 113 1350 l 1,1,-1
 113 1396 l 1,2,-1
 331 1396 l 1,3,-1
 331 1350 l 1,4,-1
 288 879 l 1,5,-1
 155 879 l 1,0,-1
EndSplineSet
EndChar

StartChar: parenleft
Encoding: 40 40 11
Width: 642
GlyphClass: 1
Flags: W
LayerCount: 2
Fore
SplineSet
292 609 m 128,-1,1
 292 498 292 498 307 398 c 128,-1,2
 322 298 322 298 356 204 c 128,-1,3
 390 110 390 110 446.5 17.5 c 128,-1,4
 503 -75 503 -75 586 -170 c 1,5,-1
 510 -251 l 1,6,7
 390 -133 390 -133 309.5 -27 c 128,-1,8
 229 79 229 79 181 181 c 128,-1,9
 133 283 133 283 112.5 388 c 128,-1,10
 92 493 92 493 92 609 c 128,-1,11
 92 725 92 725 112.5 830 c 128,-1,12
 133 935 133 935 181 1037 c 128,-1,13
 229 1139 229 1139 309.5 1245 c 128,-1,14
 390 1351 390 1351 510 1469 c 1,15,-1
 586 1388 l 1,16,17
 502 1293 502 1293 446 1200.5 c 128,-1,18
 390 1108 390 1108 356 1014 c 128,-1,19
 322 920 322 920 307 820 c 128,-1,0
 292 720 292 720 292 609 c 128,-1,1
EndSplineSet
Substitution2: "'case' Case-Sensitive Forms in Latin lookup 9 subtable" parenleft.case
EndChar

StartChar: parenright
Encoding: 41 41 12
Width: 642
GlyphClass: 1
Flags: W
LayerCount: 2
Fore
SplineSet
351 610 m 0,0,1
 351 720 351 720 335.5 820.5 c 128,-1,2
 320 921 320 921 286.5 1014.5 c 128,-1,3
 253 1108 253 1108 196.5 1200.5 c 128,-1,4
 140 1293 140 1293 56 1389 c 1,5,-1
 132 1469 l 1,6,7
 252 1351 252 1351 332.5 1245 c 128,-1,8
 413 1139 413 1139 461 1037 c 128,-1,9
 509 935 509 935 529.5 830.5 c 128,-1,10
 550 726 550 726 550 610 c 128,-1,11
 550 494 550 494 529.5 389 c 128,-1,12
 509 284 509 284 461 182 c 128,-1,13
 413 80 413 80 332.5 -26 c 128,-1,14
 252 -132 252 -132 132 -250 c 1,15,-1
 56 -169 l 1,16,17
 140 -74 140 -74 196.5 18.5 c 128,-1,18
 253 111 253 111 286.5 205 c 128,-1,19
 320 299 320 299 335.5 399 c 128,-1,20
 351 499 351 499 351 610 c 0,0,1
EndSplineSet
Substitution2: "'case' Case-Sensitive Forms in Latin lookup 9 subtable" parenright.case
EndChar

StartChar: asterisk
Encoding: 42 42 13
Width: 866
GlyphClass: 1
Flags: W
LayerCount: 2
Fore
SplineSet
603 759 m 1,0,-1
 513 720 l 1,1,-1
 409 948 l 1,2,-1
 213 801 l 1,3,-1
 151 879 l 1,4,-1
 325 1054 l 1,5,-1
 130 1204 l 1,6,-1
 182 1291 l 1,7,-1
 394 1171 l 1,8,-1
 469 1412 l 1,9,-1
 564 1386 l 1,10,-1
 521 1138 l 1,11,-1
 762 1137 l 1,12,-1
 769 1034 l 1,13,-1
 531 1000 l 1,14,-1
 603 759 l 1,0,-1
EndSplineSet
EndChar

StartChar: plus
Encoding: 43 43 14
Width: 1049
GlyphClass: 1
Flags: W
LayerCount: 2
Fore
SplineSet
922 572 m 1,0,-1
 922 422 l 1,1,-1
 597 422 l 1,2,-1
 597 80 l 1,3,-1
 454 80 l 1,4,-1
 454 422 l 1,5,-1
 129 422 l 1,6,-1
 129 572 l 1,7,-1
 454 572 l 1,8,-1
 454 914 l 1,9,-1
 597 914 l 1,10,-1
 597 572 l 1,11,-1
 922 572 l 1,0,-1
EndSplineSet
EndChar

StartChar: comma
Encoding: 44 44 15
Width: 516
GlyphClass: 1
Flags: W
LayerCount: 2
Fore
SplineSet
54 -287 m 1,0,1
 152 -208 152 -208 190.5 -149.5 c 128,-1,2
 229 -91 229 -91 229 -34 c 0,3,4
 229 1 229 1 210.5 26.5 c 128,-1,5
 192 52 192 52 167 71 c 128,-1,6
 142 90 142 90 123.5 106.5 c 128,-1,7
 105 123 105 123 105 140 c 0,8,9
 105 208 105 208 143.5 249 c 128,-1,10
 182 290 182 290 251 290 c 0,11,12
 325 290 325 290 365 247.5 c 128,-1,13
 405 205 405 205 405 116 c 0,14,15
 405 56 405 56 390 -0.5 c 128,-1,16
 375 -57 375 -57 341.5 -114 c 128,-1,17
 308 -171 308 -171 251 -231 c 128,-1,18
 194 -291 194 -291 108 -358 c 1,19,-1
 54 -287 l 1,0,1
EndSplineSet
EndChar

StartChar: hyphen
Encoding: 45 45 16
Width: 753
GlyphClass: 1
Flags: W
LayerCount: 2
Fore
SplineSet
134 587 m 1,0,-1
 619 587 l 1,1,-1
 619 415 l 1,2,-1
 134 415 l 1,3,-1
 134 587 l 1,0,-1
EndSplineSet
Substitution2: "'case' Case-Sensitive Forms in Latin lookup 9 subtable" hyphen.case
EndChar

StartChar: period
Encoding: 46 46 17
Width: 512
GlyphClass: 1
Flags: W
LayerCount: 2
Fore
SplineSet
256 292 m 0,0,1
 323 292 323 292 364 251.5 c 128,-1,2
 405 211 405 211 405 138 c 0,3,4
 405 66 405 66 364 25.5 c 128,-1,5
 323 -15 323 -15 256 -15 c 0,6,7
 190 -15 190 -15 148.5 25.5 c 128,-1,8
 107 66 107 66 107 138 c 0,9,10
 107 211 107 211 148.5 251.5 c 128,-1,11
 190 292 190 292 256 292 c 0,0,1
EndSplineSet
EndChar

StartChar: slash
Encoding: 47 47 18
Width: 830
GlyphClass: 1
Flags: W
LayerCount: 2
Fore
SplineSet
56 0 m 1,0,-1
 609 1396 l 1,1,-1
 776 1396 l 1,2,-1
 222 0 l 1,3,-1
 56 0 l 1,0,-1
EndSplineSet
EndChar

StartChar: zero
Encoding: 48 48 19
Width: 1210
GlyphClass: 1
Flags: W
LayerCount: 2
Fore
SplineSet
612 1417 m 0,0,1
 773 1417 773 1417 887 1333.5 c 128,-1,2
 1001 1250 1001 1250 1062.5 1094 c 128,-1,3
 1124 938 1124 938 1124 719 c 0,4,5
 1124 488 1124 488 1064 322.5 c 128,-1,6
 1004 157 1004 157 887 68 c 128,-1,7
 770 -21 770 -21 598 -21 c 0,8,9
 438 -21 438 -21 324 62 c 128,-1,10
 210 145 210 145 148.5 302 c 128,-1,11
 87 459 87 459 87 677 c 0,12,13
 87 908 87 908 147 1073.5 c 128,-1,14
 207 1239 207 1239 324 1328 c 128,-1,15
 441 1417 441 1417 612 1417 c 0,0,1
609 127 m 0,16,17
 708 127 708 127 772.5 186 c 128,-1,18
 837 245 837 245 869.5 364.5 c 128,-1,19
 902 484 902 484 902 664 c 0,20,21
 902 819 902 819 883 933 c 128,-1,22
 864 1047 864 1047 826.5 1121 c 128,-1,23
 789 1195 789 1195 733 1232 c 128,-1,24
 677 1269 677 1269 602 1269 c 0,25,26
 503 1269 503 1269 438 1209.5 c 128,-1,27
 373 1150 373 1150 341 1031.5 c 128,-1,28
 309 913 309 913 309 732 c 0,29,30
 309 577 309 577 327.5 463 c 128,-1,31
 346 349 346 349 383.5 274.5 c 128,-1,32
 421 200 421 200 477.5 163.5 c 128,-1,33
 534 127 534 127 609 127 c 0,16,17
EndSplineSet
Substitution2: "'tnum' Tabular Numbers in Latin lookup 7 subtable" zero
Substitution2: "'pnum' Proportional Numbers in Latin lookup 6 subtable" zero.lf
Substitution2: "'sups' Superscript in Latin lookup 5 subtable" zerosuperior
EndChar

StartChar: one
Encoding: 49 49 20
Width: 1210
GlyphClass: 1
Flags: W
LayerCount: 2
Fore
SplineSet
578 1177 m 1,0,-1
 197 1038 l 1,1,-1
 155 1161 l 1,2,-1
 654 1413 l 1,3,-1
 790 1413 l 1,4,-1
 790 151 l 1,5,-1
 1089 93 l 1,6,-1
 1089 0 l 1,7,-1
 263 0 l 1,8,-1
 263 93 l 1,9,-1
 578 151 l 1,10,-1
 578 1177 l 1,0,-1
EndSplineSet
Substitution2: "'tnum' Tabular Numbers in Latin lookup 7 subtable" one
Substitution2: "'pnum' Proportional Numbers in Latin lookup 6 subtable" one.lf
Substitution2: "'sups' Superscript in Latin lookup 5 subtable" uni00B9
EndChar

StartChar: colon
Encoding: 58 58 29
Width: 561
GlyphClass: 1
Flags: W
LayerCount: 2
Fore
SplineSet
280 998 m 0,0,1
 347 998 347 998 388 957.5 c 128,-1,2
 429 917 429 917 429 845 c 128,-1,3
 429 773 429 773 388.5 732.5 c 128,-1,4
 348 692 348 692 280 692 c 0,5,6
 214 692 214 692 173 732.5 c 128,-1,7
 132 773 132 773 132 845 c 128,-1,8
 132 917 132 917 173 957.5 c 128,-1,9
 214 998 214 998 280 998 c 0,0,1
280 290 m 0,10,11
 347 290 347 290 388 249.5 c 128,-1,12
 429 209 429 209 429 138 c 0,13,14
 429 66 429 66 388.5 25.5 c 128,-1,15
 348 -15 348 -15 280 -15 c 0,16,17
 214 -15 214 -15 173 25.5 c 128,-1,18
 132 66 132 66 132 138 c 0,19,20
 132 209 132 209 173 249.5 c 128,-1,21
 214 290 214 290 280 290 c 0,10,11
EndSplineSet
EndChar

StartChar: semicolon
Encoding: 59 59 30
Width: 577
GlyphClass: 1
Flags: W
LayerCount: 2
Fore
SplineSet
286 998 m 0,0,1
 353 998 353 998 394 957.5 c 128,-1,2
 435 917 435 917 435 845 c 128,-1,3
 435 773 435 773 394 732.5 c 128,-1,4
 353 692 353 692 286 692 c 0,5,6
 220 692 220 692 179 732.5 c 128,-1,7
 138 773 138 773 138 845 c 128,-1,8
 138 917 138 917 179 957.5 c 128,-1,9
 220 998 220 998 286 998 c 0,0,1
91 -287 m 1,10,11
 189 -208 189 -208 227 -149.5 c 128,-1,12
 265 -91 265 -91 265 -34 c 0,13,14
 265 1 265 1 246.5 26.5 c 128,-1,15
 228 52 228 52 203.5 71 c 128,-1,16
 179 90 179 90 160.5 106.5 c 128,-1,17
 142 123 142 123 142 140 c 0,18,19
 142 208 142 208 180 249 c 128,-1,20
 218 290 218 290 288 290 c 0,21,22
 361 290 361 290 401 247.5 c 128,-1,23
 441 205 441 205 441 116 c 0,24,25
 441 56 441 56 426 -0.5 c 128,-1,26
 411 -57 411 -57 377.5 -114 c 128,-1,27
 344 -171 344 -171 287 -231 c 128,-1,28
 230 -291 230 -291 145 -358 c 1,29,-1
 91 -287 l 1,10,11
EndSplineSet
EndChar

StartChar: less
Encoding: 60 60 31
Width: 1049
GlyphClass: 1
Flags: W
LayerCount: 2
Fore
SplineSet
274 499 m 1,0,-1
 940 190 l 1,1,-1
 940 25 l 1,2,-1
 91 426 l 1,3,-1
 91 568 l 1,4,-1
 940 969 l 1,5,-1
 940 806 l 1,6,-1
 274 499 l 1,0,-1
EndSplineSet
EndChar

StartChar: greater
Encoding: 62 62 33
Width: 1049
GlyphClass: 1
Flags: W
LayerCount: 2
Fore
SplineSet
776 499 m 1,0,-1
 110 806 l 1,1,-1
 110 969 l 1,2,-1
 960 568 l 1,3,-1
 960 426 l 1,4,-1
 110 25 l 1,5,-1
 110 190 l 1,6,-1
 776 499 l 1,0,-1
EndSplineSet
EndChar

StartChar: question
Encoding: 63 63 34
Width: 1068
GlyphClass: 1
Flags: W
LayerCount: 2
Fore
SplineSet
485 288 m 128,-1,1
 552 288 552 288 593.5 248.5 c 128,-1,2
 635 209 635 209 635 137 c 128,-1,3
 635 65 635 65 594 25 c 128,-1,4
 553 -15 553 -15 485 -15 c 0,5,6
 418 -15 418 -15 377 25 c 128,-1,7
 336 65 336 65 336 137 c 128,-1,8
 336 209 336 209 377 248.5 c 128,-1,0
 418 288 418 288 485 288 c 128,-1,1
462 1417 m 0,9,10
 585 1417 585 1417 681.5 1387.5 c 128,-1,11
 778 1358 778 1358 845.5 1304 c 128,-1,12
 913 1250 913 1250 948.5 1176 c 128,-1,13
 984 1102 984 1102 984 1013 c 0,14,15
 984 899 984 899 938.5 815.5 c 128,-1,16
 893 732 893 732 788 686 c 0,17,18
 698 647 698 647 556 640 c 1,19,-1
 542 435 l 1,20,-1
 427 435 l 1,21,-1
 383 798 l 1,22,23
 532 795 532 795 618.5 819 c 128,-1,24
 705 843 705 843 741 894.5 c 128,-1,25
 777 946 777 946 777 1025 c 0,26,27
 777 1095 777 1095 747 1151 c 128,-1,28
 717 1207 717 1207 654.5 1239.5 c 128,-1,29
 592 1272 592 1272 495 1272 c 0,30,31
 422 1272 422 1272 373 1250 c 128,-1,32
 324 1228 324 1228 290 1198.5 c 128,-1,33
 256 1169 256 1169 230 1147 c 128,-1,34
 204 1125 204 1125 178 1125 c 0,35,36
 142 1125 142 1125 114.5 1139 c 128,-1,37
 87 1153 87 1153 72 1178.5 c 128,-1,38
 57 1204 57 1204 57 1238 c 0,39,40
 57 1284 57 1284 93.5 1324.5 c 128,-1,41
 130 1365 130 1365 218.5 1391 c 128,-1,42
 307 1417 307 1417 462 1417 c 0,9,10
EndSplineSet
EndChar

StartChar: at
Encoding: 64 64 35
Width: 1782
GlyphClass: 1
Flags: W
LayerCount: 2
Fore
SplineSet
1262 192 m 0,0,1
 1152 192 1152 192 1092 240 c 128,-1,2
 1032 288 1032 288 1031 379 c 0,3,4
 1031 404 1031 404 1036 433 c 128,-1,5
 1041 462 1041 462 1051 492 c 2,6,-1
 1069 548 l 1,7,-1
 1064 548 l 1,8,9
 1006 446 1006 446 957 378.5 c 128,-1,10
 908 311 908 311 864 271.5 c 128,-1,11
 820 232 820 232 776.5 215.5 c 128,-1,12
 733 199 733 199 687 199 c 0,13,14
 586 199 586 199 533 256.5 c 128,-1,15
 480 314 480 314 479 415 c 0,16,17
 479 492 479 492 503.5 575.5 c 128,-1,18
 528 659 528 659 573 738 c 128,-1,19
 618 817 618 817 678 880.5 c 128,-1,20
 738 944 738 944 810.5 982 c 128,-1,21
 883 1020 883 1020 961 1020 c 0,22,23
 1035 1020 1035 1020 1083 976 c 0,24,25
 1116 945 1116 945 1143 896 c 1,26,-1
 1197 1004 l 1,27,-1
 1362 1004 l 1,28,-1
 1220 519 l 2,29,30
 1209 480 1209 480 1204.5 452 c 128,-1,31
 1200 424 1200 424 1200 401 c 0,32,33
 1200 347 1200 347 1225.5 324 c 128,-1,34
 1251 301 1251 301 1300 301 c 0,35,36
 1374 301 1374 301 1439.5 356 c 128,-1,37
 1505 411 1505 411 1545.5 512.5 c 128,-1,38
 1586 614 1586 614 1586 754 c 0,39,40
 1586 896 1586 896 1546.5 1002.5 c 128,-1,41
 1507 1109 1507 1109 1432 1180 c 128,-1,42
 1357 1251 1357 1251 1248.5 1286.5 c 128,-1,43
 1140 1322 1140 1322 1002 1322 c 0,44,45
 822 1322 822 1322 680 1264 c 128,-1,46
 538 1206 538 1206 438 1098.5 c 128,-1,47
 338 991 338 991 285.5 842 c 128,-1,48
 233 693 233 693 233 511 c 0,49,50
 233 348 233 348 276.5 227 c 128,-1,51
 320 106 320 106 406.5 25.5 c 128,-1,52
 493 -55 493 -55 621.5 -94.5 c 128,-1,53
 750 -134 750 -134 918 -134 c 0,54,55
 1011 -134 1011 -134 1104.5 -116 c 128,-1,56
 1198 -98 1198 -98 1289 -61 c 128,-1,57
 1380 -24 1380 -24 1469 32 c 1,58,-1
 1519 -61 l 1,59,60
 1428 -121 1428 -121 1330.5 -163 c 128,-1,61
 1233 -205 1233 -205 1124 -226.5 c 128,-1,62
 1015 -248 1015 -248 890 -248 c 0,63,64
 702 -248 702 -248 554.5 -203 c 128,-1,65
 407 -158 407 -158 303.5 -66.5 c 128,-1,66
 200 25 200 25 146.5 166.5 c 128,-1,67
 93 308 93 308 93 500 c 0,68,69
 93 705 93 705 156.5 875.5 c 128,-1,70
 220 1046 220 1046 340 1170 c 128,-1,71
 460 1294 460 1294 629.5 1362 c 128,-1,72
 799 1430 799 1430 1010 1430 c 0,73,74
 1174 1430 1174 1430 1305 1387.5 c 128,-1,75
 1436 1345 1436 1345 1528 1263.5 c 128,-1,76
 1620 1182 1620 1182 1669 1062 c 128,-1,77
 1718 942 1718 942 1718 786 c 0,78,79
 1718 649 1718 649 1683.5 538.5 c 128,-1,80
 1649 428 1649 428 1587.5 351 c 128,-1,81
 1526 274 1526 274 1443 233 c 128,-1,82
 1360 192 1360 192 1262 192 c 0,0,1
1123 847 m 1,83,84
 1108 869 1108 869 1092 882 c 0,85,86
 1062 905 1062 905 1016 905 c 0,87,88
 968 905 968 905 921 874 c 128,-1,89
 874 843 874 843 833 791.5 c 128,-1,90
 792 740 792 740 760.5 678.5 c 128,-1,91
 729 617 729 617 711 554 c 128,-1,92
 693 491 693 491 693 438 c 0,93,94
 694 390 694 390 715 367 c 128,-1,95
 736 344 736 344 780 344 c 0,96,97
 816 344 816 344 857.5 372.5 c 128,-1,98
 899 401 899 401 940.5 452.5 c 128,-1,99
 982 504 982 504 1018.5 571.5 c 128,-1,100
 1055 639 1055 639 1081 717 c 2,101,-1
 1123 847 l 1,83,84
EndSplineSet
EndChar

StartChar: A
Encoding: 65 65 36
Width: 1528
GlyphClass: 2
Flags: W
AnchorPoint: "Anchor-4" 734 0 basechar 0
AnchorPoint: "Anchor-3" 1387 0 basechar 0
LayerCount: 2
Fore
SplineSet
1359 140 m 1,0,-1
 1473 92.7001953125 l 5,1,-1
 1473 0 l 1,2,-1
 996 0 l 1,3,-1
 996 92.7001953125 l 1,4,-1
 1125 139 l 1,5,-1
 992 467 l 1,6,-1
 448 467 l 1,7,-1
 334 138 l 1,8,-1
 430 92.7001953125 l 1,9,-1
 431 0 l 1,10,-1
 75 0 l 1,11,-1
 75 92.7001953125 l 1,12,-1
 168 138 l 1,13,-1
 636 1413 l 1,14,-1
 866 1413 l 1,15,-1
 1359 140 l 1,0,-1
708 1219 m 1,16,-1
 499 616 l 1,17,-1
 935 616 l 1,18,-1
 708 1219 l 1,16,-1
EndSplineSet
Substitution2: "Single Substitution lookup 3 subtable" ordfeminine
EndChar

StartChar: B
Encoding: 66 66 37
Width: 1370
GlyphClass: 2
Flags: W
AnchorPoint: "Anchor-4" 720 0 basechar 0
LayerCount: 2
Fore
SplineSet
102 0 m 1,0,-1
 102 92 l 1,1,-1
 270 139 l 1,2,-1
 270 1257 l 1,3,-1
 102 1304 l 1,4,-1
 102 1396 l 1,5,-1
 397 1396 l 1,6,-1
 492 1396 l 1,7,-1
 789 1396 l 2,8,9
 941 1396 941 1396 1032.5 1354.5 c 128,-1,10
 1124 1313 1124 1313 1164.5 1239 c 128,-1,11
 1205 1165 1205 1165 1205 1067 c 0,12,13
 1205 929 1205 929 1128 844 c 0,14,15
 1070 780 1070 780 973 757 c 1,16,17
 1100 735 1100 735 1175 660 c 0,18,19
 1269 567 1269 567 1269 417 c 0,20,21
 1269 290 1269 290 1220 196 c 128,-1,22
 1171 102 1171 102 1064 51 c 128,-1,23
 957 0 957 0 779 0 c 2,24,-1
 492 0 l 1,25,-1
 397 0 l 1,26,-1
 102 0 l 1,0,-1
492 1246 m 1,27,-1
 492 814 l 1,28,-1
 765 814 l 2,29,30
 871 814 871 814 929 866.5 c 128,-1,31
 987 919 987 919 987 1038 c 0,32,33
 987 1106 987 1106 963 1152 c 128,-1,34
 939 1198 939 1198 885.5 1222 c 128,-1,35
 832 1246 832 1246 745 1246 c 2,36,-1
 492 1246 l 1,27,-1
492 667 m 1,37,-1
 492 149 l 1,38,-1
 759 149 l 2,39,40
 854 149 854 149 916.5 174 c 128,-1,41
 979 199 979 199 1010.5 258 c 128,-1,42
 1042 317 1042 317 1042 417 c 0,43,44
 1042 494 1042 494 1014.5 550.5 c 128,-1,45
 987 607 987 607 926 637 c 128,-1,46
 865 667 865 667 767 667 c 2,47,-1
 492 667 l 1,37,-1
EndSplineSet
EndChar

StartChar: C
Encoding: 67 67 38
Width: 1441
GlyphClass: 2
Flags: W
AnchorPoint: "Anchor-4" 794 0 basechar 0
AnchorPoint: "Anchor-3" 1306 0 basechar 0
LayerCount: 2
Fore
SplineSet
879 132 m 0,0,1
 972 132 972 132 1046 148 c 0,2,3
 1083 156 1083 156 1119 166 c 1,4,-1
 1227 431 l 1,5,-1
 1339 431 l 1,6,-1
 1301 62 l 1,7,8
 1226 25 1226 25 1109.5 2 c 128,-1,9
 993 -21 993 -21 862 -21 c 0,10,11
 680 -21 680 -21 538.5 24.5 c 128,-1,12
 397 70 397 70 300 159.5 c 128,-1,13
 203 249 203 249 153.5 381.5 c 128,-1,14
 104 514 104 514 105 688 c 0,15,16
 107 918 107 918 197 1081 c 128,-1,17
 287 1244 287 1244 456 1330.5 c 128,-1,18
 625 1417 625 1417 866 1417 c 0,19,20
 957 1417 957 1417 1034 1402 c 0,21,22
 1088 1392 1088 1392 1144 1377 c 1,23,-1
 1311 1340 l 1,24,-1
 1311 1340 l 1,25,-1
 1325 948 l 1,26,-1
 1200 946 l 1,27,-1
 1119 1201 l 1,28,29
 1060 1230 1060 1230 1008 1242 c 0,30,31
 940 1259 940 1259 853 1259 c 0,32,33
 720 1259 720 1259 623.5 1226 c 128,-1,34
 527 1193 527 1193 464.5 1127.5 c 128,-1,35
 402 1062 402 1062 370.5 964.5 c 128,-1,36
 339 867 339 867 336 739 c 0,37,38
 332 588 332 588 369.5 474 c 128,-1,39
 407 360 407 360 478.5 284 c 128,-1,40
 550 208 550 208 652 170 c 128,-1,41
 754 132 754 132 879 132 c 0,0,1
EndSplineSet
EndChar

StartChar: D
Encoding: 68 68 39
Width: 1566
GlyphClass: 2
Flags: W
AnchorPoint: "Anchor-4" 791 0 basechar 0
LayerCount: 2
Fore
SplineSet
97 0 m 1,0,-1
 97 92 l 1,1,-1
 272 139 l 1,2,-1
 272 1257 l 1,3,-1
 97 1304 l 1,4,-1
 97 1396 l 1,5,-1
 367 1396 l 1,6,-1
 493 1396 l 1,7,-1
 741 1396 l 2,8,9
 979 1396 979 1396 1139.5 1320.5 c 128,-1,10
 1300 1245 1300 1245 1380 1096.5 c 128,-1,11
 1460 948 1460 948 1460 730 c 0,12,13
 1460 494 1460 494 1369 331 c 128,-1,14
 1278 168 1278 168 1114.5 84 c 128,-1,15
 951 0 951 0 734 0 c 2,16,-1
 493 0 l 1,17,-1
 367 0 l 1,18,-1
 97 0 l 1,0,-1
1229 715 m 0,19,20
 1229 985 1229 985 1094 1114.5 c 128,-1,21
 959 1244 959 1244 681 1244 c 2,22,-1
 493 1244 l 1,23,-1
 493 152 l 1,24,-1
 723 152 l 2,25,26
 885 152 885 152 998.5 210 c 128,-1,27
 1112 268 1112 268 1170.5 392 c 128,-1,28
 1229 516 1229 516 1229 715 c 0,19,20
EndSplineSet
EndChar

StartChar: E
Encoding: 69 69 40
Width: 1332
GlyphClass: 2
Flags: W
AnchorPoint: "Anchor-4" 651 0 basechar 0
AnchorPoint: "Anchor-3" 1108 0 basechar 0
LayerCount: 2
Fore
SplineSet
113 0 m 1,0,-1
 113 106 l 1,1,-1
 230 139 l 1,2,-1
 230 1257 l 1,3,-1
 125 1288 l 1,4,-1
 125 1396 l 1,5,-1
 327 1396 l 1,6,-1
 451 1396 l 1,7,-1
 1021 1396 l 1,8,-1
 1097 1396 l 1,9,-1
 1187 1396 l 1,10,-1
 1195 1117 l 1,11,-1
 1057 1108 l 1,12,-1
 1014 1246 l 1,13,-1
 451 1246 l 1,14,-1
 451 802 l 1,15,-1
 791 802 l 1,16,-1
 808 913 l 1,17,-1
 922 913 l 1,18,-1
 924 727 l 1,19,-1
 922 562 l 1,20,-1
 805 559 l 1,21,-1
 791 655 l 1,22,-1
 451 655 l 1,23,-1
 451 149 l 1,24,-1
 1018 149 l 1,25,-1
 1105 346 l 1,26,-1
 1231 349 l 1,27,-1
 1179 0 l 1,28,-1
 1083 0 l 1,29,-1
 1020 0 l 1,30,-1
 451 0 l 1,31,-1
 327 0 l 1,32,-1
 113 0 l 1,0,-1
EndSplineSet
EndChar

StartChar: F
Encoding: 70 70 41
Width: 1282
GlyphClass: 2
Flags: W
AnchorPoint: "Anchor-4" 382 0 basechar 0
LayerCount: 2
Fore
SplineSet
1158 1396 m 1,0,-1
 1158 1396 l 1,1,-1
 1169 1044 l 1,2,-1
 1061 1036 l 1,3,-1
 1023 1246 l 1,4,-1
 493 1246 l 1,5,-1
 493 736 l 1,6,-1
 828 736 l 1,7,-1
 840 854 l 1,8,-1
 960 854 l 1,9,-1
 960 661 l 1,10,-1
 958 474 l 1,11,-1
 834 470 l 1,12,-1
 828 589 l 1,13,-1
 493 589 l 1,14,-1
 493 139 l 1,15,-1
 668 92 l 1,16,-1
 668 0 l 1,17,-1
 97 0 l 1,18,-1
 97 92 l 1,19,-1
 272 139 l 1,20,-1
 272 1257 l 1,21,-1
 158 1282 l 1,22,-1
 158 1396 l 1,23,-1
 363 1396 l 1,24,-1
 493 1396 l 1,25,-1
 1033 1396 l 1,26,-1
 1158 1396 l 1,0,-1
EndSplineSet
EndChar

StartChar: G
Encoding: 71 71 42
Width: 1562
GlyphClass: 2
Flags: W
AnchorPoint: "Anchor-4" 850 0 basechar 0
LayerCount: 2
Fore
SplineSet
1343 209 m 1,0,-1
 1343 209 l 1,1,-1
 1347 69 l 1,2,3
 1271 29 1271 29 1222 19.5 c 128,-1,4
 1173 10 1173 10 1067 -5.5 c 128,-1,5
 961 -21 961 -21 861 -21 c 0,6,7
 680 -21 680 -21 538.5 24.5 c 128,-1,8
 397 70 397 70 300 159.5 c 128,-1,9
 203 249 203 249 153.5 381.5 c 128,-1,10
 104 514 104 514 105 688 c 0,11,12
 107 918 107 918 197.5 1081 c 128,-1,13
 288 1244 288 1244 458.5 1330.5 c 128,-1,14
 629 1417 629 1417 872 1417 c 0,15,16
 965 1417 965 1417 1043 1402 c 0,17,18
 1096 1392 1096 1392 1150 1377 c 1,19,20
 1150 1377 1150 1377 1327 1328 c 1,21,-1
 1331 962 l 1,22,23
 1330 962 1330 962 1206 959 c 1,24,-1
 1126 1200 l 1,25,26
 1072 1227 1072 1227 1022 1240 c 0,27,28
 950 1259 950 1259 859 1259 c 0,29,30
 725 1259 725 1259 627 1226 c 128,-1,31
 529 1193 529 1193 465.5 1127 c 128,-1,32
 402 1061 402 1061 370.5 964 c 128,-1,33
 339 867 339 867 336 738 c 0,34,35
 331 538 331 538 397 403 c 128,-1,36
 463 268 463 268 586 200.5 c 128,-1,37
 709 133 709 133 874 133 c 0,38,39
 961 133 961 133 994 142 c 0,40,41
 1079 165 1079 165 1112 172 c 0,42,43
 1117 173 1117 173 1122 175 c 1,44,-1
 1122 518 l 1,45,-1
 918 567 l 1,46,-1
 918 658 l 1,47,-1
 1483 658 l 1,48,-1
 1483 567 l 1,49,-1
 1343 519 l 1,50,-1
 1343 209 l 1,0,-1
EndSplineSet
EndChar

StartChar: H
Encoding: 72 72 43
Width: 1675
GlyphClass: 2
Flags: W
AnchorPoint: "Anchor-4" 838 0 basechar 0
LayerCount: 2
Fore
SplineSet
1404 139 m 1,0,-1
 1579 92 l 1,1,-1
 1579 0 l 1,2,-1
 1008 0 l 1,3,-1
 1008 92 l 1,4,-1
 1183 139 l 1,5,-1
 1183 635 l 1,6,-1
 493 635 l 1,7,-1
 493 139 l 1,8,-1
 668 92 l 1,9,-1
 668 0 l 1,10,-1
 97 0 l 1,11,-1
 97 92 l 1,12,-1
 272 139 l 1,13,-1
 272 1257 l 1,14,-1
 97 1304 l 1,15,-1
 97 1396 l 1,16,-1
 668 1396 l 1,17,-1
 668 1304 l 1,18,-1
 493 1257 l 1,19,-1
 493 787 l 1,20,-1
 1183 787 l 1,21,-1
 1183 1257 l 1,22,-1
 1008 1304 l 1,23,-1
 1008 1396 l 1,24,-1
 1579 1396 l 1,25,-1
 1579 1304 l 1,26,-1
 1404 1257 l 1,27,-1
 1404 139 l 1,0,-1
EndSplineSet
EndChar

StartChar: I
Encoding: 73 73 44
Width: 764
GlyphClass: 2
Flags: W
AnchorPoint: "Anchor-4" 382 0 basechar 0
AnchorPoint: "Anchor-3" 529 0 basechar 0
LayerCount: 2
Fore
SplineSet
668 92 m 1,0,-1
 668 0 l 1,1,-1
 97 0 l 1,2,-1
 97 92 l 1,3,-1
 272 139 l 1,4,-1
 272 1257 l 1,5,-1
 97 1304 l 1,6,-1
 97 1396 l 1,7,-1
 668 1396 l 1,8,-1
 668 1304 l 1,9,-1
 493 1257 l 1,10,-1
 493 139 l 1,11,-1
 668 92 l 1,0,-1
EndSplineSet
EndChar

StartChar: J
Encoding: 74 74 45
Width: 1026
GlyphClass: 2
Flags: W
AnchorPoint: "Anchor-4" 447 0 basechar 0
LayerCount: 2
Fore
SplineSet
782 408 m 2,0,1
 782 309 782 309 753.5 230 c 128,-1,2
 725 151 725 151 666.5 95.5 c 128,-1,3
 608 40 608 40 519 11 c 128,-1,4
 430 -18 430 -18 311 -18 c 0,5,6
 206 -18 206 -18 143 3 c 128,-1,7
 80 24 80 24 53.5 61.5 c 128,-1,8
 27 99 27 99 27 145 c 0,9,10
 27 195 27 195 53.5 227 c 128,-1,11
 80 259 80 259 127 259 c 0,12,13
 144 259 144 259 163 241 c 128,-1,14
 182 223 182 223 208.5 199 c 128,-1,15
 235 175 235 175 271 156.5 c 128,-1,16
 307 138 307 138 357 138 c 0,17,18
 455 138 455 138 507.5 190 c 128,-1,19
 560 242 560 242 560 369 c 2,20,-1
 560 1257 l 1,21,-1
 385 1304 l 1,22,-1
 385 1396 l 1,23,-1
 956 1396 l 1,24,-1
 956 1304 l 1,25,-1
 782 1257 l 1,26,-1
 782 408 l 2,0,1
EndSplineSet
EndChar

StartChar: K
Encoding: 75 75 46
Width: 1553
GlyphClass: 2
Flags: W
AnchorPoint: "Anchor-4" 836 0 basechar 0
LayerCount: 2
Fore
SplineSet
1388 132 m 1,0,-1
 1535 92 l 1,1,-1
 1535 0 l 1,2,-1
 1082 0 l 1,3,-1
 1082 63 l 1,4,-1
 1117 103 l 1,5,-1
 651 646 l 1,6,-1
 493 646 l 1,7,-1
 493 139 l 1,8,-1
 668 92 l 1,9,-1
 668 0 l 1,10,-1
 97 0 l 1,11,-1
 97 92 l 1,12,-1
 272 139 l 1,13,-1
 272 1257 l 1,14,-1
 97 1304 l 1,15,-1
 97 1396 l 1,16,-1
 668 1396 l 1,17,-1
 668 1304 l 1,18,-1
 493 1257 l 1,19,-1
 493 797 l 1,20,-1
 666 797 l 1,21,-1
 1107 1263 l 1,22,-1
 955 1304 l 1,23,-1
 955 1396 l 1,24,-1
 1447 1396 l 1,25,-1
 1447 1304 l 1,26,-1
 1291 1257 l 1,27,-1
 826 777 l 1,28,-1
 1388 132 l 1,0,-1
EndSplineSet
EndChar

StartChar: L
Encoding: 76 76 47
Width: 1223
GlyphClass: 2
Flags: W
AnchorPoint: "Anchor-4" 582 0 basechar 0
AnchorPoint: "Anchor-3" 673 1395 basechar 0
LayerCount: 2
Fore
SplineSet
1097 0 m 1,0,-1
 977 0 l 1,1,-1
 932 0 l 1,2,-1
 430 0 l 1,3,-1
 306 0 l 1,4,-1
 113 0 l 1,5,-1
 113 113 l 1,6,-1
 209 139 l 1,7,-1
 209 1257 l 1,8,-1
 89 1288 l 1,9,-1
 89 1393 l 1,10,-1
 605 1396 l 1,11,-1
 605 1304 l 1,12,-1
 430 1257 l 1,13,-1
 430 152 l 1,14,-1
 922 152 l 1,15,-1
 1015 358 l 1,16,-1
 1155 354 l 1,17,-1
 1097 0 l 1,0,-1
EndSplineSet
EndChar

StartChar: M
Encoding: 77 77 48
Width: 2048
GlyphClass: 2
Flags: W
AnchorPoint: "Anchor-4" 997 0 basechar 0
LayerCount: 2
Fore
SplineSet
1806 140 m 1,0,-1
 1974 92 l 1,1,-1
 1974 0 l 1,2,-1
 1418 0 l 1,3,-1
 1418 92 l 1,4,-1
 1584 139 l 1,5,-1
 1514 1209 l 1,6,-1
 1088 -4 l 1,7,-1
 875 -4 l 1,8,-1
 454 1201 l 1,9,-1
 387 139 l 1,10,-1
 552 92 l 1,11,-1
 552 0 l 1,12,-1
 80 0 l 1,13,-1
 80 92 l 1,14,-1
 238 139 l 1,15,-1
 314 1243 l 1,16,-1
 131 1304 l 1,17,-1
 131 1396 l 1,18,-1
 622 1396 l 1,19,-1
 1026 217 l 1,20,-1
 1431 1396 l 1,21,-1
 1907 1396 l 1,22,-1
 1907 1304 l 1,23,-1
 1733 1249 l 1,24,-1
 1806 140 l 1,0,-1
EndSplineSet
EndChar

StartChar: N
Encoding: 78 78 49
Width: 1613
GlyphClass: 2
Flags: W
AnchorPoint: "Anchor-4" 838 0 basechar 0
LayerCount: 2
Fore
SplineSet
271 139 m 1,0,-1
 271 1251 l 1,1,-1
 99 1304 l 1,2,-1
 99 1396 l 1,3,-1
 555 1396 l 1,4,-1
 1209 264 l 1,5,-1
 1209 1257 l 1,6,-1
 1025 1304 l 1,7,-1
 1025 1396 l 1,8,-1
 1532 1396 l 1,9,-1
 1532 1304 l 1,10,-1
 1362 1257 l 1,11,-1
 1362 -4 l 1,12,-1
 1119 -4 l 1,13,-1
 424 1193 l 1,14,-1
 424 139 l 1,15,-1
 608 92 l 1,16,-1
 608 0 l 1,17,-1
 102 0 l 1,18,-1
 102 92 l 1,19,-1
 271 139 l 1,0,-1
EndSplineSet
EndChar

StartChar: O
Encoding: 79 79 50
Width: 1577
GlyphClass: 2
Flags: W
AnchorPoint: "Anchor-4" 788 0 basechar 0
AnchorPoint: "Anchor-3" 973 0 basechar 0
AnchorPoint: "Anchor-2" 1089 1396 basechar 0
LayerCount: 2
Fore
SplineSet
797 139 m 0,0,1
 941 139 941 139 1040.5 201.5 c 128,-1,2
 1140 264 1140 264 1191.5 381 c 128,-1,3
 1243 498 1243 498 1243 663 c 0,4,5
 1243 852 1243 852 1189.5 984.5 c 128,-1,6
 1136 1117 1136 1117 1033 1186.5 c 128,-1,7
 930 1256 930 1256 781 1256 c 0,8,9
 637 1256 637 1256 537 1194 c 128,-1,10
 437 1132 437 1132 385.5 1015 c 128,-1,11
 334 898 334 898 334 733 c 0,12,13
 334 545 334 545 388 412 c 128,-1,14
 442 279 442 279 545 209 c 128,-1,15
 648 139 648 139 797 139 c 0,0,1
790 1417 m 0,16,17
 946 1417 946 1417 1072.5 1365 c 128,-1,18
 1199 1313 1199 1313 1288.5 1217.5 c 128,-1,19
 1378 1122 1378 1122 1425.5 990.5 c 128,-1,20
 1473 859 1473 859 1473 700 c 0,21,22
 1473 540 1473 540 1425 407.5 c 128,-1,23
 1377 275 1377 275 1287 179 c 128,-1,24
 1197 83 1197 83 1070.5 31 c 128,-1,25
 944 -21 944 -21 788 -21 c 128,-1,26
 632 -21 632 -21 505.5 31 c 128,-1,27
 379 83 379 83 289.5 178.5 c 128,-1,28
 200 274 200 274 152 405.5 c 128,-1,29
 104 537 104 537 104 696 c 0,30,31
 104 856 104 856 152.5 988 c 128,-1,32
 201 1120 201 1120 291 1216 c 128,-1,33
 381 1312 381 1312 507 1364.5 c 128,-1,34
 633 1417 633 1417 790 1417 c 0,16,17
EndSplineSet
Substitution2: "Single Substitution lookup 3 subtable" ordmasculine
EndChar

StartChar: P
Encoding: 80 80 51
Width: 1309
GlyphClass: 2
Flags: W
AnchorPoint: "Anchor-4" 382 0 basechar 0
LayerCount: 2
Fore
SplineSet
1016 979 m 0,0,1
 1016 1067 1016 1067 985 1126 c 128,-1,2
 954 1185 954 1185 878 1214.5 c 128,-1,3
 802 1244 802 1244 667 1244 c 2,4,-1
 493 1244 l 1,5,-1
 493 712 l 1,6,-1
 746 712 l 2,7,8
 831 712 831 712 891 740 c 128,-1,9
 951 768 951 768 983.5 827.5 c 128,-1,10
 1016 887 1016 887 1016 979 c 0,0,1
493 561 m 1,11,-1
 493 139 l 1,12,-1
 668 92 l 1,13,-1
 668 0 l 1,14,-1
 97 0 l 1,15,-1
 97 92 l 1,16,-1
 272 139 l 1,17,-1
 272 1257 l 1,18,-1
 97 1304 l 1,19,-1
 97 1396 l 1,20,-1
 332 1396 l 1,21,-1
 493 1396 l 1,22,-1
 733 1396 l 2,23,24
 920 1396 920 1396 1031.5 1344.5 c 128,-1,25
 1143 1293 1143 1293 1192.5 1200.5 c 128,-1,26
 1242 1108 1242 1108 1242 985 c 0,27,28
 1242 863 1242 863 1193.5 767 c 128,-1,29
 1145 671 1145 671 1038.5 616 c 128,-1,30
 932 561 932 561 758 561 c 2,31,-1
 493 561 l 1,11,-1
EndSplineSet
EndChar

StartChar: Q
Encoding: 81 81 52
Width: 1577
GlyphClass: 2
Flags: W
AnchorPoint: "Anchor-4" 790 -384 basechar 0
LayerCount: 2
Fore
SplineSet
797 140 m 0,0,1
 941 140 941 140 1040.5 202.5 c 128,-1,2
 1140 265 1140 265 1191.5 382 c 128,-1,3
 1243 499 1243 499 1243 663 c 0,4,5
 1243 852 1243 852 1189.5 984.5 c 128,-1,6
 1136 1117 1136 1117 1033 1186.5 c 128,-1,7
 930 1256 930 1256 781 1256 c 0,8,9
 637 1256 637 1256 537 1194 c 128,-1,10
 437 1132 437 1132 385.5 1015 c 128,-1,11
 334 898 334 898 334 733 c 0,12,13
 334 545 334 545 388 412 c 128,-1,14
 442 279 442 279 545 209.5 c 128,-1,15
 648 140 648 140 797 140 c 0,0,1
746 -257 m 2,16,-1
 352 116 l 2,17,18
 270 192 270 192 215 280.5 c 128,-1,19
 160 369 160 369 132 471.5 c 128,-1,20
 104 574 104 574 104 696 c 0,21,22
 104 856 104 856 152.5 988 c 128,-1,23
 201 1120 201 1120 291 1216 c 128,-1,24
 381 1312 381 1312 507.5 1364.5 c 128,-1,25
 634 1417 634 1417 790 1417 c 128,-1,26
 946 1417 946 1417 1072.5 1365 c 128,-1,27
 1199 1313 1199 1313 1288.5 1217.5 c 128,-1,28
 1378 1122 1378 1122 1425.5 990.5 c 128,-1,29
 1473 859 1473 859 1473 700 c 0,30,31
 1473 517 1473 517 1404 372 c 128,-1,32
 1335 227 1335 227 1212 136.5 c 128,-1,33
 1089 46 1089 46 928 24 c 0,34,35
 825 11 825 11 714 31 c 1,36,-1
 977 -171 l 2,37,38
 1042 -221 1042 -221 1088.5 -251 c 128,-1,39
 1135 -281 1135 -281 1177.5 -296 c 128,-1,40
 1220 -311 1220 -311 1268.5 -314 c 128,-1,41
 1317 -317 1317 -317 1383 -311 c 1,42,-1
 1383 -421 l 1,43,44
 1350 -428 1350 -428 1316.5 -434 c 128,-1,45
 1283 -440 1283 -440 1244.5 -443.5 c 128,-1,46
 1206 -447 1206 -447 1152 -447 c 0,47,48
 1088 -447 1088 -447 1038 -437.5 c 128,-1,49
 988 -428 988 -428 942.5 -406 c 128,-1,50
 897 -384 897 -384 850 -347.5 c 128,-1,51
 803 -311 803 -311 746 -257 c 2,16,-1
EndSplineSet
EndChar

StartChar: R
Encoding: 82 82 53
Width: 1421
GlyphClass: 2
Flags: W
AnchorPoint: "Anchor-4" 780 0 basechar 0
LayerCount: 2
Fore
SplineSet
755 770 m 2,0,1
 874 770 874 770 942 827 c 128,-1,2
 1010 884 1010 884 1010 1008 c 0,3,4
 1010 1087 1010 1087 981 1139 c 128,-1,5
 952 1191 952 1191 880 1217.5 c 128,-1,6
 808 1244 808 1244 681 1244 c 2,7,-1
 493 1244 l 1,8,-1
 493 770 l 1,9,-1
 755 770 l 2,0,1
493 624 m 1,10,-1
 493 139 l 1,11,-1
 666 92 l 1,12,-1
 666 0 l 1,13,-1
 97 0 l 1,14,-1
 97 92 l 1,15,-1
 272 139 l 1,16,-1
 272 1257 l 1,17,-1
 97 1304 l 1,18,-1
 97 1396 l 1,19,-1
 373 1396 l 1,20,-1
 493 1396 l 1,21,-1
 775 1396 l 2,22,23
 944 1396 944 1396 1045 1352 c 128,-1,24
 1146 1308 1146 1308 1190 1228.5 c 128,-1,25
 1234 1149 1234 1149 1234 1045 c 0,26,27
 1234 951 1234 951 1200 878.5 c 128,-1,28
 1166 806 1166 806 1096 759 c 0,29,30
 1035 719 1035 719 947 699 c 1,31,32
 1005 691 1005 691 1044 672 c 0,33,34
 1092 647 1092 647 1118.5 601.5 c 128,-1,35
 1145 556 1145 556 1161 486 c 2,36,-1
 1216 249 l 2,37,38
 1231 186 1231 186 1247.5 155.5 c 128,-1,39
 1264 125 1264 125 1292.5 116 c 128,-1,40
 1321 107 1321 107 1372 107 c 1,41,-1
 1372 0 l 1,42,43
 1262 -5 1262 -5 1194.5 -0.5 c 128,-1,44
 1127 4 1127 4 1088.5 24.5 c 128,-1,45
 1050 45 1050 45 1030 87 c 128,-1,46
 1010 129 1010 129 995 198 c 2,47,-1
 944 424 l 2,48,49
 928 502 928 502 906 545.5 c 128,-1,50
 884 589 884 589 845 606.5 c 128,-1,51
 806 624 806 624 732 624 c 2,52,-1
 493 624 l 1,10,-1
EndSplineSet
EndChar

StartChar: S
Encoding: 83 83 54
Width: 1210
GlyphClass: 2
Flags: W
AnchorPoint: "Anchor-4" 610 0 basechar 0
LayerCount: 2
Fore
SplineSet
369 142 m 1,0,1
 440 124 440 124 535 124 c 0,2,3
 655 124 655 124 733.5 148 c 128,-1,4
 812 172 812 172 850 225 c 128,-1,5
 888 278 888 278 888 364 c 0,6,7
 888 437 888 437 855.5 482.5 c 128,-1,8
 823 528 823 528 767.5 555 c 0,9,10
 705 586 705 586 644.5 600 c 0,11,12
 577 616 577 616 505 636 c 0,13,14
 436 655 436 655 369.5 680.5 c 128,-1,15
 303 706 303 706 250 748.5 c 128,-1,16
 197 791 197 791 165.5 859 c 128,-1,17
 134 927 134 927 134 1030 c 0,18,19
 134 1157 134 1157 193 1243 c 128,-1,20
 252 1329 252 1329 364 1373 c 128,-1,21
 476 1417 476 1417 635 1417 c 0,22,23
 734 1417 734 1417 818 1397 c 0,24,25
 844 1391 844 1391 871 1382 c 1,26,-1
 1039 1337 l 1,27,-1
 1039 1337 l 1,28,-1
 1051 978 l 1,29,-1
 924 975 l 1,30,-1
 836 1228 l 1,31,32
 799 1248 799 1248 760 1258 c 0,33,34
 698 1275 698 1275 623 1275 c 0,35,36
 489 1275 489 1275 413 1227.5 c 128,-1,37
 337 1180 337 1180 337 1072 c 0,38,39
 337 1007 337 1007 364.5 966 c 128,-1,40
 392 925 392 925 440 899 c 128,-1,41
 488 873 488 873 551 856 c 128,-1,42
 614 839 614 839 684 822 c 128,-1,43
 754 805 754 805 827 781.5 c 128,-1,44
 900 758 900 758 961 715 c 128,-1,45
 1022 672 1022 672 1059.5 597.5 c 128,-1,46
 1097 523 1097 523 1097 406 c 0,47,48
 1097 257 1097 257 1030 162.5 c 128,-1,49
 963 68 963 68 839.5 23.5 c 128,-1,50
 716 -21 716 -21 543 -21 c 0,51,52
 433 -21 433 -21 345.5 -10.5 c 128,-1,53
 258 0 258 0 168 33 c 1,54,-1
 106 431 l 1,55,-1
 233 431 l 1,56,-1
 369 142 l 1,0,1
EndSplineSet
EndChar

StartChar: T
Encoding: 84 84 55
Width: 1429
GlyphClass: 2
Flags: WO
AnchorPoint: "Anchor-4" 714 0 basechar 0
LayerCount: 2
Fore
SplineSet
1318 1403.5 m 1,0,-1
 1292 1022 l 1,1,-1
 1160 995 l 1,2,-1
 1146 1244 l 1,3,-1
 826 1244 l 1,4,-1
 826 139 l 1,5,-1
 1013 92 l 1,6,-1
 1013 0 l 1,7,-1
 416 0 l 1,8,-1
 416 92 l 1,9,-1
 603 139 l 1,10,-1
 603 1244 l 1,11,-1
 263 1244 l 1,12,-1
 233 983 l 1,13,-1
 125 1001 l 1,14,-1
 118 1403.5 l 1,15,-1
 1318 1403.5 l 1,0,-1
EndSplineSet
EndChar

StartChar: U
Encoding: 85 85 56
Width: 1590
GlyphClass: 2
Flags: W
AnchorPoint: "Anchor-4" 808 0 basechar 0
AnchorPoint: "Anchor-3" 996 0 basechar 0
AnchorPoint: "Anchor-2" 1396 1396 basechar 0
LayerCount: 2
Fore
SplineSet
1201 509 m 2,0,-1
 1201 1257 l 1,1,-1
 1026 1304 l 1,2,-1
 1026 1396 l 1,3,-1
 1529 1396 l 1,4,-1
 1529 1304 l 1,5,-1
 1354 1257 l 1,6,-1
 1354 518 l 2,7,8
 1354 341 1354 341 1290.5 221 c 128,-1,9
 1227 101 1227 101 1106.5 40 c 128,-1,10
 986 -21 986 -21 813 -21 c 0,11,12
 622 -21 622 -21 494 38 c 128,-1,13
 366 97 366 97 301 219.5 c 128,-1,14
 236 342 236 342 236 528 c 2,15,-1
 236 1257 l 1,16,-1
 61 1304 l 1,17,-1
 61 1396 l 1,18,-1
 632 1396 l 1,19,-1
 632 1304 l 1,20,-1
 457 1257 l 1,21,-1
 457 529 l 2,22,23
 457 401 457 401 499 318.5 c 128,-1,24
 541 236 541 236 625 197 c 128,-1,25
 709 158 709 158 835 158 c 0,26,27
 956 158 956 158 1037 195 c 128,-1,28
 1118 232 1118 232 1159.5 309.5 c 128,-1,29
 1201 387 1201 387 1201 509 c 2,0,-1
EndSplineSet
EndChar

StartChar: V
Encoding: 86 86 57
Width: 1499
GlyphClass: 2
Flags: W
AnchorPoint: "Anchor-4" 769 0 basechar 0
LayerCount: 2
Fore
SplineSet
165 1256 m 1,0,-1
 -3 1304 l 1,1,-1
 -3 1396 l 1,2,3
 -2 1396 -2 1396 580 1396 c 1,4,-1
 580 1304 l 1,5,-1
 408 1258 l 1,6,-1
 813 179 l 1,7,-1
 1168 1257 l 1,8,-1
 998 1304 l 1,9,-1
 998 1396 l 1,10,-1
 1486 1396 l 1,11,-1
 1486 1304 l 1,12,-1
 1330 1258 l 1,13,-1
 886 -18 l 1,14,-1
 656 -18 l 1,15,-1
 165 1256 l 1,0,-1
EndSplineSet
EndChar

StartChar: W
Encoding: 87 87 58
Width: 2076
GlyphClass: 2
Flags: W
AnchorPoint: "Anchor-4" 1066 0 basechar 0
LayerCount: 2
Fore
SplineSet
1555 238 m 1,0,-1
 1749 1257 l 1,1,-1
 1581 1304 l 1,2,-1
 1581 1396 l 1,3,-1
 2059 1396 l 1,4,-1
 2059 1304 l 1,5,-1
 1905 1258 l 1,6,-1
 1639 -4 l 1,7,-1
 1398 -4 l 1,8,-1
 1047 1128 l 1,9,-1
 693 -4 l 1,10,-1
 441 -4 l 1,11,-1
 180 1256 l 1,12,-1
 12 1304 l 1,13,-1
 12 1396 l 1,14,-1
 589 1396 l 1,15,-1
 589 1304 l 1,16,-1
 420 1258 l 1,17,-1
 624 224 l 1,18,-1
 974 1400 l 1,19,-1
 1196 1400 l 1,20,-1
 1555 238 l 1,0,-1
EndSplineSet
EndChar

StartChar: X
Encoding: 88 88 59
Width: 1556
GlyphClass: 2
Flags: W
AnchorPoint: "Anchor-4" 767 0 basechar 0
LayerCount: 2
Fore
SplineSet
904 753 m 1,0,-1
 1380 140 l 1,1,-1
 1534 92 l 1,2,-1
 1534 0 l 1,3,-1
 913 0 l 1,4,-1
 913 92 l 1,5,-1
 1082 139 l 1,6,-1
 733 594 l 1,7,-1
 373 138 l 1,8,-1
 531 92 l 1,9,-1
 531 0 l 1,10,-1
 40 0 l 1,11,-1
 40 92 l 1,12,-1
 194 139 l 1,13,-1
 651 700 l 1,14,-1
 219 1255 l 1,15,-1
 66 1304 l 1,16,-1
 66 1396 l 1,17,-1
 688 1396 l 1,18,-1
 688 1304 l 1,19,-1
 518 1256 l 1,20,-1
 822 857 l 1,21,-1
 1131 1257 l 1,22,-1
 975 1304 l 1,23,-1
 975 1396 l 1,24,-1
 1462 1396 l 1,25,-1
 1462 1304 l 1,26,-1
 1308 1256 l 1,27,-1
 904 753 l 1,0,-1
EndSplineSet
EndChar

StartChar: Y
Encoding: 89 89 60
Width: 1454
GlyphClass: 2
Flags: W
AnchorPoint: "Anchor-4" 747 0 basechar 0
LayerCount: 2
Fore
SplineSet
156 1257 m 1,0,-1
 4 1304 l 1,1,-1
 4 1396 l 1,2,-1
 602 1396 l 1,3,-1
 602 1304 l 1,4,-1
 434 1257 l 1,5,-1
 796 736 l 1,6,-1
 1119 1257 l 1,7,-1
 946 1304 l 1,8,-1
 946 1396 l 1,9,-1
 1428 1396 l 1,10,-1
 1428 1304 l 1,11,-1
 1287 1257 l 1,12,-1
 858 591 l 1,13,-1
 858 139 l 1,14,-1
 1033 92 l 1,15,-1
 1033 0 l 1,16,-1
 462 0 l 1,17,-1
 462 92 l 1,18,-1
 636 139 l 1,19,-1
 636 583 l 1,20,-1
 156 1257 l 1,0,-1
EndSplineSet
EndChar

StartChar: Z
Encoding: 90 90 61
Width: 1304
GlyphClass: 2
Flags: W
AnchorPoint: "Anchor-4" 637 0 basechar 0
LayerCount: 2
Fore
SplineSet
1169 1396 m 1,0,-1
 1169 1277 l 1,1,-1
 387 152 l 1,2,-1
 996 152 l 1,3,-1
 1120 426 l 1,4,-1
 1228 424 l 1,5,-1
 1163 0 l 1,6,-1
 1055 0 l 1,7,-1
 999 0 l 1,8,-1
 113 0 l 1,9,-1
 113 118 l 1,10,-1
 895 1244 l 1,11,-1
 311 1244 l 1,12,-1
 223 979 l 1,13,-1
 111 982 l 1,14,-1
 132 1401 l 1,15,-1
 1169 1396 l 1,0,-1
EndSplineSet
EndChar

StartChar: bracketleft
Encoding: 91 91 62
Width: 710
GlyphClass: 1
Flags: W
LayerCount: 2
Fore
SplineSet
199 -230 m 1,0,-1
 199 1448 l 1,1,-1
 657 1448 l 1,2,-1
 657 1327 l 1,3,-1
 389 1327 l 1,4,-1
 389 -110 l 1,5,-1
 657 -110 l 1,6,-1
 657 -230 l 1,7,-1
 199 -230 l 1,0,-1
EndSplineSet
Substitution2: "'case' Case-Sensitive Forms in Latin lookup 9 subtable" bracketleft.case
EndChar

StartChar: backslash
Encoding: 92 92 63
Width: 830
GlyphClass: 1
Flags: W
LayerCount: 2
Fore
SplineSet
774 0 m 1,0,-1
 608 0 l 1,1,-1
 54 1396 l 1,2,-1
 221 1396 l 1,3,-1
 774 0 l 1,0,-1
EndSplineSet
EndChar

StartChar: bracketright
Encoding: 93 93 64
Width: 710
GlyphClass: 1
Flags: W
LayerCount: 2
Fore
SplineSet
513 1449 m 1,0,-1
 513 -230 l 1,1,-1
 54 -230 l 1,2,-1
 54 -109 l 1,3,-1
 322 -109 l 1,4,-1
 322 1328 l 1,5,-1
 54 1328 l 1,6,-1
 54 1449 l 1,7,-1
 513 1449 l 1,0,-1
EndSplineSet
Substitution2: "'case' Case-Sensitive Forms in Latin lookup 9 subtable" bracketright.case
EndChar

StartChar: asciicircum
Encoding: 94 94 65
Width: 1049
GlyphClass: 1
Flags: W
LayerCount: 2
Fore
SplineSet
525 1209 m 1,0,1
 462 1063 462 1063 276 634 c 1,2,-1
 121 634 l 1,3,-1
 455 1396 l 1,4,-1
 595 1396 l 1,5,-1
 929 634 l 1,6,-1
 775 634 l 1,7,-1
 525 1209 l 1,0,1
EndSplineSet
EndChar

StartChar: a
Encoding: 97 97 68
Width: 1102
GlyphClass: 2
Flags: W
AnchorPoint: "Anchor-4" 552 0 basechar 0
AnchorPoint: "Anchor-3" 1096 0 basechar 0
AnchorPoint: "Anchor-0" 522 1062 basechar 0
LayerCount: 2
Fore
SplineSet
690 103 m 1,0,1
 645 66 645 66 627 56 c 128,-1,2
 609 46 609 46 545 11.5 c 128,-1,3
 481 -23 481 -23 396 -23 c 0,4,5
 257 -23 257 -23 180 50.5 c 128,-1,6
 103 124 103 124 103 261 c 0,7,8
 103 339 103 339 130.5 400.5 c 128,-1,9
 158 462 158 462 231.5 512 c 0,10,11
 302 560 302 560 442 602 c 0,12,13
 545 633 545 633 694 661 c 1,14,-1
 694 727 l 2,15,16
 694 837 694 837 650.5 890 c 128,-1,17
 607 943 607 943 495 943 c 0,18,19
 452 943 452 943 396 936 c 0,20,21
 380 934 380 934 365 931 c 1,22,23
 363 923 363 923 361 914 c 0,24,25
 353 881 353 881 344 854 c 128,-1,26
 335 827 335 827 325 802 c 0,27,28
 308 764 308 764 281 753.5 c 128,-1,29
 254 743 254 743 215 743 c 0,30,31
 161 743 161 743 132.5 766 c 128,-1,32
 104 789 104 789 104 823 c 0,33,34
 104 862 104 862 138 906 c 128,-1,35
 172 950 172 950 234 990 c 128,-1,36
 296 1030 296 1030 380.5 1056 c 128,-1,37
 465 1082 465 1082 563 1082 c 0,38,39
 687 1082 687 1082 761 1043 c 128,-1,40
 835 1004 835 1004 867.5 933 c 128,-1,41
 900 862 900 862 900 762 c 2,42,-1
 900 259 l 2,43,44
 900 220 900 220 911 195.5 c 128,-1,45
 922 171 922 171 944.5 159.5 c 128,-1,46
 967 148 967 148 999 148 c 0,47,48
 1021 148 1021 148 1046 153.5 c 128,-1,49
 1071 159 1071 159 1096 167 c 1,50,-1
 1096 77 l 1,51,52
 1049 29 1049 29 994.5 5.5 c 128,-1,53
 940 -18 940 -18 890 -18 c 0,54,55
 829 -18 829 -18 787 12.5 c 128,-1,56
 745 43 745 43 717.5 73 c 128,-1,57
 690 103 690 103 690 103 c 1,0,1
694 539 m 5,58,59
 600 521 600 521 536 503 c 4,60,61
 447 478 447 478 400.5 449 c 128,-1,62
 354 420 354 420 338 385 c 128,-1,63
 322 350 322 350 322 305 c 0,64,65
 322 228 322 228 362.5 189.5 c 128,-1,66
 403 151 403 151 484 151 c 0,67,68
 544 151 544 151 591 175.5 c 128,-1,69
 638 200 638 200 666 241.5 c 128,-1,70
 694 283 694 283 694 335 c 2,71,-1
 694 539 l 5,58,59
EndSplineSet
Substitution2: "Single Substitution lookup 3 subtable" ordfeminine
EndChar

StartChar: b
Encoding: 98 98 69
Width: 1240
GlyphClass: 2
Flags: W
AnchorPoint: "Anchor-4" 606 0 basechar 0
LayerCount: 2
Fore
SplineSet
380 853 m 1,0,-1
 380 394 l 6,1,2
 380 255 380 255 408.5 220 c 128,-1,3
 437 185 437 185 494 154.5 c 128,-1,4
 551 124 551 124 634 124 c 0,5,6
 725 124 725 124 790.5 171 c 128,-1,7
 856 218 856 218 890.5 311 c 128,-1,8
 925 404 925 404 925 542 c 0,9,10
 925 661 925 661 890.5 741 c 128,-1,11
 856 821 856 821 787.5 861 c 128,-1,12
 719 901 719 901 619 901 c 0,13,14
 563 901 563 901 508.5 891 c 128,-1,15
 454 881 454 881 402 862 c 0,16,17
 391 857 391 857 380 853 c 1,0,-1
380 963 m 1,18,19
 415 983 415 983 445 998 c 0,20,21
 508 1030 508 1030 556 1049 c 128,-1,22
 604 1068 604 1068 641.5 1076 c 128,-1,23
 679 1084 679 1084 710 1084 c 0,24,25
 851 1084 851 1084 948.5 1022 c 128,-1,26
 1046 960 1046 960 1097 846 c 128,-1,27
 1148 732 1148 732 1148 576 c 0,28,29
 1148 435 1148 435 1112.5 323.5 c 128,-1,30
 1077 212 1077 212 1012.5 134 c 0,31,32
 948 57 948 57 838.174228305 6.02310389166 c 0,33,34
 787.857185718 -17.6554596636 787.857185718 -17.6554596636 663 -25 c 4,35,36
 238 -50 238 -50 176 48 c 5,37,-1
 174 297 l 1,38,-1
 174 1335 l 1,39,40
 161 1344 161 1344 129.5 1359.5 c 128,-1,41
 98 1375 98 1375 57.5 1393.5 c 128,-1,42
 17 1412 17 1412 -22 1429 c 1,43,-1
 -22 1503 l 1,44,-1
 356 1587 l 1,45,-1
 398 1587 l 1,46,-1
 380 1366 l 1,47,-1
 380 963 l 1,18,19
EndSplineSet
EndChar

StartChar: c
Encoding: 99 99 70
Width: 1020
GlyphClass: 2
Flags: W
AnchorPoint: "Anchor-4" 540 0 basechar 0
AnchorPoint: "Anchor-3" 938 0 basechar 0
AnchorPoint: "Anchor-0" 560 1062 basechar 0
LayerCount: 2
Fore
SplineSet
652 1084 m 0,0,1
 768 1084 768 1084 833.5 1056.5 c 128,-1,2
 899 1029 899 1029 926 988.5 c 128,-1,3
 953 948 953 948 953 908 c 128,-1,4
 953 868 953 868 937 835 c 128,-1,5
 921 802 921 802 892.5 783 c 128,-1,6
 864 764 864 764 827 764 c 0,7,8
 815 764 815 764 790.5 782 c 128,-1,9
 766 800 766 800 737 826.5 c 128,-1,10
 708 853 708 853 677.5 879.5 c 128,-1,11
 647 906 647 906 618 924 c 128,-1,12
 589 942 589 942 567 942 c 0,13,14
 484 942 484 942 422.5 903.5 c 128,-1,15
 361 865 361 865 326.5 785.5 c 128,-1,16
 292 706 292 706 292 586 c 0,17,18
 292 447 292 447 331 353.5 c 128,-1,19
 370 260 370 260 446.5 213 c 128,-1,20
 523 166 523 166 635 166 c 0,21,22
 706 166 706 166 779 186 c 0,23,24
 851 206 851 206 929 247 c 1,25,-1
 936 149 l 1,26,27
 871 93 871 93 806 54.5 c 128,-1,28
 741 16 741 16 678 -3.5 c 128,-1,29
 615 -23 615 -23 555 -23 c 0,30,31
 416 -23 416 -23 311.5 40.5 c 128,-1,32
 207 104 207 104 149 223.5 c 128,-1,33
 91 343 91 343 91 513 c 0,34,35
 91 645 91 645 128.5 750.5 c 128,-1,36
 166 856 166 856 239 930.5 c 128,-1,37
 312 1005 312 1005 415.5 1044.5 c 128,-1,38
 519 1084 519 1084 652 1084 c 0,0,1
EndSplineSet
EndChar

StartChar: d
Encoding: 100 100 71
Width: 1269
GlyphClass: 2
Flags: W
AnchorPoint: "Anchor-4" 648 0 basechar 0
AnchorPoint: "Anchor-3" 1066 1560 basechar 0
AnchorPoint: "Anchor-1" 903 1240 basechar 0
LayerCount: 2
Fore
SplineSet
859 701 m 2,0,1
 859 813 859 813 805 877 c 128,-1,2
 751 941 751 941 622 941 c 0,3,4
 522 941 522 941 453.5 893 c 128,-1,5
 385 845 385 845 349.5 754 c 128,-1,6
 314 663 314 663 314 535 c 0,7,8
 314 409 314 409 349.5 325.5 c 128,-1,9
 385 242 385 242 453.5 201.5 c 128,-1,10
 522 161 522 161 620 161 c 0,11,12
 701 161 701 161 780 186 c 0,13,14
 819 198 819 198 859 216 c 1,15,-1
 859 701 l 2,0,1
859 1042 m 1,16,-1
 859 1346 l 1,17,18
 848 1354 848 1354 813.5 1369.5 c 128,-1,19
 779 1385 779 1385 738.5 1402 c 128,-1,20
 698 1419 698 1419 671 1431 c 1,21,-1
 671 1506 l 1,22,-1
 1042 1587 l 1,23,-1
 1083 1587 l 1,24,-1
 1066 1366 l 1,25,-1
 1060 187 l 2,26,27
 1060 101 1060 101 1232 115 c 9,28,-1
 1233 0 l 1,29,-1
 923 -40 l 5,30,-1
 882 52 l 1,31,32
 661 -45 661 -45 427 -8 c 0,33,34
 345 5 345 5 267 53.5 c 128,-1,35
 189 102 189 102 140.5 216 c 128,-1,36
 92 330 92 330 92 487 c 0,37,38
 92 624 92 624 133 735 c 128,-1,39
 174 846 174 846 247.5 923.5 c 128,-1,40
 321 1001 321 1001 419.5 1042.5 c 128,-1,41
 518 1084 518 1084 632 1084 c 0,42,43
 698 1084 698 1084 754 1074 c 0,44,45
 807 1064 807 1064 859 1042 c 1,16,-1
EndSplineSet
EndChar

StartChar: e
Encoding: 101 101 72
Width: 1065
GlyphClass: 2
Flags: W
AnchorPoint: "Anchor-4" 577 0 basechar 0
AnchorPoint: "Anchor-3" 969 0 basechar 0
AnchorPoint: "Anchor-0" 549 1062 basechar 0
LayerCount: 2
Fore
SplineSet
558 1084 m 0,0,1
 702 1084 702 1084 793 1020.5 c 128,-1,2
 884 957 884 957 928 832.5 c 128,-1,3
 972 708 972 708 976 527 c 1,4,-1
 294 527 l 1,5,6
 301 418 301 418 334 344 c 0,7,8
 374 253 374 253 456 209 c 128,-1,9
 538 165 538 165 661 165 c 0,10,11
 719 165 719 165 771.5 176 c 128,-1,12
 824 187 824 187 872 206 c 128,-1,13
 920 225 920 225 961 246 c 1,14,-1
 969 149 l 1,15,16
 904 95 904 95 836 56 c 128,-1,17
 768 17 768 17 701 -3 c 128,-1,18
 634 -23 634 -23 573 -23 c 0,19,20
 427 -23 427 -23 318.5 41 c 128,-1,21
 210 105 210 105 150.5 225.5 c 128,-1,22
 91 346 91 346 91 516 c 128,-1,23
 91 686 91 686 148 814 c 128,-1,24
 205 942 205 942 310.5 1013 c 128,-1,25
 416 1084 416 1084 558 1084 c 0,0,1
763 664 m 1,26,27
 757 752 757 752 736 810 c 0,28,29
 711 879 711 879 664 910.5 c 128,-1,30
 617 942 617 942 549 942 c 0,31,32
 469 942 469 942 411 904 c 128,-1,33
 353 866 353 866 323 786 c 0,34,35
 303 733 303 733 296 659 c 1,36,-1
 763 664 l 1,26,27
EndSplineSet
EndChar

StartChar: f
Encoding: 102 102 73
Width: 836
GlyphClass: 2
Flags: W
AnchorPoint: "Anchor-4" 350 0 basechar 0
LayerCount: 2
Fore
SplineSet
450 135 m 1,0,-1
 625 90 l 1,1,-1
 625 0 l 1,2,-1
 88 0 l 1,3,-1
 88 90 l 1,4,-1
 243 135 l 1,5,-1
 243 875 l 1,6,-1
 58 940 l 1,7,-1
 58 1002 l 1,8,-1
 243 1076 l 1,9,-1
 243 1116 l 2,10,11
 243 1235 243 1235 278.5 1323.5 c 128,-1,12
 314 1412 314 1412 379.5 1470 c 128,-1,13
 445 1528 445 1528 534 1557.5 c 128,-1,14
 623 1587 623 1587 731 1587 c 0,15,16
 819 1587 819 1587 877.5 1575 c 128,-1,17
 936 1563 936 1563 970.5 1540.5 c 128,-1,18
 1005 1518 1005 1518 1020.5 1488.5 c 128,-1,19
 1036 1459 1036 1459 1036 1425 c 0,20,21
 1036 1368 1036 1368 1001.5 1332.5 c 128,-1,22
 967 1297 967 1297 913 1297 c 0,23,24
 895 1297 895 1297 876 1319 c 128,-1,25
 857 1341 857 1341 832.5 1370.5 c 128,-1,26
 808 1400 808 1400 770.5 1422 c 128,-1,27
 733 1444 733 1444 679 1444 c 0,28,29
 604 1444 604 1444 553 1418.5 c 128,-1,30
 502 1393 502 1393 476 1339.5 c 128,-1,31
 450 1286 450 1286 450 1203 c 2,32,-1
 450 1062 l 1,33,-1
 797 1062 l 1,34,-1
 792 902 l 1,35,-1
 450 902 l 1,36,-1
 450 135 l 1,0,-1
EndSplineSet
EndChar

StartChar: g
Encoding: 103 103 74
Width: 1123
GlyphClass: 2
Flags: W
AnchorPoint: "Anchor-4" 541 -505 basechar 0
AnchorPoint: "Anchor-0" 523 1062 basechar 0
LayerCount: 2
Fore
SplineSet
519 459 m 0,0,1
 607 459 607 459 664.5 517 c 128,-1,2
 722 575 722 575 722 700 c 0,3,4
 722 829 722 829 670 891.5 c 128,-1,5
 618 954 618 954 508 954 c 0,6,7
 419 954 419 954 359 896 c 128,-1,8
 299 838 299 838 299 713 c 0,9,10
 299 586 299 586 354 522.5 c 128,-1,11
 409 459 409 459 519 459 c 0,0,1
517 -519 m 0,12,13
 387 -519 387 -519 295 -501.5 c 128,-1,14
 203 -484 203 -484 145.5 -450.5 c 128,-1,15
 88 -417 88 -417 61 -368.5 c 128,-1,16
 34 -320 34 -320 34 -258 c 0,17,18
 34 -214 34 -214 54.5 -173.5 c 128,-1,19
 75 -133 75 -133 121.5 -100.5 c 128,-1,20
 168 -68 168 -68 242 -48 c 0,21,22
 272 -39 272 -39 309 -33 c 1,23,24
 237 -16 237 -16 196 11 c 0,25,26
 152 40 152 40 134 80 c 128,-1,27
 116 120 116 120 116 168 c 0,28,29
 116 244 116 244 182 298 c 0,30,31
 231 338 231 338 324 357 c 1,32,33
 307 364 307 364 292 372 c 0,34,35
 199 417 199 417 149 502.5 c 128,-1,36
 99 588 99 588 99 704 c 0,37,38
 99 824 99 824 149.5 909 c 128,-1,39
 200 994 200 994 293 1039 c 128,-1,40
 386 1084 386 1084 512 1084 c 0,41,42
 596 1084 596 1084 665 1063 c 1,43,44
 711 1062 711 1062 757 1064 c 0,45,46
 824 1066 824 1066 883 1070.5 c 128,-1,47
 942 1075 942 1075 989 1078.5 c 128,-1,48
 1036 1082 1036 1082 1062 1082 c 0,49,50
 1083 1082 1083 1082 1092.5 1064.5 c 128,-1,51
 1102 1047 1102 1047 1102 1005 c 0,52,53
 1102 952 1102 952 1089 921.5 c 128,-1,54
 1076 891 1076 891 1059 891 c 0,55,56
 1040 891 1040 891 1015.5 898 c 128,-1,57
 991 905 991 905 950 916 c 0,58,59
 911 927 911 927 849 938 c 1,60,61
 875 904 875 904 892 862 c 0,62,63
 920 793 920 793 920 705 c 0,64,65
 920 586 920 586 870 501.5 c 128,-1,66
 820 417 820 417 728 371.5 c 128,-1,67
 636 326 636 326 511 326 c 0,68,69
 444 326 444 326 386 339 c 1,70,71
 344 332 344 332 323 316 c 0,72,73
 297 295 297 295 297 252 c 0,74,75
 297 226 297 226 307 206.5 c 128,-1,76
 317 187 317 187 350 174.5 c 128,-1,77
 383 162 383 162 450 155.5 c 128,-1,78
 517 149 517 149 632 147 c 0,79,80
 749 145 749 145 832.5 127.5 c 128,-1,81
 916 110 916 110 969.5 75.5 c 128,-1,82
 1023 41 1023 41 1049 -14.5 c 128,-1,83
 1075 -70 1075 -70 1075 -150 c 0,84,85
 1075 -260 1075 -260 1011 -343.5 c 128,-1,86
 947 -427 947 -427 822.5 -473 c 128,-1,87
 698 -519 698 -519 517 -519 c 0,12,13
423 -49 m 1,88,89
 377 -57 377 -57 346 -71 c 0,90,91
 290 -95 290 -95 267.5 -132.5 c 128,-1,92
 245 -170 245 -170 245 -218 c 0,93,94
 245 -276 245 -276 273 -313.5 c 128,-1,95
 301 -351 301 -351 364 -369.5 c 128,-1,96
 427 -388 427 -388 529 -388 c 0,97,98
 651 -388 651 -388 729.5 -366.5 c 128,-1,99
 808 -345 808 -345 845.5 -304.5 c 128,-1,100
 883 -264 883 -264 883 -205 c 0,101,102
 883 -167 883 -167 870 -139 c 128,-1,103
 857 -111 857 -111 819.5 -93 c 128,-1,104
 782 -75 782 -75 709 -65 c 128,-1,105
 636 -55 636 -55 517 -53 c 0,106,107
 467 -53 467 -53 423 -49 c 1,88,89
EndSplineSet
EndChar

StartChar: h
Encoding: 104 104 75
Width: 1282
GlyphClass: 2
Flags: W
AnchorPoint: "Anchor-4" 644 0 basechar 0
AnchorPoint: "Anchor-1" 371 1240 basechar 0
LayerCount: 2
Fore
SplineSet
560 0 m 1,0,-1
 54 0 l 1,1,-1
 54 90 l 1,2,-1
 209 135 l 1,3,-1
 209 1335 l 1,4,5
 197 1344 197 1344 165 1359.5 c 128,-1,6
 133 1375 133 1375 92.5 1393.5 c 128,-1,7
 52 1412 52 1412 13 1429 c 1,8,-1
 13 1503 l 1,9,-1
 391 1587 l 1,10,-1
 433 1587 l 1,11,-1
 416 1366 l 1,12,-1
 416 887 l 1,13,14
 480 943 480 943 525 980 c 0,15,16
 580 1025 580 1025 620 1047 c 128,-1,17
 660 1069 660 1069 697.5 1076.5 c 128,-1,18
 735 1084 735 1084 782 1084 c 0,19,20
 939 1084 939 1084 1012 996 c 128,-1,21
 1085 908 1085 908 1085 733 c 2,22,-1
 1085 135 l 1,23,-1
 1242 90 l 1,24,-1
 1242 0 l 1,25,26
 1241 0 1241 0 733 0 c 1,27,-1
 733 90 l 1,28,-1
 879 133 l 1,29,-1
 879 679 l 2,30,31
 879 747 879 747 857.5 790.5 c 128,-1,32
 836 834 836 834 789 855 c 128,-1,33
 742 876 742 876 665 876 c 0,34,35
 596 876 596 876 526 858 c 0,36,37
 464 842 464 842 416 818 c 1,38,-1
 416 134 l 1,39,-1
 560 90 l 1,40,-1
 560 0 l 1,0,-1
EndSplineSet
EndChar

StartChar: i
Encoding: 105 105 76
Width: 653
GlyphClass: 2
Flags: W
AnchorPoint: "Anchor-4" 342 0 basechar 0
AnchorPoint: "Anchor-3" 496 0 basechar 0
AnchorPoint: "Anchor-0" 326 1562 basechar 0
LayerCount: 2
Fore
SplineSet
458 1084 m 1,0,-1
 446 846 l 1,1,-1
 446 135 l 1,2,-1
 595 90 l 1,3,-1
 595 0 l 1,4,-1
 84 0 l 1,5,-1
 84 90 l 1,6,-1
 238 135 l 1,7,-1
 238 816 l 1,8,9
 228 825 228 825 199.5 843 c 128,-1,10
 171 861 171 861 137 881 c 128,-1,11
 103 901 103 901 72 917 c 1,12,-1
 72 978 l 1,13,-1
 404 1084 l 1,14,-1
 458 1084 l 1,0,-1
326 1293 m 128,-1,16
 255 1293 255 1293 212 1330.5 c 128,-1,17
 169 1368 169 1368 169 1440 c 0,18,19
 169 1511 169 1511 212 1549 c 128,-1,20
 255 1587 255 1587 326 1587 c 128,-1,21
 397 1587 397 1587 440 1549 c 128,-1,22
 483 1511 483 1511 483 1440 c 128,-1,23
 483 1369 483 1369 440 1331 c 128,-1,15
 397 1293 397 1293 326 1293 c 128,-1,16
EndSplineSet
EndChar

StartChar: j
Encoding: 106 106 77
Width: 585
GlyphClass: 2
Flags: W
AnchorPoint: "Anchor-4" 273 -500 basechar 0
AnchorPoint: "Anchor-0" 301 1577 basechar 0
LayerCount: 2
Fore
SplineSet
215 816 m 1,0,1
 205 825 205 825 175.5 843 c 128,-1,2
 146 861 146 861 112 881 c 128,-1,3
 78 901 78 901 48 917 c 1,4,-1
 48 978 l 1,5,-1
 380 1084 l 1,6,-1
 433 1084 l 1,7,-1
 421 846 l 1,8,-1
 421 11 l 2,9,10
 421 -54 421 -54 414 -103 c 128,-1,11
 407 -152 407 -152 387 -195.5 c 128,-1,12
 367 -239 367 -239 328 -284.5 c 128,-1,13
 289 -330 289 -330 225.5 -386.5 c 128,-1,14
 162 -443 162 -443 67 -519 c 1,15,-1
 -5 -424 l 1,16,17
 73 -334 73 -334 117.5 -280 c 128,-1,18
 162 -226 162 -226 182.5 -188.5 c 128,-1,19
 203 -151 203 -151 209 -118 c 128,-1,20
 215 -85 215 -85 215 -40 c 2,21,-1
 215 816 l 1,0,1
301 1293 m 0,22,23
 231 1293 231 1293 187.5 1330.5 c 128,-1,24
 144 1368 144 1368 144 1440 c 0,25,26
 144 1511 144 1511 187.5 1549 c 128,-1,27
 231 1587 231 1587 301 1587 c 0,28,29
 372 1587 372 1587 415 1549 c 128,-1,30
 458 1511 458 1511 458 1440 c 128,-1,31
 458 1369 458 1369 415 1331 c 128,-1,32
 372 1293 372 1293 301 1293 c 0,22,23
EndSplineSet
EndChar

StartChar: k
Encoding: 107 107 78
Width: 1250
GlyphClass: 2
Flags: W
AnchorPoint: "Anchor-4" 672 0 basechar 0
LayerCount: 2
Fore
SplineSet
416 135 m 1,0,-1
 565 90 l 1,1,-1
 565 0 l 1,2,-1
 54 0 l 1,3,-1
 54 90 l 1,4,-1
 209 135 l 1,5,-1
 209 1335 l 1,6,7
 197 1344 197 1344 165 1359.5 c 128,-1,8
 133 1375 133 1375 92.5 1393.5 c 128,-1,9
 52 1412 52 1412 13 1429 c 1,10,-1
 13 1503 l 1,11,-1
 391 1587 l 1,12,-1
 433 1587 l 1,13,-1
 416 1366 l 1,14,-1
 416 669 l 1,15,-1
 585 669 l 1,16,-1
 841 934 l 1,17,-1
 698 975 l 1,18,-1
 698 1062 l 1,19,-1
 1169 1062 l 1,20,-1
 1169 975 l 1,21,-1
 1033 935 l 1,22,-1
 717 640 l 1,23,-1
 1111 139 l 1,24,-1
 1238 89 l 1,25,-1
 1238 0 l 1,26,-1
 866 0 l 1,27,-1
 866 123 l 1,28,-1
 866 123 l 1,29,-1
 556 521 l 1,30,-1
 416 521 l 1,31,-1
 416 135 l 1,0,-1
EndSplineSet
EndChar

StartChar: l
Encoding: 108 108 79
Width: 626
GlyphClass: 2
Flags: W
AnchorPoint: "Anchor-4" 315 0 basechar 0
AnchorPoint: "Anchor-3" 418 1564 basechar 0
LayerCount: 2
Fore
SplineSet
418 135 m 1,0,-1
 568 90 l 1,1,-1
 568 0 l 1,2,-1
 57 0 l 1,3,-1
 57 90 l 1,4,-1
 211 135 l 1,5,-1
 211 1335 l 1,6,7
 199 1344 199 1344 167.5 1359.5 c 128,-1,8
 136 1375 136 1375 95.5 1393.5 c 128,-1,9
 55 1412 55 1412 17 1429 c 1,10,-1
 17 1503 l 1,11,-1
 394 1587 l 1,12,-1
 436 1587 l 1,13,-1
 418 1366 l 1,14,-1
 418 135 l 1,0,-1
EndSplineSet
EndChar

StartChar: m
Encoding: 109 109 80
Width: 1897
GlyphClass: 2
Flags: W
AnchorPoint: "Anchor-4" 968 0 basechar 0
AnchorPoint: "Anchor-0" 968 1062 basechar 0
LayerCount: 2
Fore
SplineSet
1699 754 m 2,0,-1
 1699 135 l 1,1,-1
 1855 90 l 1,2,-1
 1855 0 l 1,3,-1
 1350 0 l 1,4,-1
 1350 90 l 1,5,-1
 1492 133 l 1,6,-1
 1492 694 l 2,7,8
 1492 759 1492 759 1471.5 798.5 c 128,-1,9
 1451 838 1451 838 1407.5 857 c 128,-1,10
 1364 876 1364 876 1296 876 c 0,11,12
 1233 876 1233 876 1168 860 c 0,13,14
 1113 847 1113 847 1069 826 c 1,15,16
 1071 804 1071 804 1071 779 c 2,17,-1
 1071 133 l 1,18,-1
 1212 90 l 1,19,-1
 1212 0 l 1,20,-1
 722 0 l 1,21,-1
 722 90 l 1,22,-1
 864 133 l 1,23,-1
 864 696 l 2,24,25
 864 760 864 760 844 799.5 c 128,-1,26
 824 839 824 839 781 857.5 c 128,-1,27
 738 876 738 876 670 876 c 0,28,29
 614 876 614 876 544 860 c 0,30,31
 487 847 487 847 443 826 c 1,32,-1
 443 133 l 1,33,-1
 584 90 l 1,34,-1
 584 0 l 1,35,-1
 81 0 l 1,36,-1
 81 90 l 1,37,-1
 237 135 l 1,38,-1
 237 854 l 1,39,40
 220 868 220 868 178 869 c 128,-1,41
 136 870 136 870 69 913 c 1,42,-1
 69 958 l 1,43,44
 70 958 70 958 352 1088 c 1,45,-1
 389 1088 l 1,46,-1
 435 894 l 1,47,48
 499 950 499 950 542 986 c 4,49,50
 594 1028 594 1028 633 1049 c 132,-1,51
 672 1070 672 1070 706 1077 c 128,-1,52
 740 1084 740 1084 784 1084 c 0,53,54
 884 1084 884 1084 947.5 1051 c 128,-1,55
 1011 1018 1011 1018 1041 951 c 0,56,57
 1053 925 1053 925 1060 893 c 1,58,59
 1124 950 1124 950 1168 986 c 0,60,61
 1220 1028 1220 1028 1258.5 1049 c 128,-1,62
 1297 1070 1297 1070 1331.5 1077 c 128,-1,63
 1366 1084 1366 1084 1411 1084 c 0,64,65
 1561 1084 1561 1084 1630 1000.5 c 128,-1,66
 1699 917 1699 917 1699 754 c 2,0,-1
EndSplineSet
EndChar

StartChar: n
Encoding: 110 110 81
Width: 1310
GlyphClass: 2
Flags: W
AnchorPoint: "Anchor-4" 666 0 basechar 0
AnchorPoint: "Anchor-0" 678 1062 basechar 0
LayerCount: 2
Fore
SplineSet
761 90 m 1,0,-1
 906 133 l 1,1,-1
 906 679 l 2,2,3
 906 747 906 747 884.5 790.5 c 128,-1,4
 863 834 863 834 816 855 c 128,-1,5
 769 876 769 876 692 876 c 0,6,7
 624 876 624 876 554 858 c 0,8,9
 491 842 491 842 443 818 c 1,10,-1
 443 133 l 1,11,-1
 587 90 l 1,12,-1
 587 0 l 1,13,-1
 81 0 l 1,14,-1
 81 90 l 1,15,-1
 237 135 l 1,16,-1
 238 865 l 1,17,18
 221 879 221 879 178.5 874.5 c 128,-1,19
 136 870 136 870 69 913 c 1,20,-1
 69 958 l 1,21,22
 70 958 70 958 352 1088 c 1,23,-1
 389 1088 l 1,24,-1
 438 908 l 1,25,26
 546 983 546 983 585.070381065 1007.30882505 c 0,27,28
 716.794879561 1084 716.794879561 1084 817.624796946 1084 c 0,29,30
 966 1084 966 1084 1039 996 c 128,-1,31
 1112 908 1112 908 1112 733 c 2,32,-1
 1112 135 l 1,33,-1
 1269 90 l 1,34,-1
 1269 0 l 1,35,-1
 761 0 l 1,36,-1
 761 90 l 1,0,-1
EndSplineSet
EndChar

StartChar: o
Encoding: 111 111 82
Width: 1185
GlyphClass: 2
Flags: W
AnchorPoint: "Anchor-4" 594 0 basechar 0
AnchorPoint: "Anchor-3" 788 0 basechar 0
AnchorPoint: "Anchor-2" 779 1062 basechar 0
AnchorPoint: "Anchor-0" 594 1062 basechar 0
LayerCount: 2
Fore
SplineSet
584 -23 m 0,0,1
 431 -23 431 -23 320.5 45 c 128,-1,2
 210 113 210 113 150.5 237.5 c 128,-1,3
 91 362 91 362 91 527 c 0,4,5
 91 695 91 695 154 820.5 c 128,-1,6
 217 946 217 946 331.5 1015 c 128,-1,7
 446 1084 446 1084 601 1084 c 0,8,9
 754 1084 754 1084 865.5 1016 c 128,-1,10
 977 948 977 948 1036.5 824.5 c 128,-1,11
 1096 701 1096 701 1096 535 c 0,12,13
 1096 367 1096 367 1033 241.5 c 128,-1,14
 970 116 970 116 855.5 46.5 c 128,-1,15
 741 -23 741 -23 584 -23 c 0,0,1
586 131 m 0,16,17
 681 131 681 131 747 170.5 c 128,-1,18
 813 210 813 210 847 292.5 c 128,-1,19
 881 375 881 375 881 504 c 0,20,21
 881 647 881 647 850 741.5 c 128,-1,22
 819 836 819 836 756.5 883.5 c 128,-1,23
 694 931 694 931 599 931 c 128,-1,24
 504 931 504 931 438.5 892 c 128,-1,25
 373 853 373 853 339 770 c 128,-1,26
 305 687 305 687 305 557 c 0,27,28
 305 416 305 416 336 321 c 128,-1,29
 367 226 367 226 429.5 178.5 c 128,-1,30
 492 131 492 131 586 131 c 0,16,17
EndSplineSet
Substitution2: "Single Substitution lookup 3 subtable" ordmasculine
EndChar

StartChar: p
Encoding: 112 112 83
Width: 1278
GlyphClass: 2
Flags: W
AnchorPoint: "Anchor-4" 319 -497 basechar 0
AnchorPoint: "Anchor-0" 656 1062 basechar 0
LayerCount: 2
Fore
SplineSet
965 521 m 0,0,1
 965 714 965 714 884 807.5 c 128,-1,2
 803 901 803 901 658 901 c 0,3,4
 604 901 604 901 551.5 891.5 c 128,-1,5
 499 882 499 882 449 864 c 0,6,7
 434 859 434 859 419 853 c 1,8,-1
 419 367 l 2,9,10
 419 288 419 288 451.5 234 c 128,-1,11
 484 180 484 180 541.5 152 c 128,-1,12
 599 124 599 124 674 124 c 0,13,14
 766 124 766 124 830.5 171 c 128,-1,15
 895 218 895 218 930 307.5 c 128,-1,16
 965 397 965 397 965 521 c 0,0,1
419 145 m 1,17,-1
 419 -364 l 1,18,-1
 596 -407 l 1,19,-1
 596 -519 l 1,20,-1
 54 -519 l 1,21,-1
 54 -407 l 1,22,-1
 213 -362 l 1,23,-1
 213 799 l 1,24,25
 201 810 201 810 175 828 c 128,-1,26
 149 846 149 846 116 868 c 128,-1,27
 83 890 83 890 46 913 c 1,28,-1
 46 958 l 1,29,-1
 328 1089 l 1,30,-1
 366 1089 l 1,31,-1
 405 956 l 1,32,33
 447 981 447 981 484 1000 c 0,34,35
 542 1031 542 1031 588.5 1049.5 c 128,-1,36
 635 1068 635 1068 673 1076 c 128,-1,37
 711 1084 711 1084 744 1084 c 0,38,39
 887 1084 887 1084 986 1022 c 128,-1,40
 1085 960 1085 960 1136 846 c 128,-1,41
 1187 732 1187 732 1187 576 c 0,42,43
 1187 389 1187 389 1122 255 c 128,-1,44
 1057 121 1057 121 948.5 49 c 128,-1,45
 840 -23 840 -23 705 -23 c 0,46,47
 622 -23 622 -23 555.5 12.5 c 128,-1,48
 489 48 489 48 444 106 c 0,49,50
 430 125 430 125 419 145 c 1,17,-1
EndSplineSet
EndChar

StartChar: q
Encoding: 113 113 84
Width: 1233
GlyphClass: 2
Flags: W
AnchorPoint: "Anchor-4" 961 -497 basechar 0
AnchorPoint: "Anchor-0" 619 1062 basechar 0
LayerCount: 2
Fore
SplineSet
314 535 m 0,0,1
 314 409 314 409 349.5 325.5 c 128,-1,2
 385 242 385 242 453.5 201.5 c 128,-1,3
 522 161 522 161 620 161 c 0,4,5
 699 161 699 161 778 184 c 0,6,7
 819 195 819 195 859 213 c 1,8,-1
 859 700 l 2,9,10
 859 812 859 812 804.5 876.5 c 128,-1,11
 750 941 750 941 619 941 c 0,12,13
 521 941 521 941 453 893 c 128,-1,14
 385 845 385 845 349.5 755 c 128,-1,15
 314 665 314 665 314 535 c 0,0,1
923 982 m 1,16,-1
 1063 1084 l 1,17,-1
 1107 1062 l 1,18,-1
 1066 824 l 1,19,-1
 1066 -362 l 1,20,-1
 1225 -407 l 1,21,-1
 1225 -519 l 1,22,-1
 682 -519 l 1,23,-1
 682 -407 l 1,24,-1
 859 -364 l 1,25,-1
 859 143 l 1,26,27
 814 109 814 109 778 84 c 0,28,29
 712 39 712 39 666.5 16.5 c 128,-1,30
 621 -6 621 -6 587.5 -14.5 c 128,-1,31
 554 -23 554 -23 522 -23 c 0,32,33
 380 -23 380 -23 284.5 39.5 c 128,-1,34
 189 102 189 102 140.5 216 c 128,-1,35
 92 330 92 330 92 487 c 0,36,37
 92 670 92 670 163 804.5 c 128,-1,38
 234 939 234 939 357.5 1011.5 c 128,-1,39
 481 1084 481 1084 635 1084 c 0,40,41
 700 1084 700 1084 757.5 1070 c 128,-1,42
 815 1056 815 1056 868 1024 c 0,43,44
 896 1007 896 1007 923 982 c 1,16,-1
EndSplineSet
EndChar

StartChar: r
Encoding: 114 114 85
Width: 907
GlyphClass: 2
Flags: W
AnchorPoint: "Anchor-4" 339 0 basechar 0
AnchorPoint: "Anchor-0" 466 1062 basechar 0
LayerCount: 2
Fore
SplineSet
757 1080 m 0,0,1
 808 1080 808 1080 837.5 1048.5 c 128,-1,2
 867 1017 867 1017 867 961 c 0,3,4
 867 895 867 895 846.5 858 c 128,-1,5
 826 821 826 821 798 821 c 0,6,7
 755 821 755 821 714 824.5 c 128,-1,8
 673 828 673 828 631 832.5 c 128,-1,9
 589 837 589 837 547 837 c 0,10,11
 522 837 522 837 499.5 832.5 c 0,12,13
 469 826 469 826 452 818 c 0,14,15
 448 816 448 816 443 814 c 1,16,-1
 443 135 l 1,17,-1
 615 90 l 1,18,-1
 615 0 l 1,19,-1
 81 0 l 1,20,-1
 81 90 l 1,21,-1
 237 135 l 1,22,-1
 242 882 l 1,23,24
 242 882 242 882 69 913 c 1,25,-1
 69 958 l 1,26,-1
 356 1088 l 1,27,-1
 393 1088 l 1,28,-1
 434 912 l 1,29,30
 496 947 496 947 508 957 c 0,31,32
 565 1005 565 1005 609 1032 c 128,-1,33
 653 1059 653 1059 688 1069.5 c 128,-1,34
 723 1080 723 1080 757 1080 c 0,0,1
EndSplineSet
EndChar

StartChar: s
Encoding: 115 115 86
Width: 973
GlyphClass: 2
Flags: W
AnchorPoint: "Anchor-4" 497 0 basechar 0
AnchorPoint: "Anchor-0" 485 1062 basechar 0
LayerCount: 2
Fore
SplineSet
530 1084 m 0,0,1
 602 1084 602 1084 667.5 1072.5 c 128,-1,2
 733 1061 733 1061 813 1032 c 1,3,-1
 839 752 l 1,4,-1
 725 752 l 1,5,-1
 647 909 l 1,6,7
 636 912 636 912 625 914 c 0,8,9
 565 928 565 928 517 928 c 0,10,11
 409 928 409 928 354 907.5 c 128,-1,12
 299 887 299 887 299 820 c 0,13,14
 299 755 299 755 334.5 721 c 128,-1,15
 370 687 370 687 430.5 670 c 128,-1,16
 491 653 491 653 568 637 c 0,17,18
 626 626 626 626 682 608 c 128,-1,19
 738 590 738 590 782.5 557 c 128,-1,20
 827 524 827 524 854.5 467 c 128,-1,21
 882 410 882 410 882 322 c 0,22,23
 882 211 882 211 831 134.5 c 128,-1,24
 780 58 780 58 681 19.5 c 128,-1,25
 582 -19 582 -19 435 -19 c 0,26,27
 359 -19 359 -19 276 -6.5 c 128,-1,28
 193 6 193 6 135 30 c 1,29,-1
 92 334 l 1,30,-1
 208 334 l 1,31,-1
 299 151 l 1,32,33
 327 146 327 146 356 144 c 0,34,35
 394 141 394 141 428 141 c 0,36,37
 562 141 562 141 627.5 167.5 c 128,-1,38
 693 194 693 194 693 279 c 0,39,40
 693 337 693 337 665.5 370 c 128,-1,41
 638 403 638 403 591.5 420 c 128,-1,42
 545 437 545 437 488.5 447.5 c 128,-1,43
 432 458 432 458 374 472 c 0,44,45
 299 490 299 490 240 522.5 c 128,-1,46
 181 555 181 555 148 615 c 128,-1,47
 115 675 115 675 115 775 c 128,-1,48
 115 875 115 875 165.5 944 c 128,-1,49
 216 1013 216 1013 309 1048.5 c 128,-1,50
 402 1084 402 1084 530 1084 c 0,0,1
EndSplineSet
EndChar

StartChar: t
Encoding: 116 116 87
Width: 828
GlyphClass: 2
Flags: W
AnchorPoint: "Anchor-4" 509 0 basechar 0
AnchorPoint: "Anchor-3" 396 1602 basechar 0
LayerCount: 2
Fore
SplineSet
412 325 m 2,0,1
 412 235 412 235 456.5 198.5 c 128,-1,2
 501 162 501 162 596 162 c 0,3,4
 637 162 637 162 686 170.5 c 128,-1,5
 735 179 735 179 789 195 c 1,6,-1
 789 107 l 1,7,8
 712 58 712 58 655 29.5 c 128,-1,9
 598 1 598 1 554 -10.5 c 128,-1,10
 510 -22 510 -22 468 -22 c 0,11,12
 394 -22 394 -22 334 6.5 c 128,-1,13
 274 35 274 35 240 92 c 128,-1,14
 206 149 206 149 206 234 c 2,15,-1
 206 887 l 1,16,-1
 37 961 l 1,17,-1
 37 1024 l 1,18,19
 84 1043 84 1043 121.5 1061.5 c 128,-1,20
 159 1080 159 1080 189.5 1101 c 132,-1,21
 220 1122 220 1122 245.5 1146.5 c 132,-1,22
 271 1171 271 1171 294.5 1201.5 c 128,-1,23
 318 1232 318 1232 341 1269 c 1,24,-1
 412 1269 l 1,25,-1
 412 1062 l 1,26,-1
 768 1062 l 1,27,-1
 763 902 l 1,28,-1
 412 902 l 1,29,-1
 412 325 l 2,0,1
EndSplineSet
EndChar

StartChar: u
Encoding: 117 117 88
Width: 1242
GlyphClass: 2
Flags: W
AnchorPoint: "Anchor-4" 618 0 basechar 0
AnchorPoint: "Anchor-3" 1079 0 basechar 0
AnchorPoint: "Anchor-2" 958 1061 basechar 0
AnchorPoint: "Anchor-0" 584 1062 basechar 0
LayerCount: 2
Fore
SplineSet
405 367 m 2,0,1
 405 302 405 302 424.5 262 c 128,-1,2
 444 222 444 222 487 204 c 128,-1,3
 530 186 530 186 602 186 c 0,4,5
 670 186 670 186 728 202 c 0,6,7
 782 217 782 217 826 237 c 1,8,-1
 826 900 l 1,9,-1
 677 971 l 1,10,-1
 677 1062 l 1,11,-1
 1050 1062 l 1,12,-1
 1035 915 l 1,13,-1
 1035 239 l 1,14,15
 1044 233 1044 233 1064 220 c 128,-1,16
 1084 207 1084 207 1109.5 192.5 c 128,-1,17
 1135 178 1135 178 1159 165 c 128,-1,18
 1183 152 1183 152 1199 145 c 1,19,-1
 1199 98 l 5,20,-1
 923 -22 l 1,21,-1
 888 -22 l 1,22,-1
 831 92 l 1,23,24
 831 92 831 92 762 56.5 c 128,-1,25
 693 21 693 21 647 5.5 c 128,-1,26
 601 -10 601 -10 566.5 -16.5 c 128,-1,27
 532 -23 532 -23 488 -23 c 0,28,29
 338 -23 338 -23 268.5 61.5 c 128,-1,30
 199 146 199 146 199 310 c 2,31,-1
 199 895 l 1,32,-1
 32 970 l 1,33,-1
 32 1059 l 1,34,-1
 424 1062 l 1,35,-1
 405 916 l 1,36,-1
 405 367 l 2,0,1
EndSplineSet
EndChar

StartChar: v
Encoding: 118 118 89
Width: 1244
GlyphClass: 2
Flags: W
AnchorPoint: "Anchor-4" 631 0 basechar 0
AnchorPoint: "Anchor-0" 645 1062 basechar 0
LayerCount: 2
Fore
SplineSet
1084 935 m 1,0,-1
 724 -19 l 1,1,-1
 544 -19 l 1,2,-1
 153 919 l 1,3,-1
 11 974 l 1,4,-1
 11 1062 l 1,5,-1
 528 1062 l 1,6,-1
 528 973 l 1,7,-1
 384 928 l 1,8,-1
 681 197 l 1,9,-1
 939 931 l 1,10,-1
 801 973 l 1,11,-1
 801 1062 l 1,12,-1
 1199 1062 l 1,13,-1
 1199 973 l 1,14,-1
 1084 935 l 1,0,-1
EndSplineSet
EndChar

StartChar: w
Encoding: 119 119 90
Width: 1674
GlyphClass: 2
Flags: W
AnchorPoint: "Anchor-4" 863 0 basechar 0
AnchorPoint: "Anchor-0" 872 1062 basechar 0
LayerCount: 2
Fore
SplineSet
1383 931 m 1,0,1
 1382 931 1382 931 1244 973 c 1,2,-1
 1244 1062 l 1,3,-1
 1632 1062 l 1,4,-1
 1632 973 l 1,5,-1
 1521 935 l 1,6,-1
 1285 -19 l 1,7,-1
 1106 -19 l 1,8,-1
 848 806 l 1,9,-1
 577 -19 l 1,10,-1
 396 -19 l 1,11,-1
 162 919 l 1,12,-1
 22 974 l 1,13,-1
 22 1062 l 1,14,-1
 515 1062 l 1,15,-1
 515 973 l 1,16,-1
 374 928 l 1,17,-1
 540 247 l 1,18,-1
 806 1081 l 1,19,-1
 975 1081 l 1,20,-1
 1231 260 l 1,21,-1
 1383 931 l 1,0,1
EndSplineSet
EndChar

StartChar: x
Encoding: 120 120 91
Width: 1178
GlyphClass: 2
Flags: W
AnchorPoint: "Anchor-4" 597 0 basechar 0
AnchorPoint: "Anchor-0" 598 1062 basechar 0
LayerCount: 2
Fore
SplineSet
1028 138 m 1,0,-1
 1150 87 l 1,1,-1
 1150 0 l 1,2,-1
 662 0 l 1,3,-1
 662 87 l 1,4,-1
 777 129 l 1,5,-1
 550 433 l 1,6,-1
 306 124 l 1,7,-1
 428 87 l 1,8,-1
 428 0 l 1,9,-1
 41 0 l 1,10,-1
 41 87 l 1,11,-1
 150 126 l 1,12,-1
 478 529 l 1,13,-1
 175 923 l 1,14,-1
 51 974 l 1,15,-1
 51 1062 l 1,16,-1
 540 1062 l 1,17,-1
 540 974 l 1,18,-1
 425 933 l 1,19,-1
 628 660 l 1,20,-1
 847 940 l 1,21,-1
 725 974 l 1,22,-1
 725 1062 l 1,23,-1
 1110 1062 l 1,24,-1
 1110 974 l 1,25,-1
 1003 936 l 1,26,-1
 700 566 l 1,27,-1
 1028 138 l 1,0,-1
EndSplineSet
EndChar

StartChar: y
Encoding: 121 121 92
Width: 1209
GlyphClass: 2
Flags: W
AnchorPoint: "Anchor-4" 846 -141 basechar 0
AnchorPoint: "Anchor-0" 633 1062 basechar 0
LayerCount: 2
Fore
SplineSet
286 -519 m 0,0,1
 202 -519 202 -519 157.5 -478.5 c 128,-1,2
 113 -438 113 -438 113 -365 c 0,3,4
 113 -332 113 -332 124 -307 c 128,-1,5
 135 -282 135 -282 150 -267.5 c 128,-1,6
 165 -253 165 -253 178 -253 c 0,7,8
 193 -253 193 -253 223.5 -260 c 128,-1,9
 254 -267 254 -267 288.5 -274.5 c 128,-1,10
 323 -282 323 -282 351 -282 c 0,11,12
 393 -282 393 -282 425.5 -261 c 128,-1,13
 458 -240 458 -240 488.5 -193 c 128,-1,14
 519 -146 519 -146 550 -69 c 2,15,-1
 576 -4 l 1,16,-1
 163 919 l 1,17,-1
 22 974 l 1,18,-1
 22 1062 l 1,19,-1
 538 1062 l 1,20,-1
 538 973 l 1,21,-1
 393 928 l 1,22,-1
 681 272 l 1,23,-1
 912 931 l 1,24,-1
 773 973 l 1,25,-1
 773 1062 l 1,26,-1
 1175 1062 l 1,27,-1
 1175 973 l 1,28,-1
 1059 935 l 1,29,-1
 626 -199 l 2,30,31
 582 -315 582 -315 534 -385.5 c 128,-1,32
 486 -456 486 -456 426 -487.5 c 128,-1,33
 366 -519 366 -519 286 -519 c 0,0,1
EndSplineSet
EndChar

StartChar: z
Encoding: 122 122 93
Width: 1013
GlyphClass: 2
Flags: W
AnchorPoint: "Anchor-4" 513 0 basechar 0
AnchorPoint: "Anchor-0" 526 1062 basechar 0
LayerCount: 2
Fore
SplineSet
88 0 m 1,0,-1
 88 75 l 1,1,-1
 640 921 l 1,2,-1
 274 920 l 1,3,-1
 179 717 l 1,4,-1
 88 717 l 1,5,-1
 122 1061.59960938 l 1,6,-1
 244 1061.59960938 l 1,7,-1
 962 1061.59960938 l 1,8,-1
 361 140 l 1,9,-1
 733 141 l 1,10,-1
 863 377 l 1,11,-1
 955 377 l 1,12,-1
 876 0 l 1,13,-1
 88 0 l 1,0,-1
EndSplineSet
EndChar

StartChar: braceleft
Encoding: 123 123 94
Width: 705
GlyphClass: 1
Flags: W
LayerCount: 2
Fore
SplineSet
59 553 m 1,0,-1
 59 662 l 1,1,-1
 132 665 l 2,2,3
 204 667 204 667 237 699 c 128,-1,4
 270 731 270 731 270 796 c 0,5,6
 270 867 270 867 257 928.5 c 128,-1,7
 244 990 244 990 231 1049.5 c 128,-1,8
 218 1109 218 1109 218 1172 c 0,9,10
 218 1239 218 1239 248.5 1301 c 128,-1,11
 279 1363 279 1363 344 1405.5 c 128,-1,12
 409 1448 409 1448 510 1457 c 2,13,-1
 631 1467 l 1,14,-1
 642 1360 l 1,15,-1
 569 1350 l 2,16,17
 483 1339 483 1339 453 1289.5 c 128,-1,18
 423 1240 423 1240 423 1166 c 0,19,20
 423 1089 423 1089 435.5 1005.5 c 128,-1,21
 448 922 448 922 448 836 c 0,22,23
 448 738 448 738 393 674 c 0,24,25
 357 633 357 633 291 608 c 1,26,27
 357 583 357 583 393 541 c 0,28,29
 448 477 448 477 448 381 c 0,30,31
 448 294 448 294 435.5 211 c 128,-1,32
 423 128 423 128 423 50 c 0,33,34
 423 -23 423 -23 453.5 -73 c 128,-1,35
 484 -123 484 -123 569 -134 c 2,36,-1
 642 -144 l 1,37,-1
 631 -250 l 1,38,-1
 510 -240 l 2,39,40
 409 -231 409 -231 344 -189 c 128,-1,41
 279 -147 279 -147 248.5 -85 c 128,-1,42
 218 -23 218 -23 218 43 c 0,43,44
 218 108 218 108 231 167 c 128,-1,45
 244 226 244 226 257 288 c 128,-1,46
 270 350 270 350 270 420 c 0,47,48
 270 485 270 485 237 517.5 c 128,-1,49
 204 550 204 550 132 551 c 2,50,-1
 59 553 l 1,0,-1
EndSplineSet
Substitution2: "'case' Case-Sensitive Forms in Latin lookup 9 subtable" braceleft.case
EndChar

StartChar: bar
Encoding: 124 124 95
Width: 549
GlyphClass: 1
Flags: W
LayerCount: 2
Fore
SplineSet
200 -481 m 1,0,-1
 200 1519 l 1,1,-1
 350 1519 l 1,2,-1
 350 -481 l 1,3,-1
 200 -481 l 1,0,-1
EndSplineSet
EndChar

StartChar: braceright
Encoding: 125 125 96
Width: 705
GlyphClass: 1
Flags: W
LayerCount: 2
Fore
SplineSet
647 664 m 1,0,-1
 647 554 l 1,1,-1
 573 552 l 2,2,3
 502 550 502 550 469 518 c 128,-1,4
 436 486 436 486 436 420 c 0,5,6
 436 350 436 350 449 288 c 128,-1,7
 462 226 462 226 474.5 167 c 128,-1,8
 487 108 487 108 487 45 c 0,9,10
 487 -22 487 -22 457 -84 c 128,-1,11
 427 -146 427 -146 362 -188.5 c 128,-1,12
 297 -231 297 -231 195 -240 c 2,13,-1
 74 -250 l 1,14,-1
 64 -143 l 1,15,-1
 137 -133 l 2,16,17
 223 -122 223 -122 253 -72.5 c 128,-1,18
 283 -23 283 -23 283 51 c 0,19,20
 283 128 283 128 270 211.5 c 128,-1,21
 257 295 257 295 257 381 c 0,22,23
 257 479 257 479 312 542 c 0,24,25
 349 584 349 584 416 609 c 1,26,27
 349 634 349 634 312 676 c 0,28,29
 257 739 257 739 257 836 c 0,30,31
 257 923 257 923 270 1006.5 c 128,-1,32
 283 1090 283 1090 283 1166 c 0,33,34
 283 1240 283 1240 252.5 1290 c 128,-1,35
 222 1340 222 1340 137 1351 c 2,36,-1
 64 1360 l 1,37,-1
 74 1467 l 1,38,-1
 195 1457 l 2,39,40
 298 1448 298 1448 362.5 1405.5 c 128,-1,41
 427 1363 427 1363 457 1301.5 c 128,-1,42
 487 1240 487 1240 487 1173 c 0,43,44
 487 1110 487 1110 474.5 1050 c 128,-1,45
 462 990 462 990 449 928.5 c 128,-1,46
 436 867 436 867 436 796 c 0,47,48
 436 732 436 732 469 700 c 128,-1,49
 502 668 502 668 573 665 c 2,50,-1
 647 664 l 1,0,-1
EndSplineSet
Substitution2: "'case' Case-Sensitive Forms in Latin lookup 9 subtable" braceright.case
EndChar

StartChar: asciitilde
Encoding: 126 126 97
Width: 1049
GlyphClass: 1
Flags: W
LayerCount: 2
Fore
SplineSet
129 355 m 1,0,1
 129 462 129 462 157 526 c 128,-1,2
 185 590 185 590 235 619 c 128,-1,3
 285 648 285 648 350 648 c 0,4,5
 413 648 413 648 456.5 625.5 c 128,-1,6
 500 603 500 603 534.5 572.5 c 128,-1,7
 569 542 569 542 601.5 519.5 c 128,-1,8
 634 497 634 497 673 497 c 0,9,10
 728 497 728 497 751.5 531 c 128,-1,11
 775 565 775 565 780 639 c 1,12,-1
 923 639 l 1,13,14
 922 532 922 532 894 467 c 128,-1,15
 866 402 866 402 817 373.5 c 128,-1,16
 768 345 768 345 702 345 c 0,17,18
 639 345 639 345 595.5 368 c 128,-1,19
 552 391 552 391 517.5 421 c 128,-1,20
 483 451 483 451 451 474 c 128,-1,21
 419 497 419 497 380 497 c 0,22,23
 325 497 325 497 300.5 462.5 c 128,-1,24
 276 428 276 428 272 355 c 1,25,-1
 129 355 l 1,0,1
EndSplineSet
EndChar

StartChar: exclamdown
Encoding: 161 161 99
Width: 564
GlyphClass: 1
Flags: W
LayerCount: 2
Fore
SplineSet
282 693 m 0,0,1
 215 693 215 693 174 733 c 128,-1,2
 133 773 133 773 133 844 c 0,3,4
 133 916 133 916 174 956.5 c 128,-1,5
 215 997 215 997 282 997 c 0,6,7
 350 997 350 997 391 956.5 c 128,-1,8
 432 916 432 916 432 844 c 0,9,10
 432 773 432 773 391 733 c 128,-1,11
 350 693 350 693 282 693 c 0,0,1
161 -379 m 2,12,-1
 162 -286 l 2,13,14
 162 -269 162 -269 166 -214.5 c 128,-1,15
 170 -160 170 -160 175.5 -82 c 128,-1,16
 181 -4 181 -4 188.5 85 c 128,-1,17
 196 174 196 174 202.5 262 c 128,-1,18
 209 350 209 350 215 424 c 128,-1,19
 221 498 221 498 225 544 c 1,20,-1
 339 544 l 1,21,22
 344 498 344 498 349.5 424 c 128,-1,23
 355 350 355 350 362.5 262 c 128,-1,24
 370 174 370 174 376.5 85 c 128,-1,25
 383 -4 383 -4 388.5 -82 c 128,-1,26
 394 -160 394 -160 398 -214.5 c 128,-1,27
 402 -269 402 -269 402 -286 c 2,28,-1
 403 -379 l 2,29,30
 404 -397 404 -397 392.5 -409.5 c 128,-1,31
 381 -422 381 -422 354.5 -428 c 128,-1,32
 328 -434 328 -434 282 -434 c 128,-1,33
 236 -434 236 -434 209.5 -428 c 128,-1,34
 183 -422 183 -422 172 -409.5 c 128,-1,35
 161 -397 161 -397 161 -379 c 2,12,-1
EndSplineSet
Substitution2: "'case' Case-Sensitive Forms in Latin lookup 9 subtable" exclamdown.case
EndChar

StartChar: currency
Encoding: 164 164 102
Width: 1022
GlyphClass: 1
Flags: W
LayerCount: 2
Fore
SplineSet
884 204 m 1,0,-1
 788 104 l 1,1,-1
 685 213 l 1,2,3
 681 211 681 211 676 208 c 0,4,5
 605 167 605 167 512 167 c 0,6,7
 417 167 417 167 346 208 c 0,8,9
 341 211 341 211 337 213 c 1,10,-1
 234 104 l 1,11,-1
 138 204 l 1,12,-1
 241 313 l 1,13,14
 238 319 238 319 234 324 c 0,15,16
 195 399 195 399 195 497 c 0,17,18
 195 596 195 596 234 670 c 0,19,20
 237 676 237 676 241 681 c 1,21,-1
 138 789 l 1,22,-1
 234 889 l 1,23,-1
 337 780 l 1,24,25
 341 783 341 783 346 785 c 0,26,27
 417 826 417 826 512 826 c 0,28,29
 605 826 605 826 676 785 c 0,30,31
 681 783 681 783 685 780 c 1,32,33
 719 816 719 816 788 889 c 1,34,-1
 884 789 l 1,35,-1
 782 681 l 1,36,37
 785 676 785 676 788 670 c 0,38,39
 828 596 828 596 828 497 c 0,40,41
 828 399 828 399 788 324 c 0,42,43
 785 319 785 319 781 313 c 1,44,-1
 884 204 l 1,0,-1
512 292 m 0,45,46
 597 292 597 292 650 348.5 c 128,-1,47
 703 405 703 405 703 497 c 128,-1,48
 703 589 703 589 650 645 c 128,-1,49
 597 701 597 701 512 701 c 0,50,51
 426 701 426 701 372.5 645 c 128,-1,52
 319 589 319 589 319 497 c 128,-1,53
 319 405 319 405 372.5 348.5 c 128,-1,54
 426 292 426 292 512 292 c 0,45,46
EndSplineSet
EndChar

StartChar: brokenbar
Encoding: 166 166 104
Width: 549
GlyphClass: 1
Flags: W
LayerCount: 2
Fore
SplineSet
200 -481 m 1,0,-1
 200 297 l 1,1,-1
 350 297 l 1,2,-1
 350 -481 l 1,3,-1
 200 -481 l 1,0,-1
350 744 m 1,4,-1
 200 744 l 1,5,-1
 200 1519 l 1,6,-1
 350 1519 l 1,7,-1
 350 744 l 1,4,-1
EndSplineSet
EndChar

StartChar: section
Encoding: 167 167 105
Width: 1178
GlyphClass: 1
Flags: W
LayerCount: 2
Fore
SplineSet
896 577 m 0,0,1
 896 643 896 643 858 680.5 c 128,-1,2
 820 718 820 718 757 738.5 c 128,-1,3
 694 759 694 759 620 774 c 0,4,5
 562 785 562 785 504 798 c 1,6,7
 405 783 405 783 352 738 c 0,8,9
 282 680 282 680 282 593 c 0,10,11
 282 526 282 526 320.5 488.5 c 128,-1,12
 359 451 359 451 421.5 430.5 c 128,-1,13
 484 410 484 410 560 396 c 0,14,15
 617 384 617 384 675 371 c 1,16,17
 773 387 773 387 826 430 c 0,18,19
 896 488 896 488 896 577 c 0,0,1
532 -252 m 0,20,21
 390 -252 390 -252 311 -230 c 128,-1,22
 232 -208 232 -208 199.5 -170 c 128,-1,23
 167 -132 167 -132 167 -83 c 0,24,25
 167 -35 167 -35 203 -4 c 128,-1,26
 239 27 239 27 286 27 c 0,27,28
 303 27 303 27 326 3.5 c 128,-1,29
 349 -20 349 -20 381 -50.5 c 128,-1,30
 413 -81 413 -81 458.5 -104 c 128,-1,31
 504 -127 504 -127 566 -127 c 0,32,33
 685 -127 685 -127 740.5 -89 c 128,-1,34
 796 -51 796 -51 796 18 c 0,35,36
 796 76 796 76 758 111 c 128,-1,37
 720 146 720 146 657.5 166.5 c 128,-1,38
 595 187 595 187 520 202 c 128,-1,39
 445 217 445 217 369.5 237 c 128,-1,40
 294 257 294 257 231 290.5 c 128,-1,41
 168 324 168 324 130 380.5 c 128,-1,42
 92 437 92 437 92 526 c 0,43,44
 92 674 92 674 191 759 c 0,45,46
 257 816 257 816 371 839 c 1,47,48
 351 848 351 848 332 858 c 0,49,50
 270 891 270 891 232 949.5 c 128,-1,51
 194 1008 194 1008 194 1104 c 0,52,53
 194 1195 194 1195 241 1265.5 c 128,-1,54
 288 1336 288 1336 388.5 1376.5 c 128,-1,55
 489 1417 489 1417 651 1417 c 0,56,57
 793 1417 793 1417 872 1395 c 128,-1,58
 951 1373 951 1373 983 1335 c 128,-1,59
 1015 1297 1015 1297 1015 1248 c 0,60,61
 1015 1200 1015 1200 979 1169 c 128,-1,62
 943 1138 943 1138 896 1138 c 0,63,64
 880 1138 880 1138 857.5 1161.5 c 128,-1,65
 835 1185 835 1185 802.5 1215.5 c 128,-1,66
 770 1246 770 1246 724.5 1269 c 128,-1,67
 679 1292 679 1292 617 1292 c 0,68,69
 496 1292 496 1292 439.5 1254 c 128,-1,70
 383 1216 383 1216 383 1147 c 0,71,72
 383 1089 383 1089 421.5 1055 c 128,-1,73
 460 1021 460 1021 522.5 1001.5 c 128,-1,74
 585 982 585 982 660 967 c 128,-1,75
 735 952 735 952 810 932 c 128,-1,76
 885 912 885 912 948 878.5 c 128,-1,77
 1011 845 1011 845 1049 789 c 128,-1,78
 1087 733 1087 733 1087 643 c 0,79,80
 1087 491 1087 491 986 408 c 0,81,82
 918 353 918 353 806 330 c 1,83,84
 827 321 827 321 846 310 c 0,85,86
 909 277 909 277 947 218 c 128,-1,87
 985 159 985 159 985 63 c 0,88,89
 985 -27 985 -27 938.5 -98.5 c 128,-1,90
 892 -170 892 -170 792.5 -211 c 128,-1,91
 693 -252 693 -252 532 -252 c 0,20,21
EndSplineSet
EndChar

StartChar: copyright
Encoding: 169 169 107
Width: 1614
GlyphClass: 1
Flags: W
LayerCount: 2
Fore
SplineSet
882 401 m 0,0,1
 921 401 921 401 966 409 c 0,2,3
 987 413 987 413 1007 419 c 1,4,-1
 1066 561 l 1,5,-1
 1127 561 l 1,6,-1
 1095 338 l 1,7,8
 1041 319 1041 319 980 308 c 128,-1,9
 919 297 919 297 852 297 c 0,10,11
 714 297 714 297 618 341 c 128,-1,12
 522 385 522 385 473.5 473.5 c 128,-1,13
 425 562 425 562 425 694 c 0,14,15
 425 821 425 821 474.5 913.5 c 128,-1,16
 524 1006 524 1006 620 1057.5 c 128,-1,17
 716 1109 716 1109 854 1109 c 0,18,19
 911 1109 911 1109 963 1100 c 0,20,21
 997 1093 997 1093 1030 1084 c 1,22,-1
 1064 1128 l 1,23,-1
 1112 1128 l 1,24,-1
 1122 831 l 1,25,-1
 1056 828 l 1,26,-1
 1013 971 l 1,27,28
 987 982 987 982 962 989 c 0,29,30
 918 1001 918 1001 860 1001 c 0,31,32
 733 1001 733 1001 664.5 930 c 128,-1,33
 596 859 596 859 596 705 c 0,34,35
 596 601 596 601 630.5 534 c 128,-1,36
 665 467 665 467 729.5 434 c 128,-1,37
 794 401 794 401 882 401 c 0,0,1
807 1308 m 0,38,39
 629 1308 629 1308 500 1236 c 128,-1,40
 371 1164 371 1164 301.5 1027.5 c 128,-1,41
 232 891 232 891 232 698 c 0,42,43
 232 504 232 504 301.5 367.5 c 128,-1,44
 371 231 371 231 500 159.5 c 128,-1,45
 629 88 629 88 807 88 c 0,46,47
 987 88 987 88 1115.5 159.5 c 128,-1,48
 1244 231 1244 231 1313.5 367.5 c 128,-1,49
 1383 504 1383 504 1383 698 c 0,50,51
 1383 891 1383 891 1313.5 1027.5 c 128,-1,52
 1244 1164 1244 1164 1115.5 1236 c 128,-1,53
 987 1308 987 1308 807 1308 c 0,38,39
807 1417 m 128,-1,55
 966 1417 966 1417 1093.5 1367.5 c 128,-1,56
 1221 1318 1221 1318 1311 1225 c 128,-1,57
 1401 1132 1401 1132 1449 999 c 128,-1,58
 1497 866 1497 866 1497 698 c 128,-1,59
 1497 530 1497 530 1449 397 c 128,-1,60
 1401 264 1401 264 1311 170.5 c 128,-1,61
 1221 77 1221 77 1093 28 c 128,-1,62
 965 -21 965 -21 807 -21 c 0,63,64
 648 -21 648 -21 520.5 28 c 128,-1,65
 393 77 393 77 303 170.5 c 128,-1,66
 213 264 213 264 165.5 397 c 128,-1,67
 118 530 118 530 118 698 c 128,-1,68
 118 866 118 866 165.5 999 c 128,-1,69
 213 1132 213 1132 303 1225 c 128,-1,70
 393 1318 393 1318 520.5 1367.5 c 128,-1,54
 648 1417 648 1417 807 1417 c 128,-1,55
EndSplineSet
EndChar

StartChar: ordfeminine
Encoding: 170 170 108
Width: 958
GlyphClass: 1
Flags: W
LayerCount: 2
Fore
SplineSet
142 530 m 1,0,-1
 142 671 l 1,1,-1
 824 671 l 1,2,-1
 824 530 l 1,3,-1
 142 530 l 1,0,-1
571 960 m 1,4,5
 548 885 548 885 504 848 c 0,6,7
 450 802 450 802 362 802 c 0,8,9
 258 802 258 802 204.5 849 c 128,-1,10
 151 896 151 896 151 991 c 0,11,12
 151 1042 151 1042 169 1081.5 c 128,-1,13
 187 1121 187 1121 234 1153 c 128,-1,14
 281 1185 281 1185 368 1212 c 0,15,16
 445 1237 445 1237 563 1262 c 1,17,-1
 563 1288 l 2,18,19
 563 1357 563 1357 533 1392 c 0,20,21
 504 1428 504 1428 428 1428 c 0,22,23
 395 1428 395 1428 364 1422 c 0,24,25
 354 1419 354 1419 343 1417 c 1,26,27
 339 1400 339 1400 336 1387 c 0,28,29
 328 1356 328 1356 314 1336 c 0,30,31
 302 1315 302 1315 283 1305 c 128,-1,32
 264 1295 264 1295 229 1295 c 128,-1,33
 194 1295 194 1295 176.5 1308.5 c 128,-1,34
 159 1322 159 1322 159 1345 c 0,35,36
 159 1387 159 1387 207.5 1429.5 c 128,-1,37
 256 1472 256 1472 333 1501 c 128,-1,38
 410 1530 410 1530 494 1530 c 0,39,40
 583 1530 583 1530 634.5 1505.5 c 128,-1,41
 686 1481 686 1481 708 1429 c 128,-1,42
 730 1377 730 1377 730 1296 c 2,43,-1
 730 998 l 2,44,45
 730 950 730 950 741.5 934 c 128,-1,46
 753 918 753 918 783 918 c 0,47,48
 796 918 796 918 809.5 920.5 c 128,-1,49
 823 923 823 923 842 930 c 1,50,-1
 842 849 l 1,51,52
 803 827 803 827 768 816.5 c 128,-1,53
 733 806 733 806 697 806 c 0,54,55
 631 806 631 806 600 850 c 0,56,57
 576 886 576 886 571 960 c 1,4,5
563 1159 m 1,58,59
 498 1146 498 1146 454 1134 c 0,60,61
 399 1119 399 1119 369 1101 c 128,-1,62
 339 1083 339 1083 328.5 1061.5 c 128,-1,63
 318 1040 318 1040 318 1012 c 0,64,65
 318 966 318 966 344 943 c 128,-1,66
 370 920 370 920 429 920 c 0,67,68
 492 920 492 920 527.5 956.5 c 128,-1,69
 563 993 563 993 563 1047 c 2,70,-1
 563 1159 l 1,58,59
EndSplineSet
EndChar

StartChar: guillemotleft
Encoding: 171 171 109
Width: 1131
GlyphClass: 1
Flags: W
LayerCount: 2
Fore
SplineSet
785 499 m 1,0,-1
 1037 124 l 1,1,-1
 956 45 l 1,2,-1
 553 439 l 1,3,-1
 553 560 l 1,4,-1
 956 954 l 1,5,-1
 1037 874 l 1,6,-1
 785 499 l 1,0,-1
318 499 m 1,7,-1
 570 124 l 1,8,-1
 488 45 l 1,9,-1
 86 439 l 1,10,-1
 86 560 l 1,11,-1
 488 954 l 1,12,-1
 570 874 l 1,13,-1
 318 499 l 1,7,-1
EndSplineSet
Substitution2: "'case' Case-Sensitive Forms in Latin lookup 9 subtable" guillemotleft.case
EndChar

StartChar: logicalnot
Encoding: 172 172 110
Width: 1049
GlyphClass: 1
Flags: W
LayerCount: 2
Fore
SplineSet
117 760 m 1,0,-1
 921 760 l 1,1,-1
 921 699 l 1,2,-1
 921 610 l 1,3,-1
 921 229 l 1,4,-1
 778 229 l 1,5,-1
 778 610 l 1,6,-1
 117 610 l 1,7,-1
 117 760 l 1,0,-1
EndSplineSet
EndChar

StartChar: registered
Encoding: 174 174 112
Width: 1097
GlyphClass: 1
Flags: W
LayerCount: 2
Fore
SplineSet
394 1164 m 1,0,-1
 342 1176 l 1,1,-1
 342 1213 l 1,2,-1
 434 1213 l 1,3,-1
 504 1213 l 1,4,-1
 598 1213 l 2,5,6
 678 1213 678 1213 713 1185 c 128,-1,7
 748 1157 748 1157 748 1102 c 0,8,9
 748 1056 748 1056 720 1026 c 0,10,11
 697 1000 697 1000 649 993 c 1,12,13
 683 989 683 989 698 976 c 0,14,15
 717 960 717 960 723 925 c 2,16,-1
 736 869 l 2,17,18
 741 841 741 841 750 834 c 128,-1,19
 759 827 759 827 784 827 c 1,20,-1
 784 781 l 1,21,22
 725 776 725 776 692.5 779.5 c 128,-1,23
 660 783 660 783 646 798 c 128,-1,24
 632 813 632 813 626 843 c 2,25,-1
 613 914 l 2,26,27
 606 946 606 946 594 955 c 128,-1,28
 582 964 582 964 553 964 c 2,29,-1
 504 964 l 1,30,-1
 504 830 l 1,31,-1
 552 817 l 1,32,-1
 552 781 l 1,33,-1
 342 781 l 1,34,-1
 342 817 l 1,35,-1
 394 830 l 1,36,-1
 394 1164 l 1,0,-1
546 1334 m 0,37,38
 432 1334 432 1334 356 1292.5 c 128,-1,39
 280 1251 280 1251 242.5 1173 c 128,-1,40
 205 1095 205 1095 205 985 c 128,-1,41
 205 875 205 875 242.5 797 c 128,-1,42
 280 719 280 719 356 677.5 c 128,-1,43
 432 636 432 636 546 636 c 0,44,45
 661 636 661 636 738 677.5 c 128,-1,46
 815 719 815 719 853.5 797 c 128,-1,47
 892 875 892 875 892 985 c 128,-1,48
 892 1095 892 1095 853.5 1173 c 128,-1,49
 815 1251 815 1251 738 1292.5 c 128,-1,50
 661 1334 661 1334 546 1334 c 0,37,38
546 1417 m 0,51,52
 683 1417 683 1417 780 1365 c 128,-1,53
 877 1313 877 1313 928.5 1216.5 c 128,-1,54
 980 1120 980 1120 980 985 c 128,-1,55
 980 850 980 850 928.5 753 c 128,-1,56
 877 656 877 656 780 604.5 c 128,-1,57
 683 553 683 553 546 553 c 0,58,59
 412 553 412 553 315.5 604.5 c 128,-1,60
 219 656 219 656 167.5 753 c 128,-1,61
 116 850 116 850 116 985 c 128,-1,62
 116 1120 116 1120 167.5 1216.5 c 128,-1,63
 219 1313 219 1313 315.5 1365 c 128,-1,64
 412 1417 412 1417 546 1417 c 0,51,52
504 1145 m 1,65,-1
 504 1020 l 1,66,-1
 572 1020 l 2,67,68
 604 1020 604 1020 621 1035.5 c 128,-1,69
 638 1051 638 1051 638 1083 c 128,-1,70
 638 1115 638 1115 622 1130 c 128,-1,71
 606 1145 606 1145 562 1145 c 2,72,-1
 504 1145 l 1,65,-1
EndSplineSet
EndChar

StartChar: degree
Encoding: 176 176 114
Width: 747
GlyphClass: 1
Flags: W
LayerCount: 2
Fore
SplineSet
373 935 m 0,0,1
 447 935 447 935 495 985 c 128,-1,2
 543 1035 543 1035 543 1117 c 0,3,4
 543 1200 543 1200 495 1250 c 128,-1,5
 447 1300 447 1300 373 1300 c 0,6,7
 300 1300 300 1300 251.5 1250 c 128,-1,8
 203 1200 203 1200 203 1117 c 0,9,10
 203 1035 203 1035 251.5 985 c 128,-1,11
 300 935 300 935 373 935 c 0,0,1
373 1413 m 128,-1,13
 497 1413 497 1413 577 1330.5 c 128,-1,14
 657 1248 657 1248 657 1118 c 0,15,16
 657 987 657 987 577 904.5 c 128,-1,17
 497 822 497 822 373 822 c 128,-1,18
 249 822 249 822 169.5 904.5 c 128,-1,19
 90 987 90 987 90 1118 c 0,20,21
 90 1248 90 1248 169.5 1330.5 c 128,-1,12
 249 1413 249 1413 373 1413 c 128,-1,13
EndSplineSet
EndChar

StartChar: plusminus
Encoding: 177 177 115
Width: 1049
GlyphClass: 1
Flags: W
LayerCount: 2
Fore
SplineSet
129 150 m 1,0,1
 130 150 130 150 922 150 c 1,2,-1
 922 0 l 1,3,-1
 129 0 l 1,4,-1
 129 150 l 1,0,1
454 989 m 1,5,-1
 597 989 l 1,6,-1
 597 647 l 1,7,-1
 922 647 l 1,8,-1
 922 497 l 1,9,-1
 597 497 l 1,10,-1
 597 155 l 1,11,-1
 454 155 l 1,12,-1
 454 497 l 1,13,-1
 129 497 l 1,14,-1
 129 647 l 1,15,-1
 454 647 l 1,16,-1
 454 989 l 1,5,-1
EndSplineSet
EndChar

StartChar: uni00B2
Encoding: 178 178 116
Width: 748
GlyphClass: 1
Flags: W
LayerCount: 2
Fore
SplineSet
285 798 m 1,0,-1
 551 798 l 1,1,-1
 609 902 l 1,2,-1
 681 902 l 1,3,-1
 630 611 l 1,4,-1
 577 611 l 1,5,-1
 541 645 l 1,6,-1
 100 645 l 1,7,-1
 100 733 l 1,8,-1
 284 915 l 2,9,10
 346 974 346 974 380.5 1015 c 128,-1,11
 415 1056 415 1056 429.5 1089.5 c 128,-1,12
 444 1123 444 1123 444 1160 c 0,13,14
 444 1209 444 1209 411 1240 c 128,-1,15
 378 1271 378 1271 314 1271 c 0,16,17
 247 1271 247 1271 206.5 1235 c 128,-1,18
 166 1199 166 1199 140 1121 c 1,19,-1
 63 1148 l 1,20,21
 98 1282 98 1282 171 1346 c 128,-1,22
 244 1410 244 1410 370 1410 c 0,23,24
 486 1410 486 1410 554 1356 c 128,-1,25
 622 1302 622 1302 622 1202 c 0,26,27
 622 1149 622 1149 601.5 1104.5 c 128,-1,28
 581 1060 581 1060 528.5 1008 c 128,-1,29
 476 956 476 956 380 878 c 2,30,-1
 285 798 l 1,0,-1
EndSplineSet
EndChar

StartChar: uni00B3
Encoding: 179 179 117
Width: 708
GlyphClass: 1
Flags: W
LayerCount: 2
Fore
SplineSet
273 633 m 0,0,1
 161 633 161 633 117 663.5 c 128,-1,2
 73 694 73 694 73 737 c 0,3,4
 73 771 73 771 93.5 791 c 128,-1,5
 114 811 114 811 145 811 c 0,6,7
 155 811 155 811 167.5 799 c 128,-1,8
 180 787 180 787 198 771 c 128,-1,9
 216 755 216 755 242 742.5 c 128,-1,10
 268 730 268 730 305 730 c 0,11,12
 377 730 377 730 421.5 762.5 c 128,-1,13
 466 795 466 795 466 871 c 0,14,15
 466 913 466 913 449 940.5 c 128,-1,16
 432 968 432 968 393 978 c 128,-1,17
 354 988 354 988 287 979 c 2,18,-1
 247 974 l 1,19,-1
 237 1056 l 1,20,21
 346 1076 346 1076 381.5 1108 c 128,-1,22
 417 1140 417 1140 417 1192 c 0,23,24
 417 1234 417 1234 391 1260 c 128,-1,25
 365 1286 365 1286 312 1286 c 0,26,27
 252 1286 252 1286 213.5 1255 c 128,-1,28
 175 1224 175 1224 150 1161 c 1,29,-1
 79 1195 l 1,30,31
 113 1301 113 1301 179.5 1356 c 128,-1,32
 246 1411 246 1411 364 1411 c 0,33,34
 475 1411 475 1411 529 1368 c 128,-1,35
 583 1325 583 1325 583 1250 c 0,36,37
 583 1180 583 1180 532 1132 c 0,38,39
 495 1096 495 1096 430 1080 c 1,40,41
 480 1079 480 1079 518 1066 c 0,42,43
 575 1048 575 1048 605.5 1005.5 c 128,-1,44
 636 963 636 963 636 899 c 0,45,46
 636 819 636 819 596.5 759 c 128,-1,47
 557 699 557 699 476.5 666 c 128,-1,48
 396 633 396 633 273 633 c 0,0,1
EndSplineSet
EndChar

StartChar: uni00B5
Encoding: 181 181 119
Width: 1283
GlyphClass: 1
Flags: W
LayerCount: 2
Fore
SplineSet
1037 259 m 2,0,1
 1037 220 1037 220 1048 196 c 128,-1,2
 1059 172 1059 172 1081.5 161 c 128,-1,3
 1104 150 1104 150 1136 150 c 0,4,5
 1158 150 1158 150 1182.5 155 c 128,-1,6
 1207 160 1207 160 1234 167 c 1,7,-1
 1234 77 l 1,8,9
 1187 29 1187 29 1132 5.5 c 128,-1,10
 1077 -18 1077 -18 1026 -18 c 0,11,12
 935 -18 935 -18 882 52 c 0,13,14
 849 96 849 96 837 165 c 1,15,16
 779 112 779 112 737 78 c 0,17,18
 686 36 686 36 650.5 14 c 128,-1,19
 615 -8 615 -8 584 -14.5 c 128,-1,20
 553 -21 553 -21 516 -21 c 0,21,22
 459 -21 459 -21 419 1 c 128,-1,23
 379 23 379 23 352 64 c 0,24,25
 348 69 348 69 344 75 c 1,26,-1
 431 -490 l 1,27,-1
 236 -511 l 1,28,-1
 202 -511 l 1,29,-1
 202 1062 l 1,30,-1
 409 1062 l 1,31,-1
 409 367 l 2,32,33
 409 302 409 302 427.5 262 c 128,-1,34
 446 222 446 222 489.5 204 c 128,-1,35
 533 186 533 186 606 186 c 0,36,37
 668 186 668 186 732 202 c 0,38,39
 786 217 786 217 830 237 c 1,40,41
 830 246 830 246 830 254 c 2,42,-1
 830 1062 l 1,43,-1
 1037 1062 l 1,44,-1
 1037 259 l 2,0,1
EndSplineSet
EndChar

StartChar: paragraph
Encoding: 182 182 120
Width: 1268
GlyphClass: 1
Flags: W
LayerCount: 2
Fore
SplineSet
1006 -230 m 1,0,-1
 884 -230 l 1,1,-1
 884 1281 l 1,2,-1
 718 1281 l 1,3,-1
 718 -230 l 1,4,-1
 596 -230 l 1,5,-1
 596 708 l 1,6,-1
 417 708 l 2,7,8
 295 708 295 708 215.5 748 c 128,-1,9
 136 788 136 788 97 864.5 c 128,-1,10
 58 941 58 941 58 1051 c 0,11,12
 58 1159 58 1159 97 1236 c 128,-1,13
 136 1313 136 1313 221.5 1354.5 c 128,-1,14
 307 1396 307 1396 446 1396 c 2,15,-1
 596 1396 l 1,16,-1
 671 1396 l 1,17,-1
 884 1396 l 1,18,-1
 933 1396 l 1,19,-1
 1188 1396 l 1,20,-1
 1188 1316 l 1,21,-1
 1006 1282 l 1,22,-1
 1006 -230 l 1,0,-1
EndSplineSet
EndChar

StartChar: uni00B9
Encoding: 185 185 123
Width: 617
GlyphClass: 1
Flags: W
LayerCount: 2
Fore
SplineSet
259 1240 m 1,0,-1
 77 1170 l 1,1,-1
 47 1247 l 1,2,-1
 313 1397 l 1,3,-1
 431 1397 l 1,4,-1
 431 744 l 1,5,-1
 559 714 l 1,6,-1
 559 645 l 1,7,-1
 121 645 l 1,8,-1
 121 714 l 1,9,-1
 259 744 l 1,10,-1
 259 1240 l 1,0,-1
EndSplineSet
EndChar

StartChar: ordmasculine
Encoding: 186 186 124
Width: 974
GlyphClass: 1
Flags: W
LayerCount: 2
Fore
SplineSet
483 802 m 0,0,1
 376 802 376 802 298 844.5 c 128,-1,2
 220 887 220 887 178.5 967.5 c 128,-1,3
 137 1048 137 1048 137 1162 c 0,4,5
 137 1280 137 1280 179 1362.5 c 128,-1,6
 221 1445 221 1445 301.5 1487 c 128,-1,7
 382 1529 382 1529 494 1529 c 0,8,9
 601 1529 601 1529 678.5 1487 c 128,-1,10
 756 1445 756 1445 798 1364 c 128,-1,11
 840 1283 840 1283 840 1169 c 0,12,13
 840 1051 840 1051 797 969 c 128,-1,14
 754 887 754 887 674.5 844.5 c 128,-1,15
 595 802 595 802 483 802 c 0,0,1
485 932 m 0,16,17
 574 932 574 932 622.5 988 c 128,-1,18
 671 1044 671 1044 671 1159 c 0,19,20
 671 1278 671 1278 625 1339 c 128,-1,21
 579 1400 579 1400 491 1400 c 0,22,23
 402 1400 402 1400 353.5 1343 c 128,-1,24
 305 1286 305 1286 305 1172 c 0,25,26
 305 1054 305 1054 351 993 c 128,-1,27
 397 932 397 932 485 932 c 0,16,17
154 529 m 1,28,-1
 154 673 l 1,29,-1
 822 673 l 1,30,-1
 822 529 l 1,31,-1
 154 529 l 1,28,-1
EndSplineSet
EndChar

StartChar: guillemotright
Encoding: 187 187 125
Width: 1157
GlyphClass: 1
Flags: W
LayerCount: 2
Fore
SplineSet
822 500 m 1,0,-1
 570 875 l 1,1,-1
 652 954 l 1,2,-1
 1054 560 l 1,3,-1
 1054 439 l 1,4,-1
 652 45 l 1,5,-1
 570 125 l 1,6,-1
 822 500 l 1,0,-1
355 500 m 1,7,-1
 103 875 l 1,8,-1
 184 954 l 1,9,-1
 587 560 l 1,10,-1
 587 439 l 1,11,-1
 184 45 l 1,12,-1
 103 125 l 1,13,-1
 355 500 l 1,7,-1
EndSplineSet
Substitution2: "'case' Case-Sensitive Forms in Latin lookup 9 subtable" guillemotright.case
EndChar

StartChar: questiondown
Encoding: 191 191 129
Width: 1055
GlyphClass: 1
Flags: W
LayerCount: 2
Fore
SplineSet
579 693 m 128,-1,1
 512 693 512 693 470.5 733 c 128,-1,2
 429 773 429 773 429 844 c 0,3,4
 429 916 429 916 470 956.5 c 128,-1,5
 511 997 511 997 579 997 c 0,6,7
 646 997 646 997 687 956.5 c 128,-1,8
 728 916 728 916 728 844 c 0,9,10
 728 773 728 773 687 733 c 128,-1,0
 646 693 646 693 579 693 c 128,-1,1
602 -435 m 0,11,12
 479 -435 479 -435 382.5 -405.5 c 128,-1,13
 286 -376 286 -376 218.5 -322.5 c 128,-1,14
 151 -269 151 -269 116 -194.5 c 128,-1,15
 81 -120 81 -120 81 -31 c 0,16,17
 81 83 81 83 126 166.5 c 128,-1,18
 171 250 171 250 276 296 c 0,19,20
 366 335 366 335 508 342 c 1,21,-1
 522 547 l 1,22,-1
 638 547 l 1,23,-1
 681 184 l 1,24,25
 532 186 532 186 446 162 c 128,-1,26
 360 138 360 138 323.5 87 c 128,-1,27
 287 36 287 36 287 -43 c 0,28,29
 287 -114 287 -114 317.5 -170 c 128,-1,30
 348 -226 348 -226 410.5 -258.5 c 128,-1,31
 473 -291 473 -291 569 -291 c 0,32,33
 642 -291 642 -291 691 -268.5 c 128,-1,34
 740 -246 740 -246 774 -217 c 128,-1,35
 808 -188 808 -188 834 -165.5 c 128,-1,36
 860 -143 860 -143 886 -143 c 0,37,38
 923 -143 923 -143 950 -157 c 128,-1,39
 977 -171 977 -171 992 -196.5 c 128,-1,40
 1007 -222 1007 -222 1007 -257 c 0,41,42
 1007 -301 1007 -301 970.5 -342.5 c 128,-1,43
 934 -384 934 -384 846 -409.5 c 128,-1,44
 758 -435 758 -435 602 -435 c 0,11,12
EndSplineSet
Substitution2: "'case' Case-Sensitive Forms in Latin lookup 9 subtable" questiondown.case
EndChar

StartChar: AE
Encoding: 198 198 136
Width: 2146
GlyphClass: 2
Flags: W
AnchorPoint: "Anchor-4" 1140 0 basechar 0
LayerCount: 2
Fore
SplineSet
868 0 m 1,0,-1
 868 92 l 1,1,-1
 1043 139 l 1,2,-1
 1043 482 l 1,3,-1
 553 482 l 1,4,-1
 330 138 l 1,5,-1
 498 92 l 1,6,-1
 498 0 l 1,7,-1
 -3 0 l 1,8,-1
 -3 92 l 1,9,-1
 153 138 l 1,10,-1
 880 1254 l 1,11,-1
 694 1304 l 1,12,-1
 694 1396 l 1,13,-1
 972 1396 l 1,14,-1
 998 1396 l 1,15,-1
 1043 1396 l 1,16,-1
 1093 1396 l 1,17,-1
 1141 1396 l 1,18,-1
 1264 1396 l 1,19,-1
 1834 1396 l 1,20,-1
 1920 1463 l 1,21,-1
 2006 1463 l 1,22,-1
 2022 1015 l 1,23,-1
 1906 1012 l 1,24,-1
 1827 1246 l 1,25,-1
 1264 1246 l 1,26,-1
 1264 802 l 1,27,-1
 1606 802 l 1,28,-1
 1623 984 l 1,29,-1
 1738 984 l 1,30,-1
 1738 727 l 1,31,-1
 1738 470 l 1,32,-1
 1623 470 l 1,33,34
 1624 470 1624 470 1606 655 c 1,35,-1
 1264 655 l 1,36,-1
 1264 149 l 1,37,-1
 1831 149 l 1,38,-1
 1956 429 l 1,39,-1
 2067 426 l 1,40,-1
 1994 -72 l 1,41,-1
 1896 -72 l 1,42,-1
 1834 0 l 1,43,-1
 1264 0 l 1,44,-1
 1141 0 l 1,45,-1
 868 0 l 1,0,-1
1043 1239 m 1,46,-1
 649 631 l 1,47,-1
 1043 631 l 1,48,-1
 1043 1239 l 1,46,-1
EndSplineSet
EndChar

StartChar: Ccedilla
Encoding: 199 199 137
Width: 1441
GlyphClass: 1
Flags: W
LayerCount: 2
Fore
SplineSet
711 -481 m 0,0,1
 625 -481 625 -481 593 -458 c 128,-1,2
 561 -435 561 -435 561 -396 c 0,3,4
 561 -367 561 -367 579 -350.5 c 128,-1,5
 597 -334 597 -334 616 -334 c 0,6,7
 628 -334 628 -334 646 -351 c 128,-1,8
 664 -368 664 -368 688 -384.5 c 128,-1,9
 712 -401 712 -401 741 -401 c 0,10,11
 789 -401 789 -401 812.5 -381.5 c 128,-1,12
 836 -362 836 -362 836 -325 c 0,13,14
 836 -299 836 -299 821 -280.5 c 128,-1,15
 806 -262 806 -262 760.5 -247 c 128,-1,16
 715 -232 715 -232 626 -218 c 1,17,-1
 626 -196 l 1,18,-1
 756 -17 l 1,19,20
 638 -7 638 -7 538 24 c 0,21,22
 397 70 397 70 300 159.5 c 128,-1,23
 203 249 203 249 153.5 381.5 c 128,-1,24
 104 514 104 514 105 688 c 0,25,26
 107 918 107 918 197 1081 c 128,-1,27
 287 1244 287 1244 456 1330.5 c 128,-1,28
 625 1417 625 1417 866 1417 c 0,29,30
 957 1417 957 1417 1034 1402 c 0,31,32
 1088 1392 1088 1392 1144 1377 c 1,33,-1
 1220 1465 l 1,34,-1
 1311 1465 l 1,35,-1
 1325 948 l 1,36,-1
 1200 946 l 1,37,-1
 1119 1201 l 1,38,39
 1060 1230 1060 1230 1008 1242 c 0,40,41
 940 1259 940 1259 853 1259 c 0,42,43
 720 1259 720 1259 623.5 1226 c 128,-1,44
 527 1193 527 1193 464.5 1127.5 c 128,-1,45
 402 1062 402 1062 370.5 964.5 c 128,-1,46
 339 867 339 867 336 739 c 0,47,48
 332 588 332 588 369.5 474 c 128,-1,49
 407 360 407 360 478.5 284 c 128,-1,50
 550 208 550 208 652 170 c 128,-1,51
 754 132 754 132 879 132 c 0,52,53
 961 132 961 132 1046 148 c 0,54,55
 1083 156 1083 156 1119 166 c 1,56,-1
 1227 431 l 1,57,-1
 1339 431 l 1,58,-1
 1301 62 l 1,59,60
 1226 25 1226 25 1109.5 2 c 128,-1,61
 993 -21 993 -21 862 -21 c 0,62,63
 857 -21 857 -21 853 -21 c 2,64,-1
 784 -113 l 1,65,66
 841 -128 841 -128 876 -147 c 0,67,68
 928 -175 928 -175 947 -210 c 128,-1,69
 966 -245 966 -245 966 -287 c 0,70,71
 966 -350 966 -350 933.5 -393.5 c 128,-1,72
 901 -437 901 -437 843.5 -459 c 128,-1,73
 786 -481 786 -481 711 -481 c 0,0,1
EndSplineSet
EndChar

StartChar: multiply
Encoding: 215 215 153
Width: 1049
GlyphClass: 1
Flags: W
LayerCount: 2
Fore
SplineSet
166 768 m 1,0,-1
 267 875 l 1,1,-1
 525 603 l 1,2,-1
 784 875 l 1,3,-1
 884 768 l 1,4,-1
 626 497 l 1,5,-1
 884 225 l 1,6,-1
 784 119 l 1,7,-1
 525 391 l 1,8,-1
 267 119 l 1,9,-1
 166 225 l 1,10,-1
 424 497 l 1,11,-1
 166 768 l 1,0,-1
EndSplineSet
EndChar

StartChar: Oslash
Encoding: 216 216 154
Width: 1612
GlyphClass: 2
Flags: W
AnchorPoint: "Anchor-4" 806 0 basechar 0
LayerCount: 2
Fore
SplineSet
814 139 m 0,0,1
 958 139 958 139 1057.5 201.5 c 128,-1,2
 1157 264 1157 264 1209 381 c 128,-1,3
 1261 498 1261 498 1261 663 c 0,4,5
 1261 852 1261 852 1207 984 c 0,6,7
 1195 1014 1195 1014 1181 1040 c 1,8,-1
 509 253 l 1,9,10
 533 228 533 228 562 209 c 0,11,12
 665 139 665 139 814 139 c 0,0,1
808 1417 m 0,13,14
 964 1417 964 1417 1090 1365 c 0,15,16
 1166 1334 1166 1334 1229 1287 c 1,17,-1
 1322 1396 l 1,18,-1
 1493 1396 l 1,19,-1
 1323 1198 l 1,20,21
 1400 1109 1400 1109 1443 990 c 0,22,23
 1491 859 1491 859 1491 700 c 0,24,25
 1491 540 1491 540 1442.5 407.5 c 128,-1,26
 1394 275 1394 275 1304 179 c 128,-1,27
 1214 83 1214 83 1087.5 31 c 128,-1,28
 961 -21 961 -21 805 -21 c 128,-1,29
 649 -21 649 -21 522 31 c 0,30,31
 448 62 448 62 386 108 c 1,32,-1
 292 0 l 1,33,-1
 121 0 l 1,34,-1
 290 196 l 1,35,36
 213 286 213 286 170 406 c 0,37,38
 122 537 122 537 122 696 c 0,39,40
 122 856 122 856 170 988 c 128,-1,41
 218 1120 218 1120 308 1216 c 128,-1,42
 398 1312 398 1312 524.5 1364.5 c 128,-1,43
 651 1417 651 1417 808 1417 c 0,13,14
1104 1142 m 1,44,45
 1079 1167 1079 1167 1050 1186 c 0,46,47
 947 1256 947 1256 798 1256 c 0,48,49
 654 1256 654 1256 554.5 1194 c 128,-1,50
 455 1132 455 1132 403.5 1015 c 128,-1,51
 352 898 352 898 352 733 c 0,52,53
 352 545 352 545 406 412 c 0,54,55
 418 382 418 382 433 355 c 1,56,-1
 1104 1142 l 1,44,45
EndSplineSet
EndChar

StartChar: Thorn
Encoding: 222 222 160
Width: 1332
GlyphClass: 1
Flags: W
LayerCount: 2
Fore
SplineSet
668 92 m 1,0,-1
 668 0 l 1,1,-1
 97 0 l 1,2,-1
 97 92 l 1,3,-1
 272 139 l 1,4,-1
 272 1257 l 1,5,-1
 97 1304 l 1,6,-1
 97 1396 l 1,7,-1
 668 1396 l 1,8,-1
 668 1304 l 1,9,-1
 493 1257 l 1,10,-1
 493 1122 l 1,11,-1
 733 1122 l 2,12,13
 920 1122 920 1122 1031.5 1070.5 c 128,-1,14
 1143 1019 1143 1019 1192.5 926.5 c 128,-1,15
 1242 834 1242 834 1242 711 c 0,16,17
 1242 589 1242 589 1193.5 493 c 128,-1,18
 1145 397 1145 397 1038.5 342 c 128,-1,19
 932 287 932 287 758 287 c 2,20,-1
 493 287 l 1,21,-1
 493 139 l 1,22,-1
 668 92 l 1,0,-1
1016 705 m 0,23,24
 1016 793 1016 793 985 851.5 c 128,-1,25
 954 910 954 910 878 940 c 128,-1,26
 802 970 802 970 667 970 c 2,27,-1
 493 970 l 1,28,-1
 493 438 l 1,29,-1
 746 438 l 2,30,31
 831 438 831 438 891 466 c 128,-1,32
 951 494 951 494 983.5 553.5 c 128,-1,33
 1016 613 1016 613 1016 705 c 0,23,24
EndSplineSet
EndChar

StartChar: germandbls
Encoding: 223 223 161
Width: 1430
GlyphClass: 1
Flags: W
LayerCount: 2
Fore
SplineSet
243 1116 m 2,0,1
 243 1234 243 1234 282.5 1322 c 128,-1,2
 322 1410 322 1410 393.5 1468.5 c 128,-1,3
 465 1527 465 1527 564 1557 c 128,-1,4
 663 1587 663 1587 784 1587 c 0,5,6
 899 1587 899 1587 979 1567.5 c 128,-1,7
 1059 1548 1059 1548 1110 1511 c 128,-1,8
 1161 1474 1161 1474 1184.5 1421 c 128,-1,9
 1208 1368 1208 1368 1208 1302 c 0,10,11
 1208 1230 1208 1230 1178.5 1180 c 128,-1,12
 1149 1130 1149 1130 1105 1092 c 128,-1,13
 1061 1054 1061 1054 1017 1021 c 128,-1,14
 973 988 973 988 943 950 c 128,-1,15
 913 912 913 912 913 859 c 0,16,17
 913 807 913 807 945.5 776 c 128,-1,18
 978 745 978 745 1028 722.5 c 128,-1,19
 1078 700 1078 700 1134.5 674.5 c 128,-1,20
 1191 649 1191 649 1241.5 610 c 128,-1,21
 1292 571 1292 571 1324.5 506.5 c 128,-1,22
 1357 442 1357 442 1357 340 c 0,23,24
 1357 224 1357 224 1311 144.5 c 128,-1,25
 1265 65 1265 65 1176.5 23 c 128,-1,26
 1088 -19 1088 -19 958 -19 c 0,27,28
 891 -19 891 -19 817 -6.5 c 128,-1,29
 743 6 743 6 691 30 c 1,30,-1
 650 334 l 1,31,-1
 765 334 l 1,32,-1
 847 118 l 2,33,34
 849 118 849 118 852 118 c 0,35,36
 902 111 902 111 950 111 c 0,37,38
 1066 111 1066 111 1118.5 156.5 c 128,-1,39
 1171 202 1171 202 1171 287 c 0,40,41
 1171 359 1171 359 1139.5 401.5 c 128,-1,42
 1108 444 1108 444 1058 469.5 c 128,-1,43
 1008 495 1008 495 951.5 516.5 c 128,-1,44
 895 538 895 538 845 569 c 128,-1,45
 795 600 795 600 763.5 653 c 128,-1,46
 732 706 732 706 732 796 c 0,47,48
 732 872 732 872 759.5 924 c 128,-1,49
 787 976 787 976 826.5 1016 c 128,-1,50
 866 1056 866 1056 905.5 1091 c 128,-1,51
 945 1126 945 1126 972 1165.5 c 128,-1,52
 999 1205 999 1205 999 1257 c 0,53,54
 999 1313 999 1313 973 1356.5 c 128,-1,55
 947 1400 947 1400 894 1424 c 128,-1,56
 841 1448 841 1448 756 1448 c 0,57,58
 650 1448 650 1448 582.5 1419.5 c 128,-1,59
 515 1391 515 1391 482.5 1328.5 c 128,-1,60
 450 1266 450 1266 450 1164 c 2,61,-1
 450 135 l 1,62,-1
 592 90 l 1,63,-1
 592 0 l 1,64,-1
 88 0 l 1,65,-1
 88 90 l 1,66,-1
 243 135 l 1,67,-1
 243 875 l 1,68,-1
 58 940 l 1,69,-1
 58 1002 l 1,70,-1
 243 1076 l 1,71,-1
 243 1116 l 2,0,1
EndSplineSet
EndChar

StartChar: ae
Encoding: 230 230 168
Width: 1671
GlyphClass: 2
Flags: W
AnchorPoint: "Anchor-4" 825 0 basechar 0
AnchorPoint: "Anchor-0" 834 1062 basechar 0
LayerCount: 2
Fore
SplineSet
501 943 m 0,0,1
 446 943 446 943 399 936 c 0,2,3
 381 934 381 934 364 931 c 1,4,5
 362 922 362 922 360 914 c 0,6,7
 352 881 352 881 343.5 854 c 128,-1,8
 335 827 335 827 324 802 c 0,9,10
 307 764 307 764 280.5 753.5 c 128,-1,11
 254 743 254 743 215 743 c 0,12,13
 160 743 160 743 131.5 766 c 128,-1,14
 103 789 103 789 103 823 c 0,15,16
 103 862 103 862 138 906 c 128,-1,17
 173 950 173 950 236 990 c 128,-1,18
 299 1030 299 1030 384 1056 c 128,-1,19
 469 1082 469 1082 569 1082 c 0,20,21
 672 1082 672 1082 739 1053 c 128,-1,22
 806 1024 806 1024 843 971 c 0,23,24
 849 962 849 962 855 952 c 1,25,26
 891 991 891 991 936 1020 c 0,27,28
 1034 1084 1034 1084 1163 1084 c 0,29,30
 1308 1084 1308 1084 1399 1019.5 c 128,-1,31
 1490 955 1490 955 1533 829.5 c 128,-1,32
 1576 704 1576 704 1579 521 c 1,33,-1
 906 521 l 1,34,35
 912 416 912 416 944 344 c 0,36,37
 983 253 983 253 1064 209 c 128,-1,38
 1145 165 1145 165 1265 165 c 0,39,40
 1324 165 1324 165 1376.5 176 c 128,-1,41
 1429 187 1429 187 1476.5 206 c 128,-1,42
 1524 225 1524 225 1567 246 c 1,43,-1
 1572 149 l 1,44,45
 1507 94 1507 94 1439 55.5 c 128,-1,46
 1371 17 1371 17 1303.5 -3 c 128,-1,47
 1236 -23 1236 -23 1173 -23 c 0,48,49
 1055 -23 1055 -23 962 17 c 128,-1,50
 869 57 869 57 804 134 c 0,51,52
 758 187 758 187 729 255 c 1,53,54
 715 184 715 184 683 132 c 0,55,56
 636 54 636 54 562 15.5 c 128,-1,57
 488 -23 488 -23 397 -23 c 0,58,59
 258 -23 258 -23 180 51 c 128,-1,60
 102 125 102 125 102 261 c 0,61,62
 102 338 102 338 129 398.5 c 128,-1,63
 156 459 156 459 229.5 508.5 c 128,-1,64
 303 558 303 558 442 600 c 0,65,66
 547 632 547 632 700 660 c 1,67,-1
 700 727 l 2,68,69
 700 837 700 837 656 890 c 128,-1,70
 612 943 612 943 501 943 c 0,0,1
700 538 m 1,71,72
 602 520 602 520 536 502 c 0,73,74
 445 476 445 476 398.5 447 c 128,-1,75
 352 418 352 418 337 383.5 c 128,-1,76
 322 349 322 349 322 305 c 0,77,78
 322 228 322 228 362.5 189.5 c 128,-1,79
 403 151 403 151 484 151 c 0,80,81
 546 151 546 151 594.5 176.5 c 128,-1,82
 643 202 643 202 671.5 250.5 c 128,-1,83
 700 299 700 299 700 368 c 2,84,-1
 700 538 l 1,71,72
1367 658 m 1,85,86
 1363 750 1363 750 1340 810 c 0,87,88
 1314 879 1314 879 1267 910.5 c 128,-1,89
 1220 942 1220 942 1152 942 c 0,90,91
 1074 942 1074 942 1018.5 904 c 128,-1,92
 963 866 963 866 934 786 c 0,93,94
 913 730 913 730 907 652 c 1,95,-1
 1367 658 l 1,85,86
EndSplineSet
EndChar

StartChar: ccedilla
Encoding: 231 231 169
Width: 1020
GlyphClass: 1
Flags: W
LayerCount: 2
Fore
SplineSet
453 -519 m 0,0,1
 365 -519 365 -519 332 -494.5 c 128,-1,2
 299 -470 299 -470 299 -428 c 0,3,4
 299 -397 299 -397 317 -379 c 128,-1,5
 335 -361 335 -361 355 -361 c 0,6,7
 367 -361 367 -361 386 -379 c 128,-1,8
 405 -397 405 -397 429.5 -415 c 128,-1,9
 454 -433 454 -433 485 -433 c 0,10,11
 534 -433 534 -433 558.5 -412 c 128,-1,12
 583 -391 583 -391 583 -351 c 0,13,14
 583 -323 583 -323 567 -303 c 128,-1,15
 551 -283 551 -283 504.5 -267 c 128,-1,16
 458 -251 458 -251 366 -235 c 1,17,-1
 366 -212 l 1,18,19
 365 -212 365 -212 499 -20 c 1,20,21
 395 -10 395 -10 312 40 c 0,22,23
 207 104 207 104 149 223.5 c 128,-1,24
 91 343 91 343 91 513 c 0,25,26
 91 645 91 645 129.5 750.5 c 128,-1,27
 168 856 168 856 241.5 930.5 c 128,-1,28
 315 1005 315 1005 419 1044.5 c 128,-1,29
 523 1084 523 1084 652 1084 c 0,30,31
 768 1084 768 1084 833.5 1056.5 c 128,-1,32
 899 1029 899 1029 926 988.5 c 128,-1,33
 953 948 953 948 953 908 c 128,-1,34
 953 868 953 868 937 835 c 128,-1,35
 921 802 921 802 892.5 783 c 128,-1,36
 864 764 864 764 827 764 c 0,37,38
 815 764 815 764 790.5 782 c 128,-1,39
 766 800 766 800 737 826.5 c 128,-1,40
 708 853 708 853 677.5 879.5 c 128,-1,41
 647 906 647 906 618 924 c 128,-1,42
 589 942 589 942 567 942 c 0,43,44
 489 942 489 942 426.5 903.5 c 128,-1,45
 364 865 364 865 328 785.5 c 128,-1,46
 292 706 292 706 292 586 c 0,47,48
 292 447 292 447 331 353.5 c 128,-1,49
 370 260 370 260 446.5 213 c 128,-1,50
 523 166 523 166 635 166 c 0,51,52
 706 166 706 166 778.5 186.5 c 128,-1,53
 851 207 851 207 929 247 c 1,54,-1
 936 149 l 1,55,56
 871 93 871 93 806 54.5 c 128,-1,57
 741 16 741 16 678 -4 c 0,58,59
 639 -16 639 -16 601 -20 c 1,60,-1
 529 -123 l 1,61,62
 587 -139 587 -139 624 -159 c 0,63,64
 677 -189 677 -189 696.5 -227 c 128,-1,65
 716 -265 716 -265 716 -310 c 0,66,67
 716 -378 716 -378 683 -425 c 128,-1,68
 650 -472 650 -472 590 -495.5 c 128,-1,69
 530 -519 530 -519 453 -519 c 0,0,1
EndSplineSet
EndChar

StartChar: eth
Encoding: 240 240 178
Width: 1205
GlyphClass: 1
Flags: W
LayerCount: 2
Fore
SplineSet
402 1097 m 1,0,-1
 341 1191 l 1,1,-1
 539 1338 l 1,2,3
 532 1342 532 1342 525 1346 c 0,4,5
 405 1412 405 1412 241 1466 c 1,6,-1
 280 1585 l 1,7,8
 473 1530 473 1530 612 1462 c 0,9,10
 640 1448 640 1448 666 1434 c 1,11,-1
 872 1587 l 1,12,-1
 932 1493 l 1,13,-1
 767 1370 l 1,14,15
 809 1340 809 1340 844 1308 c 0,16,17
 938 1223 938 1223 993.5 1116.5 c 128,-1,18
 1049 1010 1049 1010 1072.5 879 c 128,-1,19
 1096 748 1096 748 1096 591 c 0,20,21
 1096 385 1096 385 1033.5 248.5 c 128,-1,22
 971 112 971 112 856 44.5 c 128,-1,23
 741 -23 741 -23 584 -23 c 0,24,25
 431 -23 431 -23 320.5 43.5 c 128,-1,26
 210 110 210 110 150.5 231 c 128,-1,27
 91 352 91 352 91 513 c 0,28,29
 91 677 91 677 150.5 798.5 c 128,-1,30
 210 920 210 920 315.5 986.5 c 128,-1,31
 421 1053 421 1053 556 1053 c 0,32,33
 625 1053 625 1053 682 1031.5 c 128,-1,34
 739 1010 739 1010 782.5 970 c 128,-1,35
 826 930 826 930 856 874 c 0,36,37
 869 852 869 852 879 827 c 1,38,39
 869 920 869 920 842 997 c 0,40,41
 803 1108 803 1108 724 1194 c 0,42,43
 686 1236 686 1236 637 1273 c 1,44,-1
 402 1097 l 1,0,-1
586 130 m 0,45,46
 681 130 681 130 747 167.5 c 128,-1,47
 813 205 813 205 847 285.5 c 128,-1,48
 881 366 881 366 881 491 c 0,49,50
 881 628 881 628 850 720.5 c 128,-1,51
 819 813 819 813 756.5 859 c 128,-1,52
 694 905 694 905 599 905 c 128,-1,53
 504 905 504 905 438.5 866.5 c 128,-1,54
 373 828 373 828 339 747.5 c 128,-1,55
 305 667 305 667 305 542 c 0,56,57
 305 405 305 405 336 313 c 128,-1,58
 367 221 367 221 429.5 175.5 c 128,-1,59
 492 130 492 130 586 130 c 0,45,46
EndSplineSet
EndChar

StartChar: divide
Encoding: 247 247 185
Width: 1049
GlyphClass: 1
Flags: W
LayerCount: 2
Fore
SplineSet
129 572 m 1,0,1
 130 572 130 572 922 572 c 1,2,-1
 922 422 l 1,3,-1
 129 422 l 1,4,-1
 129 572 l 1,0,1
525 982 m 0,5,6
 583 982 583 982 619 947 c 128,-1,7
 655 912 655 912 655 851 c 128,-1,8
 655 790 655 790 619 755 c 128,-1,9
 583 720 583 720 525 720 c 0,10,11
 466 720 466 720 431 755 c 128,-1,12
 396 790 396 790 396 851 c 128,-1,13
 396 912 396 912 431 947 c 128,-1,14
 466 982 466 982 525 982 c 0,5,6
525 274 m 0,15,16
 583 274 583 274 619 239.5 c 128,-1,17
 655 205 655 205 655 143 c 0,18,19
 655 83 655 83 619 47.5 c 128,-1,20
 583 12 583 12 525 12 c 0,21,22
 466 12 466 12 431 47.5 c 128,-1,23
 396 83 396 83 396 143 c 0,24,25
 396 205 396 205 431 239.5 c 128,-1,26
 466 274 466 274 525 274 c 0,15,16
EndSplineSet
EndChar

StartChar: oslash
Encoding: 248 248 186
Width: 1225
GlyphClass: 2
Flags: W
AnchorPoint: "Anchor-4" 614 0 basechar 0
AnchorPoint: "Anchor-0" 614 1062 basechar 0
LayerCount: 2
Fore
SplineSet
605 -23 m 0,0,1
 452 -23 452 -23 341 45 c 0,2,3
 321 57 321 57 303 71 c 1,4,-1
 242 0 l 1,5,-1
 83 0 l 1,6,-1
 217 159 l 1,7,8
 191 195 191 195 170 238 c 0,9,10
 111 362 111 362 111 527 c 0,11,12
 111 695 111 695 174 820.5 c 128,-1,13
 237 946 237 946 351.5 1015 c 128,-1,14
 466 1084 466 1084 622 1084 c 0,15,16
 775 1084 775 1084 886 1016 c 0,17,18
 906 1004 906 1004 924 991 c 1,19,-1
 984 1062 l 1,20,-1
 1145 1062 l 1,21,-1
 1010 903 l 1,22,23
 1037 867 1037 867 1057 824 c 0,24,25
 1116 701 1116 701 1116 535 c 0,26,27
 1116 367 1116 367 1053 241.5 c 128,-1,28
 990 116 990 116 876 46.5 c 128,-1,29
 762 -23 762 -23 605 -23 c 0,0,1
607 131 m 0,30,31
 702 131 702 131 768 170.5 c 128,-1,32
 834 210 834 210 868 292.5 c 128,-1,33
 902 375 902 375 902 504 c 0,34,35
 902 647 902 647 871 742 c 0,36,37
 870 744 870 744 870 746 c 1,38,-1
 418 209 l 1,39,40
 433 192 433 192 450 178 c 0,41,42
 513 131 513 131 607 131 c 0,30,31
810 853 m 1,43,44
 795 870 795 870 778 884 c 0,45,46
 715 931 715 931 620 931 c 128,-1,47
 525 931 525 931 459.5 892 c 128,-1,48
 394 853 394 853 360 770 c 128,-1,49
 326 687 326 687 326 557 c 0,50,51
 326 416 326 416 357 321 c 0,52,53
 358 319 358 319 359 316 c 1,54,-1
 810 853 l 1,43,44
EndSplineSet
EndChar

StartChar: thorn
Encoding: 254 254 192
Width: 1229
GlyphClass: 1
Flags: W
LayerCount: 2
Fore
SplineSet
163 1335 m 1,0,1
 151 1344 151 1344 119 1359.5 c 128,-1,2
 87 1375 87 1375 47 1393.5 c 128,-1,3
 7 1412 7 1412 -31 1429 c 1,4,-1
 -31 1503 l 1,5,-1
 346 1587 l 1,6,-1
 388 1587 l 1,7,-1
 370 1366 l 1,8,-1
 370 964 l 1,9,10
 404 984 404 984 434 1000 c 0,11,12
 492 1031 492 1031 538.5 1049.5 c 128,-1,13
 585 1068 585 1068 623 1076 c 0,14,15
 662 1084 662 1084 694 1084 c 0,16,17
 838 1084 838 1084 937 1022 c 128,-1,18
 1036 960 1036 960 1087 846 c 128,-1,19
 1138 732 1138 732 1138 576 c 0,20,21
 1138 389 1138 389 1073.5 255 c 128,-1,22
 1009 121 1009 121 899.5 49 c 128,-1,23
 790 -23 790 -23 656 -23 c 0,24,25
 573 -23 573 -23 507 12.5 c 128,-1,26
 441 48 441 48 396 106 c 0,27,28
 381 126 381 126 369 147 c 1,29,-1
 369 -364 l 1,30,-1
 546 -407 l 1,31,-1
 546 -497 l 1,32,-1
 5 -497 l 1,33,-1
 5 -407 l 1,34,-1
 163 -362 l 1,35,-1
 163 1335 l 1,0,1
370 853 m 1,36,-1
 370 367 l 2,37,38
 370 288 370 288 402.5 234 c 128,-1,39
 435 180 435 180 493 152 c 128,-1,40
 551 124 551 124 623 124 c 0,41,42
 715 124 715 124 780.5 171 c 128,-1,43
 846 218 846 218 881 307 c 128,-1,44
 916 396 916 396 916 521 c 0,45,46
 916 714 916 714 834.5 807.5 c 128,-1,47
 753 901 753 901 610 901 c 0,48,49
 556 901 556 901 503 891.5 c 128,-1,50
 450 882 450 882 400 864 c 0,51,52
 385 859 385 859 370 853 c 1,36,-1
EndSplineSet
EndChar

StartChar: Aogonek
Encoding: 260 260 198
Width: 1528
GlyphClass: 1
Flags: W
LayerCount: 2
Fore
SplineSet
1242 -88 m 2,0,1
 1210 -158 1210 -158 1198.5 -198 c 128,-1,2
 1187 -238 1187 -238 1187 -274 c 0,3,4
 1187 -319 1187 -319 1210.5 -342.5 c 128,-1,5
 1234 -366 1234 -366 1275 -366 c 0,6,7
 1303 -366 1303 -366 1328.5 -357.5 c 128,-1,8
 1354 -349 1354 -349 1394 -321 c 1,9,-1
 1400 -385 l 1,10,11
 1364 -421 1364 -421 1334 -442 c 128,-1,12
 1304 -463 1304 -463 1274 -472 c 128,-1,13
 1244 -481 1244 -481 1207 -481 c 0,14,15
 1123 -481 1123 -481 1083 -438 c 128,-1,16
 1043 -395 1043 -395 1043 -324 c 0,17,18
 1043 -292 1043 -292 1050.5 -259.5 c 128,-1,19
 1058 -227 1058 -227 1079.5 -185.5 c 128,-1,20
 1101 -144 1101 -144 1143 -84 c 2,21,-1
 1201 0 l 1,22,-1
 945 0 l 1,23,-1
 945 92 l 1,24,-1
 1116 138 l 1,25,-1
 992 467 l 1,26,-1
 448 467 l 1,27,-1
 334 138 l 1,28,-1
 504 92 l 1,29,-1
 504 0 l 1,30,-1
 12 0 l 1,31,-1
 12 92 l 1,32,-1
 168 138 l 1,33,-1
 636 1413 l 1,34,-1
 866 1413 l 1,35,-1
 1359 140 l 1,36,-1
 1528 92 l 1,37,-1
 1528 0 l 1,38,-1
 1285 0 l 1,39,-1
 1242 -88 l 2,0,1
708 1219 m 1,40,-1
 499 616 l 1,41,-1
 935 616 l 1,42,-1
 708 1219 l 1,40,-1
EndSplineSet
EndChar

StartChar: aogonek
Encoding: 261 261 199
Width: 1104
GlyphClass: 1
Flags: W
LayerCount: 2
Fore
SplineSet
1096 77 m 1,0,-1
 978 -96 l 2,1,2
 945 -145 945 -145 925.5 -180.5 c 128,-1,3
 906 -216 906 -216 898.5 -243.5 c 128,-1,4
 891 -271 891 -271 891 -297 c 0,5,6
 891 -345 891 -345 915.5 -370 c 128,-1,7
 940 -395 940 -395 981 -395 c 0,8,9
 1010 -395 1010 -395 1036.5 -386 c 128,-1,10
 1063 -377 1063 -377 1103 -347 c 1,11,-1
 1111 -416 l 1,12,13
 1074 -455 1074 -455 1042.5 -477.5 c 128,-1,14
 1011 -500 1011 -500 980 -509.5 c 128,-1,15
 949 -519 949 -519 912 -519 c 0,16,17
 826 -519 826 -519 785 -473 c 128,-1,18
 744 -427 744 -427 744 -350 c 0,19,20
 744 -313 744 -313 754.5 -278 c 128,-1,21
 765 -243 765 -243 795 -198 c 128,-1,22
 825 -153 825 -153 879 -90 c 2,23,-1
 946 -11 l 1,24,25
 940 -13 940 -13 933 -14 c 0,26,27
 911 -18 911 -18 890 -18 c 0,28,29
 829 -18 829 -18 787 12.5 c 128,-1,30
 745 43 745 43 722 106 c 0,31,32
 702 158 702 158 697 231 c 1,33,34
 682 163 682 163 650 112 c 0,35,36
 609 46 609 46 545 11.5 c 128,-1,37
 481 -23 481 -23 396 -23 c 0,38,39
 257 -23 257 -23 180 50.5 c 128,-1,40
 103 124 103 124 103 261 c 0,41,42
 103 339 103 339 130.5 400.5 c 128,-1,43
 158 462 158 462 231.5 512 c 128,-1,44
 305 562 305 562 442 603 c 0,45,46
 546 634 546 634 694 662 c 1,47,-1
 694 727 l 2,48,49
 694 837 694 837 650.5 890 c 128,-1,50
 607 943 607 943 495 943 c 0,51,52
 441 943 441 943 396 936 c 0,53,54
 381 934 381 934 366 931 c 1,55,56
 360 904 360 904 354 882 c 0,57,58
 341 839 341 839 325 802 c 0,59,60
 308 764 308 764 281 753.5 c 128,-1,61
 254 743 254 743 215 743 c 0,62,63
 161 743 161 743 132.5 766 c 128,-1,64
 104 789 104 789 104 823 c 0,65,66
 104 862 104 862 138 906 c 128,-1,67
 172 950 172 950 234 990 c 128,-1,68
 296 1030 296 1030 380.5 1056 c 128,-1,69
 465 1082 465 1082 563 1082 c 0,70,71
 687 1082 687 1082 761 1043 c 128,-1,72
 835 1004 835 1004 867.5 933 c 128,-1,73
 900 862 900 862 900 762 c 2,74,-1
 900 259 l 2,75,76
 900 220 900 220 911 195.5 c 128,-1,77
 922 171 922 171 944.5 159.5 c 128,-1,78
 967 148 967 148 999 148 c 0,79,80
 1021 148 1021 148 1046 153.5 c 128,-1,81
 1071 159 1071 159 1096 167 c 1,82,-1
 1096 77 l 1,0,-1
694 539 m 1,83,84
 600 521 600 521 536 503 c 0,85,86
 447 478 447 478 400.5 449 c 128,-1,87
 354 420 354 420 338 385 c 128,-1,88
 322 350 322 350 322 305 c 0,89,90
 322 228 322 228 362.5 189.5 c 128,-1,91
 403 151 403 151 484 151 c 0,92,93
 544 151 544 151 591 175.5 c 128,-1,94
 638 200 638 200 666 241.5 c 128,-1,95
 694 283 694 283 694 335 c 2,96,-1
 694 539 l 1,83,84
EndSplineSet
EndChar

StartChar: Dcroat
Encoding: 272 272 210
Width: 1570
GlyphClass: 1
Flags: W
LayerCount: 2
Fore
SplineSet
100 0 m 1,0,-1
 100 92 l 1,1,-1
 275 139 l 1,2,-1
 275 639 l 1,3,-1
 100 639 l 1,4,-1
 100 768 l 1,5,-1
 275 768 l 1,6,-1
 275 1257 l 1,7,-1
 100 1304 l 1,8,-1
 100 1396 l 1,9,-1
 370 1396 l 1,10,-1
 497 1396 l 1,11,-1
 744 1396 l 2,12,13
 983 1396 983 1396 1142.5 1320.5 c 128,-1,14
 1302 1245 1302 1245 1382.5 1096.5 c 128,-1,15
 1463 948 1463 948 1463 730 c 0,16,17
 1463 494 1463 494 1372 331 c 128,-1,18
 1281 168 1281 168 1118 84 c 128,-1,19
 955 0 955 0 738 0 c 2,20,-1
 497 0 l 1,21,-1
 370 0 l 1,22,-1
 100 0 l 1,0,-1
1232 715 m 0,23,24
 1232 985 1232 985 1097 1114.5 c 128,-1,25
 962 1244 962 1244 684 1244 c 2,26,-1
 497 1244 l 1,27,-1
 497 768 l 1,28,-1
 794 768 l 1,29,-1
 794 639 l 1,30,-1
 497 639 l 1,31,-1
 497 152 l 1,32,-1
 726 152 l 2,33,34
 888 152 888 152 1001 210 c 128,-1,35
 1114 268 1114 268 1173 392 c 128,-1,36
 1232 516 1232 516 1232 715 c 0,23,24
EndSplineSet
EndChar

StartChar: dcroat
Encoding: 273 273 211
Width: 1269
GlyphClass: 1
Flags: W
LayerCount: 2
Fore
SplineSet
560 1178 m 1,0,-1
 560 1302 l 1,1,-1
 859 1302 l 1,2,-1
 859 1378 l 1,3,4
 849 1386 849 1386 820.5 1396 c 128,-1,5
 792 1406 792 1406 759 1417.5 c 128,-1,6
 726 1429 726 1429 702 1436 c 1,7,-1
 702 1511 l 1,8,-1
 1042 1587 l 1,9,-1
 1083 1587 l 1,10,-1
 1066 1366 l 1,11,-1
 1066 1302 l 1,12,-1
 1244 1302 l 1,13,-1
 1244 1178 l 1,14,-1
 1066 1178 l 1,15,-1
 1066 239 l 1,16,17
 1075 233 1075 233 1095.5 220 c 128,-1,18
 1116 207 1116 207 1142 192.5 c 128,-1,19
 1168 178 1168 178 1191.5 165 c 128,-1,20
 1215 152 1215 152 1231 145 c 1,21,-1
 1231 98 l 1,22,-1
 956 -22 l 1,23,-1
 921 -22 l 1,24,-1
 871 155 l 1,25,26
 815 113 815 113 772 84 c 0,27,28
 706 38 706 38 662 15 c 128,-1,29
 618 -8 618 -8 586 -15.5 c 128,-1,30
 554 -23 554 -23 522 -23 c 0,31,32
 380 -23 380 -23 284.5 39.5 c 128,-1,33
 189 102 189 102 140.5 216 c 128,-1,34
 92 330 92 330 92 487 c 0,35,36
 92 624 92 624 133 735 c 128,-1,37
 174 846 174 846 247.5 923.5 c 128,-1,38
 321 1001 321 1001 419.5 1042.5 c 128,-1,39
 518 1084 518 1084 632 1084 c 0,40,41
 698 1084 698 1084 754 1074 c 0,42,43
 807 1064 807 1064 859 1042 c 1,44,-1
 859 1178 l 1,45,-1
 560 1178 l 1,0,-1
859 701 m 2,46,47
 859 813 859 813 805 877 c 128,-1,48
 751 941 751 941 622 941 c 0,49,50
 522 941 522 941 453.5 893 c 128,-1,51
 385 845 385 845 349.5 754 c 128,-1,52
 314 663 314 663 314 535 c 0,53,54
 314 409 314 409 349.5 325.5 c 128,-1,55
 385 242 385 242 453.5 201.5 c 128,-1,56
 522 161 522 161 620 161 c 0,57,58
 701 161 701 161 780 186 c 0,59,60
 819 198 819 198 859 216 c 1,61,-1
 859 701 l 2,46,47
EndSplineSet
EndChar

StartChar: Eogonek
Encoding: 280 280 218
Width: 1374
GlyphClass: 1
Flags: W
LayerCount: 2
Fore
SplineSet
1021 -89 m 2,0,1
 993 -134 993 -134 977.5 -166.5 c 128,-1,2
 962 -199 962 -199 955.5 -224 c 128,-1,3
 949 -249 949 -249 949 -273 c 0,4,5
 949 -318 949 -318 973 -342 c 128,-1,6
 997 -366 997 -366 1037 -366 c 0,7,8
 1065 -366 1065 -366 1090.5 -357.5 c 128,-1,9
 1116 -349 1116 -349 1156 -321 c 1,10,-1
 1163 -385 l 1,11,12
 1127 -421 1127 -421 1097 -442 c 128,-1,13
 1067 -463 1067 -463 1037 -472 c 128,-1,14
 1007 -481 1007 -481 970 -481 c 0,15,16
 886 -481 886 -481 846 -438 c 128,-1,17
 806 -395 806 -395 806 -324 c 0,18,19
 806 -292 806 -292 814.5 -259 c 128,-1,20
 823 -226 823 -226 847.5 -184.5 c 128,-1,21
 872 -143 872 -143 921 -85 c 2,22,-1
 990 0 l 1,23,-1
 493 0 l 1,24,-1
 369 0 l 1,25,-1
 97 0 l 1,26,-1
 97 92 l 1,27,-1
 272 139 l 1,28,-1
 272 1257 l 1,29,-1
 97 1304 l 1,30,-1
 97 1396 l 1,31,-1
 369 1396 l 1,32,-1
 493 1396 l 1,33,-1
 1063 1396 l 1,34,-1
 1149 1463 l 1,35,-1
 1234 1463 l 1,36,-1
 1250 1015 l 1,37,-1
 1134 1012 l 1,38,-1
 1056 1246 l 1,39,-1
 493 1246 l 1,40,-1
 493 802 l 1,41,-1
 833 802 l 1,42,-1
 851 984 l 1,43,-1
 966 984 l 1,44,-1
 966 727 l 1,45,-1
 966 470 l 1,46,-1
 851 470 l 1,47,-1
 833 655 l 1,48,-1
 493 655 l 1,49,-1
 493 149 l 1,50,-1
 1060 149 l 1,51,-1
 1185 429 l 1,52,-1
 1296 426 l 1,53,-1
 1222 -72 l 1,54,-1
 1125 -72 l 1,55,-1
 1069 -8 l 1,56,-1
 1021 -89 l 2,0,1
EndSplineSet
EndChar

StartChar: eogonek
Encoding: 281 281 219
Width: 1067
GlyphClass: 1
Flags: W
LayerCount: 2
Fore
SplineSet
969 149 m 1,0,-1
 849 -46 l 2,1,2
 813 -104 813 -104 792.5 -149 c 128,-1,3
 772 -194 772 -194 763.5 -229.5 c 128,-1,4
 755 -265 755 -265 755 -294 c 0,5,6
 755 -348 755 -348 783 -371.5 c 128,-1,7
 811 -395 811 -395 853 -395 c 0,8,9
 882 -395 882 -395 908.5 -386 c 128,-1,10
 935 -377 935 -377 976 -347 c 1,11,-1
 982 -416 l 1,12,13
 945 -455 945 -455 916 -477.5 c 128,-1,14
 887 -500 887 -500 858 -509.5 c 128,-1,15
 829 -519 829 -519 790 -519 c 0,16,17
 700 -519 700 -519 655 -471 c 128,-1,18
 610 -423 610 -423 610 -340 c 0,19,20
 610 -299 610 -299 621.5 -257 c 128,-1,21
 633 -215 633 -215 663 -162.5 c 128,-1,22
 693 -110 693 -110 748 -41 c 2,23,-1
 808 40 l 1,24,25
 757 14 757 14 706 -2 c 0,26,27
 635 -23 635 -23 573 -23 c 0,28,29
 427 -23 427 -23 318.5 41 c 128,-1,30
 210 105 210 105 150.5 225.5 c 128,-1,31
 91 346 91 346 91 516 c 128,-1,32
 91 686 91 686 148 814 c 128,-1,33
 205 942 205 942 310 1013 c 128,-1,34
 415 1084 415 1084 558 1084 c 0,35,36
 702 1084 702 1084 793 1020.5 c 128,-1,37
 884 957 884 957 928 832.5 c 128,-1,38
 972 708 972 708 976 527 c 1,39,-1
 294 527 l 1,40,41
 301 418 301 418 334 344 c 0,42,43
 374 253 374 253 456 209 c 128,-1,44
 538 165 538 165 661 165 c 0,45,46
 719 165 719 165 771.5 176 c 128,-1,47
 824 187 824 187 872 206 c 128,-1,48
 920 225 920 225 961 246 c 1,49,-1
 969 149 l 1,0,-1
763 664 m 1,50,51
 757 752 757 752 736 810 c 0,52,53
 711 879 711 879 664 910.5 c 128,-1,54
 617 942 617 942 549 942 c 0,55,56
 469 942 469 942 411 904 c 128,-1,57
 353 866 353 866 323 786 c 0,58,59
 303 733 303 733 296 659 c 1,60,-1
 763 664 l 1,50,51
EndSplineSet
EndChar

StartChar: Hbar
Encoding: 294 294 232
Width: 1680
GlyphClass: 1
Flags: W
LayerCount: 2
Fore
SplineSet
99 983 m 1,0,-1
 99 1111 l 1,1,-1
 274 1111 l 1,2,-1
 274 1257 l 1,3,-1
 99 1304 l 1,4,-1
 99 1396 l 1,5,-1
 671 1396 l 1,6,-1
 671 1304 l 1,7,-1
 496 1257 l 1,8,-1
 496 1111 l 1,9,-1
 1186 1111 l 1,10,-1
 1186 1257 l 1,11,-1
 1011 1304 l 1,12,-1
 1011 1396 l 1,13,-1
 1582 1396 l 1,14,-1
 1582 1304 l 1,15,-1
 1407 1257 l 1,16,-1
 1407 1111 l 1,17,-1
 1582 1111 l 1,18,-1
 1582 983 l 1,19,-1
 1407 983 l 1,20,-1
 1407 139 l 1,21,-1
 1582 92 l 1,22,-1
 1582 0 l 1,23,-1
 1011 0 l 1,24,-1
 1011 92 l 1,25,-1
 1186 139 l 1,26,-1
 1186 635 l 1,27,-1
 496 635 l 1,28,-1
 496 139 l 1,29,-1
 671 92 l 1,30,-1
 671 0 l 1,31,-1
 99 0 l 1,32,-1
 99 92 l 1,33,-1
 274 139 l 1,34,-1
 274 983 l 1,35,-1
 99 983 l 1,0,-1
1186 983 m 1,36,-1
 496 983 l 1,37,-1
 496 787 l 1,38,-1
 1186 787 l 1,39,-1
 1186 983 l 1,36,-1
EndSplineSet
EndChar

StartChar: hbar
Encoding: 295 295 233
Width: 1282
GlyphClass: 1
Flags: W
LayerCount: 2
Fore
SplineSet
31 1178 m 1,0,-1
 31 1302 l 1,1,-1
 209 1302 l 1,2,-1
 209 1361 l 1,3,4
 199 1372 199 1372 170 1385.5 c 128,-1,5
 141 1399 141 1399 106.5 1413.5 c 128,-1,6
 72 1428 72 1428 46 1440 c 1,7,-1
 46 1509 l 1,8,-1
 391 1587 l 1,9,-1
 433 1587 l 1,10,-1
 416 1366 l 1,11,-1
 416 1302 l 1,12,-1
 715 1302 l 1,13,-1
 715 1178 l 1,14,-1
 416 1178 l 1,15,-1
 416 887 l 1,16,17
 480 943 480 943 525 980 c 0,18,19
 580 1025 580 1025 620 1047 c 128,-1,20
 660 1069 660 1069 697.5 1076.5 c 128,-1,21
 735 1084 735 1084 782 1084 c 0,22,23
 939 1084 939 1084 1012 996 c 128,-1,24
 1085 908 1085 908 1085 733 c 2,25,-1
 1085 135 l 1,26,-1
 1242 90 l 1,27,-1
 1242 0 l 1,28,29
 1241 0 1241 0 733 0 c 1,30,-1
 733 90 l 1,31,-1
 879 133 l 1,32,-1
 879 679 l 2,33,34
 879 747 879 747 857.5 790.5 c 128,-1,35
 836 834 836 834 789 855 c 128,-1,36
 742 876 742 876 665 876 c 0,37,38
 596 876 596 876 526 858 c 0,39,40
 464 842 464 842 416 818 c 1,41,-1
 416 134 l 1,42,-1
 560 90 l 1,43,-1
 560 0 l 1,44,-1
 54 0 l 1,45,-1
 54 90 l 1,46,-1
 209 135 l 1,47,-1
 209 1178 l 1,48,-1
 31 1178 l 1,0,-1
EndSplineSet
EndChar

StartChar: Iogonek
Encoding: 302 302 240
Width: 764
GlyphClass: 1
Flags: W
LayerCount: 2
Fore
SplineSet
384 -85 m 2,0,1
 362 -131 362 -131 350 -164.5 c 128,-1,2
 338 -198 338 -198 334 -224 c 128,-1,3
 330 -250 330 -250 330 -274 c 0,4,5
 330 -319 330 -319 353 -342.5 c 128,-1,6
 376 -366 376 -366 417 -366 c 0,7,8
 445 -366 445 -366 470.5 -357.5 c 128,-1,9
 496 -349 496 -349 536 -321 c 1,10,-1
 543 -385 l 1,11,12
 506 -421 506 -421 476 -442 c 128,-1,13
 446 -463 446 -463 416.5 -472 c 128,-1,14
 387 -481 387 -481 350 -481 c 0,15,16
 266 -481 266 -481 226 -438 c 128,-1,17
 186 -395 186 -395 186 -324 c 0,18,19
 186 -292 186 -292 193 -259 c 128,-1,20
 200 -226 200 -226 221 -184 c 128,-1,21
 242 -142 242 -142 283 -83 c 2,22,-1
 340 0 l 1,23,-1
 97 0 l 1,24,-1
 97 92 l 1,25,-1
 272 139 l 1,26,-1
 272 1257 l 1,27,-1
 97 1304 l 1,28,-1
 97 1396 l 1,29,-1
 668 1396 l 1,30,-1
 668 1304 l 1,31,-1
 493 1257 l 1,32,-1
 493 139 l 1,33,-1
 668 92 l 1,34,-1
 668 0 l 1,35,-1
 424 0 l 1,36,-1
 384 -85 l 2,0,1
EndSplineSet
EndChar

StartChar: iogonek
Encoding: 303 303 241
Width: 653
GlyphClass: 1
Flags: W
LayerCount: 2
Fore
SplineSet
348 -95 m 2,0,1
 325 -145 325 -145 312 -180 c 128,-1,2
 299 -215 299 -215 294.5 -242.5 c 128,-1,3
 290 -270 290 -270 290 -295 c 0,4,5
 290 -344 290 -344 314 -369.5 c 128,-1,6
 338 -395 338 -395 381 -395 c 0,7,8
 410 -395 410 -395 436 -386 c 128,-1,9
 462 -377 462 -377 503 -347 c 1,10,-1
 510 -416 l 1,11,12
 454 -474 454 -474 411 -496.5 c 128,-1,13
 368 -519 368 -519 312 -519 c 0,14,15
 226 -519 226 -519 184 -473 c 128,-1,16
 142 -427 142 -427 142 -350 c 0,17,18
 142 -315 142 -315 150.5 -279.5 c 128,-1,19
 159 -244 159 -244 180.5 -199 c 128,-1,20
 202 -154 202 -154 246 -91 c 2,21,-1
 306 0 l 1,22,-1
 84 0 l 1,23,-1
 84 90 l 1,24,-1
 238 135 l 1,25,-1
 238 816 l 1,26,27
 228 825 228 825 199.5 843 c 128,-1,28
 171 861 171 861 137 881 c 128,-1,29
 103 901 103 901 72 917 c 1,30,-1
 72 978 l 1,31,-1
 404 1084 l 1,32,-1
 458 1084 l 1,33,-1
 446 846 l 1,34,-1
 446 135 l 1,35,-1
 595 90 l 1,36,-1
 595 0 l 1,37,-1
 393 0 l 1,38,-1
 348 -95 l 2,0,1
326 1293 m 128,-1,40
 255 1293 255 1293 212 1330.5 c 128,-1,41
 169 1368 169 1368 169 1440 c 0,42,43
 169 1511 169 1511 212 1549 c 128,-1,44
 255 1587 255 1587 326 1587 c 128,-1,45
 397 1587 397 1587 440 1549 c 128,-1,46
 483 1511 483 1511 483 1440 c 128,-1,47
 483 1369 483 1369 440 1331 c 128,-1,39
 397 1293 397 1293 326 1293 c 128,-1,40
EndSplineSet
EndChar

StartChar: dotlessi
Encoding: 305 305 243
Width: 653
GlyphClass: 2
Flags: W
AnchorPoint: "Anchor-4" 341 0 basechar 0
AnchorPoint: "Anchor-3" 457 0 basechar 0
AnchorPoint: "Anchor-0" 313 1062 basechar 0
LayerCount: 2
Fore
SplineSet
458 1084 m 1,0,-1
 446 846 l 1,1,-1
 446 135 l 1,2,-1
 595 90 l 1,3,-1
 595 0 l 1,4,-1
 84 0 l 1,5,-1
 84 90 l 1,6,-1
 238 135 l 1,7,-1
 238 816 l 1,8,9
 228 825 228 825 199.5 843 c 128,-1,10
 171 861 171 861 137 881 c 128,-1,11
 103 901 103 901 72 917 c 1,12,-1
 72 978 l 1,13,-1
 404 1084 l 1,14,-1
 458 1084 l 1,0,-1
EndSplineSet
Substitution2: "'case' Case-Sensitive Forms in Latin lookup 8 subtable" I
EndChar

StartChar: kgreenlandic
Encoding: 312 312 248
Width: 1278
GlyphClass: 1
Flags: W
LayerCount: 2
Fore
SplineSet
456 1084 m 1,0,-1
 444 846 l 1,1,-1
 444 633 l 1,2,-1
 613 633 l 1,3,-1
 868 934 l 1,4,-1
 727 975 l 1,5,-1
 727 1062 l 1,6,-1
 1197 1062 l 1,7,-1
 1197 975 l 1,8,-1
 1059 935 l 1,9,-1
 742 609 l 1,10,-1
 1138 139 l 1,11,-1
 1265 89 l 1,12,-1
 1265 0 l 1,13,-1
 865 0 l 1,14,-1
 865 89 l 1,15,-1
 892 123 l 1,16,-1
 583 484 l 1,17,-1
 444 484 l 1,18,-1
 444 135 l 1,19,-1
 593 90 l 1,20,-1
 593 0 l 1,21,-1
 81 0 l 1,22,-1
 81 90 l 1,23,-1
 237 135 l 1,24,-1
 237 816 l 1,25,26
 227 825 227 825 198 843 c 128,-1,27
 169 861 169 861 135 881 c 128,-1,28
 101 901 101 901 70 917 c 1,29,-1
 70 978 l 1,30,-1
 402 1084 l 1,31,-1
 456 1084 l 1,0,-1
EndSplineSet
EndChar

StartChar: Lslash
Encoding: 321 321 257
Width: 1314
GlyphClass: 1
Flags: W
LayerCount: 2
Fore
SplineSet
1186 -72 m 1,0,-1
 1087 -72 l 1,1,-1
 1023 0 l 1,2,-1
 522 0 l 1,3,-1
 398 0 l 1,4,-1
 125 0 l 1,5,-1
 125 92 l 1,6,-1
 300 139 l 1,7,-1
 300 553 l 1,8,-1
 114 446 l 1,9,-1
 114 586 l 1,10,-1
 300 693 l 1,11,-1
 300 1257 l 1,12,-1
 125 1304 l 1,13,-1
 125 1396 l 1,14,-1
 696 1396 l 1,15,-1
 696 1304 l 1,16,-1
 522 1257 l 1,17,-1
 522 798 l 1,18,-1
 838 978 l 1,19,-1
 838 838 l 1,20,-1
 522 658 l 1,21,-1
 522 152 l 1,22,-1
 1014 152 l 1,23,-1
 1154 480 l 1,24,-1
 1265 477 l 1,25,-1
 1186 -72 l 1,0,-1
EndSplineSet
EndChar

StartChar: lslash
Encoding: 322 322 258
Width: 730
GlyphClass: 1
Flags: W
LayerCount: 2
Fore
SplineSet
472 135 m 1,0,-1
 622 90 l 1,1,-1
 622 0 l 1,2,-1
 110 0 l 1,3,-1
 110 90 l 1,4,-1
 266 135 l 1,5,-1
 266 597 l 1,6,-1
 86 449 l 1,7,-1
 86 603 l 1,8,-1
 266 751 l 1,9,-1
 266 1335 l 1,10,11
 254 1344 254 1344 222 1359.5 c 128,-1,12
 190 1375 190 1375 149 1393.5 c 128,-1,13
 108 1412 108 1412 70 1429 c 1,14,-1
 70 1503 l 1,15,-1
 448 1587 l 1,16,-1
 490 1587 l 1,17,-1
 472 1366 l 1,18,-1
 472 887 l 1,19,-1
 665 1047 l 1,20,-1
 665 893 l 1,21,-1
 472 734 l 1,22,-1
 472 135 l 1,0,-1
EndSplineSet
EndChar

StartChar: Eng
Encoding: 330 330 265
Width: 1613
GlyphClass: 1
Flags: W
LayerCount: 2
Fore
SplineSet
1362 -84 m 2,0,1
 1362 -222 1362 -222 1320 -310 c 128,-1,2
 1278 -398 1278 -398 1196.5 -439.5 c 128,-1,3
 1115 -481 1115 -481 996 -481 c 0,4,5
 867 -481 867 -481 812.5 -440.5 c 128,-1,6
 758 -400 758 -400 758 -341 c 0,7,8
 758 -300 758 -300 781.5 -268 c 128,-1,9
 805 -236 805 -236 842 -236 c 0,10,11
 854 -236 854 -236 873 -249 c 128,-1,12
 892 -262 892 -262 916 -279 c 128,-1,13
 940 -296 940 -296 968.5 -309 c 128,-1,14
 997 -322 997 -322 1026 -322 c 0,15,16
 1087 -322 1087 -322 1127.5 -301 c 128,-1,17
 1168 -280 1168 -280 1188.5 -228.5 c 128,-1,18
 1209 -177 1209 -177 1209 -86 c 2,19,-1
 1209 -20 l 1,20,-1
 424 1201 l 1,21,-1
 424 139 l 1,22,-1
 608 92 l 1,23,-1
 608 0 l 1,24,-1
 102 0 l 1,25,-1
 102 92 l 1,26,-1
 271 139 l 1,27,-1
 271 1251 l 1,28,-1
 99 1304 l 1,29,-1
 99 1396 l 1,30,-1
 560 1396 l 1,31,-1
 1209 385 l 1,32,-1
 1209 1257 l 1,33,-1
 1025 1304 l 1,34,-1
 1025 1396 l 1,35,-1
 1532 1396 l 1,36,-1
 1532 1304 l 1,37,-1
 1362 1257 l 1,38,-1
 1362 -84 l 2,0,1
EndSplineSet
EndChar

StartChar: eng
Encoding: 331 331 266
Width: 1261
GlyphClass: 1
Flags: W
LayerCount: 2
Fore
SplineSet
906 -40 m 2,0,-1
 906 679 l 2,1,2
 906 747 906 747 884.5 790.5 c 128,-1,3
 863 834 863 834 816 855 c 128,-1,4
 769 876 769 876 692 876 c 0,5,6
 624 876 624 876 554 858 c 0,7,8
 491 842 491 842 443 818 c 1,9,-1
 443 133 l 1,10,-1
 587 90 l 1,11,-1
 587 0 l 1,12,-1
 81 0 l 1,13,-1
 81 90 l 1,14,-1
 237 135 l 1,15,-1
 237 798 l 1,16,17
 220 812 220 812 178 841 c 128,-1,18
 136 870 136 870 69 913 c 1,19,-1
 69 958 l 1,20,21
 70 958 70 958 352 1088 c 1,22,-1
 389 1088 l 1,23,-1
 437 882 l 1,24,25
 505 942 505 942 552 980 c 0,26,27
 607 1025 607 1025 647 1047 c 128,-1,28
 687 1069 687 1069 724.5 1076.5 c 128,-1,29
 762 1084 762 1084 808 1084 c 0,30,31
 966 1084 966 1084 1039 996 c 128,-1,32
 1112 908 1112 908 1112 733 c 2,33,-1
 1112 11 l 2,34,35
 1112 -54 1112 -54 1105 -103 c 128,-1,36
 1098 -152 1098 -152 1078 -195.5 c 128,-1,37
 1058 -239 1058 -239 1019 -284.5 c 128,-1,38
 980 -330 980 -330 916.5 -386.5 c 128,-1,39
 853 -443 853 -443 759 -519 c 1,40,-1
 686 -424 l 1,41,42
 764 -334 764 -334 808.5 -280 c 128,-1,43
 853 -226 853 -226 874 -188.5 c 128,-1,44
 895 -151 895 -151 900.5 -118 c 128,-1,45
 906 -85 906 -85 906 -40 c 2,0,-1
EndSplineSet
EndChar

StartChar: OE
Encoding: 338 338 273
Width: 2174
GlyphClass: 1
Flags: W
LayerCount: 2
Fore
SplineSet
828 0 m 2,0,1
 590 0 590 0 429.5 76.5 c 128,-1,2
 269 153 269 153 187.5 302.5 c 128,-1,3
 106 452 106 452 106 670 c 0,4,5
 106 848 106 848 159 983 c 128,-1,6
 212 1118 212 1118 309 1210 c 128,-1,7
 406 1302 406 1302 539.5 1349 c 128,-1,8
 673 1396 673 1396 834 1396 c 2,9,-1
 1071 1396 l 1,10,-1
 1293 1396 l 1,11,-1
 1863 1396 l 1,12,-1
 1948 1463 l 1,13,-1
 2034 1463 l 1,14,-1
 2050 1015 l 1,15,-1
 1934 1012 l 1,16,-1
 1855 1246 l 1,17,-1
 1293 1246 l 1,18,-1
 1293 802 l 1,19,-1
 1633 802 l 1,20,-1
 1650 984 l 1,21,-1
 1766 984 l 1,22,-1
 1766 727 l 1,23,-1
 1766 470 l 1,24,-1
 1650 470 l 1,25,-1
 1633 655 l 1,26,-1
 1293 655 l 1,27,-1
 1293 149 l 1,28,-1
 1860 149 l 1,29,-1
 1984 429 l 1,30,-1
 2095 426 l 1,31,-1
 2022 -72 l 1,32,-1
 1924 -72 l 1,33,-1
 1862 0 l 1,34,-1
 1293 0 l 1,35,-1
 1071 0 l 1,36,-1
 828 0 l 2,0,1
1071 1246 m 1,37,-1
 847 1246 l 2,38,39
 685 1246 685 1246 571.5 1188 c 128,-1,40
 458 1130 458 1130 397.5 1005 c 128,-1,41
 337 880 337 880 337 680 c 0,42,43
 337 499 337 499 398.5 381.5 c 128,-1,44
 460 264 460 264 582.5 206.5 c 128,-1,45
 705 149 705 149 889 149 c 2,46,-1
 1071 149 l 1,47,-1
 1071 1246 l 1,37,-1
EndSplineSet
EndChar

StartChar: oe
Encoding: 339 339 274
Width: 1864
GlyphClass: 2
Flags: W
AnchorPoint: "Anchor-4" 944 0 basechar 0
AnchorPoint: "Anchor-0" 944 1062 basechar 0
LayerCount: 2
Fore
SplineSet
586 131 m 0,0,1
 681 131 681 131 747 170.5 c 128,-1,2
 813 210 813 210 847 292.5 c 128,-1,3
 881 375 881 375 881 504 c 0,4,5
 881 647 881 647 850 741.5 c 128,-1,6
 819 836 819 836 756.5 883.5 c 128,-1,7
 694 931 694 931 599 931 c 128,-1,8
 504 931 504 931 438.5 892 c 128,-1,9
 373 853 373 853 339 770 c 128,-1,10
 305 687 305 687 305 557 c 0,11,12
 305 416 305 416 336 321 c 128,-1,13
 367 226 367 226 429.5 178.5 c 128,-1,14
 492 131 492 131 586 131 c 0,0,1
1562 664 m 1,15,16
 1556 752 1556 752 1534 810 c 0,17,18
 1508 879 1508 879 1461 910.5 c 128,-1,19
 1414 942 1414 942 1347 942 c 0,20,21
 1266 942 1266 942 1208.5 904 c 128,-1,22
 1151 866 1151 866 1121 786 c 0,23,24
 1101 733 1101 733 1094 659 c 1,25,-1
 1562 664 l 1,15,16
1092 527 m 1,26,27
 1099 418 1099 418 1132 344 c 0,28,29
 1173 253 1173 253 1255 209 c 128,-1,30
 1337 165 1337 165 1459 165 c 0,31,32
 1518 165 1518 165 1570.5 176 c 128,-1,33
 1623 187 1623 187 1670.5 206 c 128,-1,34
 1718 225 1718 225 1760 246 c 1,35,-1
 1767 149 l 1,36,37
 1702 95 1702 95 1634 56 c 128,-1,38
 1566 17 1566 17 1499 -3 c 128,-1,39
 1432 -23 1432 -23 1370 -23 c 0,40,41
 1209 -23 1209 -23 1104 58 c 0,42,43
 1035 110 1035 110 986 185 c 1,44,45
 935 112 935 112 863 60 c 0,46,47
 751 -23 751 -23 584 -23 c 0,48,49
 431 -23 431 -23 320.5 45 c 128,-1,50
 210 113 210 113 150.5 237.5 c 128,-1,51
 91 362 91 362 91 527 c 0,52,53
 91 695 91 695 154 820.5 c 128,-1,54
 217 946 217 946 331.5 1015 c 128,-1,55
 446 1084 446 1084 601 1084 c 0,56,57
 760 1084 760 1084 868 1007 c 0,58,59
 940 956 940 956 990 883 c 1,60,61
 1038 956 1038 956 1107 1007 c 0,62,63
 1211 1084 1211 1084 1357 1084 c 0,64,65
 1501 1084 1501 1084 1591.5 1020.5 c 128,-1,66
 1682 957 1682 957 1726 832.5 c 128,-1,67
 1770 708 1770 708 1774 527 c 1,68,-1
 1092 527 l 1,26,27
EndSplineSet
EndChar

StartChar: Scedilla
Encoding: 350 350 285
Width: 1210
GlyphClass: 1
Flags: W
LayerCount: 2
Fore
SplineSet
526 -481 m 0,0,1
 440 -481 440 -481 408 -458 c 128,-1,2
 376 -435 376 -435 376 -396 c 0,3,4
 376 -367 376 -367 393.5 -350.5 c 128,-1,5
 411 -334 411 -334 430 -334 c 0,6,7
 443 -334 443 -334 461 -351 c 128,-1,8
 479 -368 479 -368 502.5 -384.5 c 128,-1,9
 526 -401 526 -401 557 -401 c 0,10,11
 605 -401 605 -401 628.5 -381.5 c 128,-1,12
 652 -362 652 -362 652 -325 c 0,13,14
 652 -299 652 -299 636 -280.5 c 128,-1,15
 620 -262 620 -262 575 -247 c 128,-1,16
 530 -232 530 -232 442 -218 c 1,17,-1
 442 -196 l 1,18,-1
 570 -21 l 1,19,20
 556 -21 556 -21 543 -21 c 0,21,22
 433 -21 433 -21 345.5 -10.5 c 128,-1,23
 258 0 258 0 168 33 c 1,24,-1
 106 431 l 1,25,-1
 233 431 l 1,26,-1
 369 142 l 1,27,28
 440 124 440 124 535 124 c 0,29,30
 655 124 655 124 733.5 148 c 128,-1,31
 812 172 812 172 850 225 c 128,-1,32
 888 278 888 278 888 364 c 0,33,34
 888 437 888 437 855.5 482.5 c 128,-1,35
 823 528 823 528 767.5 555 c 128,-1,36
 712 582 712 582 644.5 600 c 128,-1,37
 577 618 577 618 505 636 c 0,38,39
 436 655 436 655 369.5 680.5 c 128,-1,40
 303 706 303 706 250 748.5 c 128,-1,41
 197 791 197 791 165.5 859 c 128,-1,42
 134 927 134 927 134 1030 c 0,43,44
 134 1157 134 1157 193 1243 c 128,-1,45
 252 1329 252 1329 364 1373 c 128,-1,46
 476 1417 476 1417 635 1417 c 0,47,48
 734 1417 734 1417 818 1397 c 0,49,50
 844 1391 844 1391 871 1382 c 1,51,-1
 942 1465 l 1,52,-1
 1036 1465 l 1,53,-1
 1051 978 l 1,54,-1
 924 975 l 1,55,-1
 836 1228 l 1,56,57
 799 1248 799 1248 760 1258 c 0,58,59
 698 1275 698 1275 623 1275 c 0,60,61
 489 1275 489 1275 413 1227.5 c 128,-1,62
 337 1180 337 1180 337 1072 c 0,63,64
 337 1007 337 1007 364.5 966 c 128,-1,65
 392 925 392 925 440 899 c 128,-1,66
 488 873 488 873 551 856 c 128,-1,67
 614 839 614 839 684 822 c 128,-1,68
 754 805 754 805 827 781.5 c 128,-1,69
 900 758 900 758 961 715 c 128,-1,70
 1022 672 1022 672 1059.5 597.5 c 128,-1,71
 1097 523 1097 523 1097 406 c 0,72,73
 1097 257 1097 257 1030 162.5 c 128,-1,74
 963 68 963 68 840 24 c 0,75,76
 765 -3 765 -3 673 -14 c 1,77,-1
 599 -113 l 1,78,79
 656 -128 656 -128 692 -147 c 0,80,81
 744 -175 744 -175 763 -210 c 128,-1,82
 782 -245 782 -245 782 -287 c 0,83,84
 782 -350 782 -350 749 -393.5 c 128,-1,85
 716 -437 716 -437 658.5 -459 c 128,-1,86
 601 -481 601 -481 526 -481 c 0,0,1
EndSplineSet
Substitution2: "'locl' Localized Forms in Latin lookup 1 subtable" uni0218
Substitution2: "'locl' Localized Forms in Latin lookup 0 subtable" uni0218
EndChar

StartChar: scedilla
Encoding: 351 351 286
Width: 973
GlyphClass: 1
Flags: W
LayerCount: 2
Fore
SplineSet
411 -519 m 0,0,1
 323 -519 323 -519 289.5 -494.5 c 128,-1,2
 256 -470 256 -470 256 -428 c 0,3,4
 256 -397 256 -397 274.5 -379 c 128,-1,5
 293 -361 293 -361 313 -361 c 0,6,7
 326 -361 326 -361 344 -379 c 128,-1,8
 362 -397 362 -397 386.5 -415 c 128,-1,9
 411 -433 411 -433 443 -433 c 0,10,11
 493 -433 493 -433 517 -412 c 128,-1,12
 541 -391 541 -391 541 -351 c 0,13,14
 541 -323 541 -323 524.5 -303 c 128,-1,15
 508 -283 508 -283 461.5 -267 c 128,-1,16
 415 -251 415 -251 324 -235 c 1,17,-1
 324 -212 l 1,18,-1
 458 -19 l 1,19,20
 447 -19 447 -19 435 -19 c 0,21,22
 359 -19 359 -19 276 -6.5 c 128,-1,23
 193 6 193 6 135 30 c 1,24,-1
 92 334 l 1,25,-1
 208 334 l 1,26,-1
 299 121 l 1,27,28
 327 116 327 116 356 114 c 0,29,30
 394 111 394 111 428 111 c 0,31,32
 562 111 562 111 627.5 152.5 c 128,-1,33
 693 194 693 194 693 279 c 0,34,35
 693 337 693 337 665.5 370 c 128,-1,36
 638 403 638 403 591.5 420 c 128,-1,37
 545 437 545 437 488.5 447.5 c 128,-1,38
 432 458 432 458 374 472 c 0,39,40
 299 490 299 490 240 522.5 c 128,-1,41
 181 555 181 555 148 615 c 128,-1,42
 115 675 115 675 115 775 c 128,-1,43
 115 875 115 875 165.5 944 c 128,-1,44
 216 1013 216 1013 309 1048.5 c 128,-1,45
 402 1084 402 1084 530 1084 c 0,46,47
 602 1084 602 1084 667.5 1072.5 c 128,-1,48
 733 1061 733 1061 813 1032 c 1,49,-1
 839 752 l 1,50,-1
 725 752 l 1,51,-1
 647 939 l 1,52,53
 636 942 636 942 625 944 c 0,54,55
 565 958 565 958 517 958 c 0,56,57
 409 958 409 958 354 922.5 c 128,-1,58
 299 887 299 887 299 820 c 0,59,60
 299 755 299 755 334.5 721 c 128,-1,61
 370 687 370 687 430.5 670 c 128,-1,62
 491 653 491 653 568 637 c 0,63,64
 626 626 626 626 682 608 c 128,-1,65
 738 590 738 590 782.5 557 c 128,-1,66
 827 524 827 524 854.5 467 c 128,-1,67
 882 410 882 410 882 322 c 0,68,69
 882 211 882 211 831 134.5 c 128,-1,70
 780 58 780 58 681 20 c 0,71,72
 630 -1 630 -1 565 -10 c 1,73,-1
 486 -123 l 1,74,75
 545 -139 545 -139 581 -159 c 0,76,77
 635 -189 635 -189 654.5 -227 c 128,-1,78
 674 -265 674 -265 674 -310 c 0,79,80
 674 -378 674 -378 640.5 -425 c 128,-1,81
 607 -472 607 -472 547.5 -495.5 c 128,-1,82
 488 -519 488 -519 411 -519 c 0,0,1
EndSplineSet
Substitution2: "'locl' Localized Forms in Latin lookup 1 subtable" uni0219
Substitution2: "'locl' Localized Forms in Latin lookup 0 subtable" uni0219
EndChar

StartChar: uni0162
Encoding: 354 354 289
Width: 1429
GlyphClass: 1
Flags: W
LayerCount: 2
Fore
SplineSet
631 -481 m 0,0,1
 545 -481 545 -481 513.5 -458 c 128,-1,2
 482 -435 482 -435 482 -396 c 0,3,4
 482 -367 482 -367 499.5 -350.5 c 128,-1,5
 517 -334 517 -334 536 -334 c 0,6,7
 548 -334 548 -334 566 -351 c 128,-1,8
 584 -368 584 -368 608 -384.5 c 128,-1,9
 632 -401 632 -401 662 -401 c 0,10,11
 710 -401 710 -401 733.5 -381.5 c 128,-1,12
 757 -362 757 -362 757 -325 c 0,13,14
 757 -299 757 -299 741.5 -280.5 c 128,-1,15
 726 -262 726 -262 681 -247 c 128,-1,16
 636 -232 636 -232 546 -218 c 1,17,-1
 546 -196 l 1,18,-1
 690 0 l 1,19,-1
 416 0 l 1,20,-1
 416 92 l 1,21,-1
 603 139 l 1,22,-1
 603 1244 l 1,23,-1
 284 1244 l 1,24,-1
 175 949 l 1,25,-1
 52 951 l 1,26,-1
 116 1481 l 1,27,-1
 203 1481 l 1,28,-1
 277 1396 l 1,29,-1
 1152 1396 l 1,30,31
 1176 1423 1176 1423 1226 1481 c 1,32,-1
 1313 1481 l 1,33,-1
 1377 951 l 1,34,-1
 1255 949 l 1,35,-1
 1146 1244 l 1,36,-1
 826 1244 l 1,37,-1
 826 139 l 1,38,-1
 1013 92 l 1,39,-1
 1013 0 l 1,40,-1
 788 0 l 1,41,-1
 704 -113 l 1,42,43
 761 -128 761 -128 796 -147 c 0,44,45
 848 -175 848 -175 867 -210 c 128,-1,46
 886 -245 886 -245 886 -287 c 0,47,48
 886 -350 886 -350 854 -393.5 c 128,-1,49
 822 -437 822 -437 764 -459 c 128,-1,50
 706 -481 706 -481 631 -481 c 0,0,1
EndSplineSet
EndChar

StartChar: uni0163
Encoding: 355 355 290
Width: 828
GlyphClass: 1
Flags: W
LayerCount: 2
Fore
SplineSet
423 -519 m 0,0,1
 335 -519 335 -519 301.5 -494.5 c 128,-1,2
 268 -470 268 -470 268 -428 c 0,3,4
 268 -397 268 -397 286.5 -379 c 128,-1,5
 305 -361 305 -361 325 -361 c 0,6,7
 337 -361 337 -361 355.5 -379 c 128,-1,8
 374 -397 374 -397 399 -415 c 128,-1,9
 424 -433 424 -433 454 -433 c 0,10,11
 504 -433 504 -433 528 -412 c 128,-1,12
 552 -391 552 -391 552 -351 c 0,13,14
 552 -323 552 -323 536.5 -303 c 128,-1,15
 521 -283 521 -283 474.5 -267 c 128,-1,16
 428 -251 428 -251 335 -235 c 1,17,-1
 335 -212 l 1,18,-1
 467 -22 l 1,19,20
 394 -22 394 -22 334 6 c 0,21,22
 274 35 274 35 240 92 c 128,-1,23
 206 149 206 149 206 234 c 2,24,-1
 206 887 l 1,25,-1
 37 961 l 1,26,-1
 37 1024 l 1,27,28
 85 1043 85 1043 123.5 1062.5 c 128,-1,29
 162 1082 162 1082 192 1103.5 c 128,-1,30
 222 1125 222 1125 247.5 1149.5 c 128,-1,31
 273 1174 273 1174 296 1203.5 c 128,-1,32
 319 1233 319 1233 341 1269 c 1,33,-1
 412 1269 l 1,34,-1
 412 1062 l 1,35,-1
 768 1062 l 1,36,-1
 763 902 l 1,37,-1
 412 902 l 1,38,-1
 412 325 l 2,39,40
 412 235 412 235 456.5 198.5 c 128,-1,41
 501 162 501 162 596 162 c 0,42,43
 637 162 637 162 686 170.5 c 128,-1,44
 735 179 735 179 789 195 c 1,45,-1
 789 107 l 1,46,47
 712 58 712 58 655 30 c 0,48,49
 617 10 617 10 585 -1 c 1,50,-1
 498 -123 l 1,51,52
 556 -139 556 -139 592 -159 c 0,53,54
 647 -189 647 -189 666.5 -227 c 128,-1,55
 686 -265 686 -265 686 -310 c 0,56,57
 686 -378 686 -378 652 -425 c 128,-1,58
 618 -472 618 -472 559 -495.5 c 128,-1,59
 500 -519 500 -519 423 -519 c 0,0,1
EndSplineSet
EndChar

StartChar: Tbar
Encoding: 358 358 293
Width: 1429
GlyphClass: 1
Flags: W
LayerCount: 2
Fore
SplineSet
332 641 m 1,0,-1
 332 770 l 1,1,-1
 604 770 l 1,2,-1
 604 1244 l 1,3,-1
 284 1244 l 1,4,-1
 175 949 l 1,5,-1
 53 951 l 1,6,-1
 117 1481 l 1,7,-1
 204 1481 l 1,8,-1
 277 1396 l 1,9,-1
 1152 1396 l 1,10,-1
 1226 1481 l 1,11,-1
 1314 1481 l 1,12,-1
 1378 951 l 1,13,-1
 1255 949 l 1,14,-1
 1146 1244 l 1,15,-1
 826 1244 l 1,16,-1
 826 770 l 1,17,-1
 1097 770 l 1,18,-1
 1097 641 l 1,19,-1
 826 641 l 1,20,-1
 826 139 l 1,21,-1
 1014 92 l 1,22,-1
 1014 0 l 1,23,-1
 417 0 l 1,24,-1
 417 92 l 1,25,-1
 604 139 l 1,26,-1
 604 641 l 1,27,-1
 332 641 l 1,0,-1
EndSplineSet
EndChar

StartChar: tbar
Encoding: 359 359 294
Width: 842
GlyphClass: 1
Flags: W
LayerCount: 2
Fore
SplineSet
426 325 m 2,0,1
 426 235 426 235 470.5 198.5 c 128,-1,2
 515 162 515 162 609 162 c 0,3,4
 651 162 651 162 699.5 170.5 c 128,-1,5
 748 179 748 179 804 195 c 1,6,-1
 804 107 l 1,7,8
 727 58 727 58 669.5 29.5 c 128,-1,9
 612 1 612 1 567 -10.5 c 128,-1,10
 522 -22 522 -22 483 -22 c 0,11,12
 408 -22 408 -22 348 6.5 c 128,-1,13
 288 35 288 35 253.5 92 c 128,-1,14
 219 149 219 149 219 234 c 2,15,-1
 219 510 l 1,16,-1
 61 510 l 1,17,-1
 61 633 l 1,18,-1
 219 633 l 1,19,-1
 219 887 l 1,20,-1
 51 961 l 1,21,-1
 51 1024 l 1,22,23
 99 1043 99 1043 136.5 1062.5 c 128,-1,24
 174 1082 174 1082 205 1103.5 c 128,-1,25
 236 1125 236 1125 261.5 1149.5 c 128,-1,26
 287 1174 287 1174 309.5 1203.5 c 128,-1,27
 332 1233 332 1233 355 1269 c 1,28,-1
 426 1269 l 1,29,-1
 426 1062 l 1,30,-1
 781 1062 l 1,31,-1
 777 902 l 1,32,-1
 426 902 l 1,33,-1
 426 633 l 1,34,-1
 721 633 l 1,35,-1
 721 510 l 1,36,-1
 426 510 l 1,37,-1
 426 325 l 2,0,1
EndSplineSet
EndChar

StartChar: Uogonek
Encoding: 370 370 305
Width: 1590
GlyphClass: 1
Flags: W
LayerCount: 2
Fore
SplineSet
853 -89 m 2,0,1
 831 -135 831 -135 819 -167.5 c 128,-1,2
 807 -200 807 -200 801.5 -225 c 128,-1,3
 796 -250 796 -250 796 -274 c 0,4,5
 796 -319 796 -319 820 -342.5 c 128,-1,6
 844 -366 844 -366 884 -366 c 0,7,8
 912 -366 912 -366 937 -357.5 c 128,-1,9
 962 -349 962 -349 1002 -321 c 1,10,-1
 1010 -385 l 1,11,12
 974 -421 974 -421 943.5 -442 c 128,-1,13
 913 -463 913 -463 883 -472 c 128,-1,14
 853 -481 853 -481 816 -481 c 0,15,16
 732 -481 732 -481 692.5 -438 c 128,-1,17
 653 -395 653 -395 653 -324 c 0,18,19
 653 -292 653 -292 661 -260 c 128,-1,20
 669 -228 669 -228 690.5 -186.5 c 128,-1,21
 712 -145 712 -145 754 -85 c 2,22,-1
 798 -21 l 1,23,24
 617 -19 617 -19 494 38 c 0,25,26
 366 97 366 97 301 219.5 c 128,-1,27
 236 342 236 342 236 528 c 2,28,-1
 236 1257 l 1,29,-1
 61 1304 l 1,30,-1
 61 1396 l 1,31,-1
 632 1396 l 1,32,-1
 632 1304 l 1,33,-1
 457 1257 l 1,34,-1
 457 529 l 2,35,36
 457 401 457 401 499 318.5 c 128,-1,37
 541 236 541 236 625 197 c 128,-1,38
 709 158 709 158 835 158 c 0,39,40
 956 158 956 158 1037 195 c 128,-1,41
 1118 232 1118 232 1159.5 309.5 c 128,-1,42
 1201 387 1201 387 1201 509 c 2,43,-1
 1201 1257 l 1,44,-1
 1026 1304 l 1,45,-1
 1026 1396 l 1,46,-1
 1529 1396 l 1,47,-1
 1529 1304 l 1,48,-1
 1354 1257 l 1,49,-1
 1354 518 l 2,50,51
 1354 341 1354 341 1290.5 221 c 128,-1,52
 1227 101 1227 101 1106 40 c 0,53,54
 1013 -7 1013 -7 887 -18 c 1,55,-1
 853 -89 l 2,0,1
EndSplineSet
EndChar

StartChar: uogonek
Encoding: 371 371 306
Width: 1242
GlyphClass: 1
Flags: W
LayerCount: 2
Fore
SplineSet
920 -95 m 2,0,1
 894 -144 894 -144 881 -179 c 128,-1,2
 868 -214 868 -214 863.5 -242 c 128,-1,3
 859 -270 859 -270 859 -296 c 0,4,5
 859 -345 859 -345 883.5 -370 c 128,-1,6
 908 -395 908 -395 950 -395 c 0,7,8
 979 -395 979 -395 1005.5 -386 c 128,-1,9
 1032 -377 1032 -377 1073 -347 c 1,10,-1
 1079 -416 l 1,11,12
 1042 -455 1042 -455 1011 -477.5 c 128,-1,13
 980 -500 980 -500 949 -509.5 c 128,-1,14
 918 -519 918 -519 881 -519 c 0,15,16
 795 -519 795 -519 753.5 -473 c 128,-1,17
 712 -427 712 -427 712 -350 c 0,18,19
 712 -315 712 -315 719.5 -280.5 c 128,-1,20
 727 -246 727 -246 750.5 -202 c 128,-1,21
 774 -158 774 -158 819 -94 c 2,22,-1
 882 -4 l 1,23,-1
 831 162 l 1,24,25
 772 110 772 110 730 76 c 0,26,27
 678 33 678 33 639.5 11.5 c 128,-1,28
 601 -10 601 -10 566.5 -16.5 c 128,-1,29
 532 -23 532 -23 488 -23 c 0,30,31
 338 -23 338 -23 268.5 61.5 c 128,-1,32
 199 146 199 146 199 310 c 2,33,-1
 199 895 l 1,34,-1
 32 970 l 1,35,-1
 32 1059 l 1,36,-1
 424 1074 l 1,37,-1
 405 916 l 1,38,-1
 405 367 l 2,39,40
 405 302 405 302 424.5 262 c 128,-1,41
 444 222 444 222 487 204 c 128,-1,42
 530 186 530 186 602 186 c 0,43,44
 664 186 664 186 728 202 c 0,45,46
 782 217 782 217 826 237 c 1,47,-1
 826 900 l 1,48,-1
 677 971 l 1,49,-1
 677 1062 l 1,50,-1
 1050 1074 l 1,51,-1
 1035 915 l 1,52,-1
 1035 239 l 1,53,54
 1044 233 1044 233 1064 220 c 128,-1,55
 1084 207 1084 207 1109.5 192.5 c 128,-1,56
 1135 178 1135 178 1159 165 c 128,-1,57
 1183 152 1183 152 1199 145 c 1,58,-1
 1199 98 l 1,59,-1
 969 -2 l 1,60,-1
 920 -95 l 2,0,1
EndSplineSet
EndChar

StartChar: uni018F
Encoding: 399 399 318
Width: 1423
GlyphClass: 1
Flags: W
LayerCount: 2
Fore
SplineSet
1090 694 m 1,0,1
 1083 859 1083 859 1034 968 c 0,2,3
 978 1097 978 1097 863.5 1157.5 c 128,-1,4
 749 1218 749 1218 575 1218 c 0,5,6
 488 1218 488 1218 409.5 1203 c 128,-1,7
 331 1188 331 1188 261.5 1163.5 c 128,-1,8
 192 1139 192 1139 128 1108 c 1,9,-1
 117 1219 l 1,10,11
 208 1286 208 1286 302.5 1329.5 c 128,-1,12
 397 1373 397 1373 489.5 1395 c 128,-1,13
 582 1417 582 1417 666 1417 c 0,14,15
 866 1417 866 1417 1011.5 1334 c 128,-1,16
 1157 1251 1157 1251 1237 1094.5 c 128,-1,17
 1317 938 1317 938 1317 717 c 0,18,19
 1317 552 1317 552 1272 416.5 c 128,-1,20
 1227 281 1227 281 1143 183 c 128,-1,21
 1059 85 1059 85 941.5 32 c 128,-1,22
 824 -21 824 -21 678 -21 c 0,23,24
 478 -21 478 -21 354 60.5 c 128,-1,25
 230 142 230 142 170 302 c 128,-1,26
 110 462 110 462 104 694 c 1,27,-1
 1090 694 l 1,0,1
1087 542 m 1,28,-1
 343 542 l 1,29,30
 352 417 352 417 386 334 c 0,31,32
 428 232 428 232 503.5 185.5 c 128,-1,33
 579 139 579 139 684 139 c 0,34,35
 778 139 778 139 853 168.5 c 128,-1,36
 928 198 928 198 981.5 259 c 128,-1,37
 1035 320 1035 320 1063 414 c 0,38,39
 1080 471 1080 471 1087 542 c 1,28,-1
EndSplineSet
EndChar

StartChar: Ohorn
Encoding: 416 416 320
Width: 1584
GlyphClass: 2
Flags: W
AnchorPoint: "Anchor-4" 788 0 basechar 0
LayerCount: 2
Fore
SplineSet
790 1417 m 0,0,1
 858 1417 858 1417 911 1410.5 c 128,-1,2
 964 1404 964 1404 1013 1397.5 c 128,-1,3
 1062 1391 1062 1391 1114 1391 c 0,4,5
 1201 1391 1201 1391 1238.5 1419.5 c 128,-1,6
 1276 1448 1276 1448 1276 1493 c 0,7,8
 1276 1523 1276 1523 1267.5 1545.5 c 128,-1,9
 1259 1568 1259 1568 1250 1583.5 c 128,-1,10
 1241 1599 1241 1599 1241 1608 c 0,11,12
 1241 1638 1241 1638 1269.5 1658.5 c 128,-1,13
 1298 1679 1298 1679 1335 1679 c 0,14,15
 1383 1679 1383 1679 1416.5 1648.5 c 128,-1,16
 1450 1618 1450 1618 1450 1547 c 0,17,18
 1450 1434 1450 1434 1380 1370 c 0,19,20
 1315 1310 1315 1310 1184 1304 c 1,21,22
 1271 1247 1271 1247 1333 1162 c 0,23,24
 1402 1068 1402 1068 1437.5 950 c 128,-1,25
 1473 832 1473 832 1473 700 c 0,26,27
 1473 540 1473 540 1425 407.5 c 128,-1,28
 1377 275 1377 275 1287 179 c 128,-1,29
 1197 83 1197 83 1070.5 31 c 128,-1,30
 944 -21 944 -21 788 -21 c 128,-1,31
 632 -21 632 -21 505.5 31 c 128,-1,32
 379 83 379 83 289.5 178.5 c 128,-1,33
 200 274 200 274 152 405.5 c 128,-1,34
 104 537 104 537 104 696 c 0,35,36
 104 856 104 856 152.5 988 c 128,-1,37
 201 1120 201 1120 291 1216 c 128,-1,38
 381 1312 381 1312 507 1364.5 c 128,-1,39
 633 1417 633 1417 790 1417 c 0,0,1
797 139 m 0,40,41
 941 139 941 139 1040.5 201.5 c 128,-1,42
 1140 264 1140 264 1191.5 381 c 128,-1,43
 1243 498 1243 498 1243 663 c 0,44,45
 1243 852 1243 852 1189.5 984.5 c 128,-1,46
 1136 1117 1136 1117 1033 1186.5 c 128,-1,47
 930 1256 930 1256 781 1256 c 0,48,49
 637 1256 637 1256 537 1194 c 128,-1,50
 437 1132 437 1132 385.5 1015 c 128,-1,51
 334 898 334 898 334 733 c 0,52,53
 334 545 334 545 388 412 c 128,-1,54
 442 279 442 279 545 209 c 128,-1,55
 648 139 648 139 797 139 c 0,40,41
EndSplineSet
EndChar

StartChar: ohorn
Encoding: 417 417 321
Width: 1210
GlyphClass: 2
Flags: W
AnchorPoint: "Anchor-4" 594 0 basechar 0
AnchorPoint: "Anchor-0" 594 1062 basechar 0
LayerCount: 2
Fore
SplineSet
1147 1226 m 0,0,1
 1147 1099 1147 1099 1086 1036 c 0,2,3
 1030 979 1030 979 924 971 c 1,4,5
 1008 897 1008 897 1050 790 c 0,6,7
 1096 674 1096 674 1096 535 c 0,8,9
 1096 367 1096 367 1033 241.5 c 128,-1,10
 970 116 970 116 855.5 46.5 c 128,-1,11
 741 -23 741 -23 584 -23 c 0,12,13
 431 -23 431 -23 320.5 45 c 128,-1,14
 210 113 210 113 150.5 237.5 c 128,-1,15
 91 362 91 362 91 527 c 0,16,17
 91 695 91 695 154 820.5 c 128,-1,18
 217 946 217 946 331.5 1015 c 128,-1,19
 446 1084 446 1084 601 1084 c 0,20,21
 645 1084 645 1084 688.5 1079 c 128,-1,22
 732 1074 732 1074 771.5 1068 c 128,-1,23
 811 1062 811 1062 844 1062 c 0,24,25
 914 1062 914 1062 941 1089 c 128,-1,26
 968 1116 968 1116 968 1166 c 0,27,28
 968 1198 968 1198 958.5 1222 c 128,-1,29
 949 1246 949 1246 940.5 1263 c 128,-1,30
 932 1280 932 1280 932 1292 c 0,31,32
 932 1324 932 1324 960 1346 c 0,33,34
 989 1368 989 1368 1028 1368 c 0,35,36
 1079 1368 1079 1368 1113 1335.5 c 128,-1,37
 1147 1303 1147 1303 1147 1226 c 0,0,1
586 131 m 0,38,39
 681 131 681 131 747 170.5 c 128,-1,40
 813 210 813 210 847 292.5 c 128,-1,41
 881 375 881 375 881 504 c 0,42,43
 881 647 881 647 850 741.5 c 128,-1,44
 819 836 819 836 756.5 883.5 c 128,-1,45
 694 931 694 931 599 931 c 128,-1,46
 504 931 504 931 438.5 892 c 128,-1,47
 373 853 373 853 339 770 c 128,-1,48
 305 687 305 687 305 557 c 0,49,50
 305 416 305 416 336 321 c 128,-1,51
 367 226 367 226 429.5 178.5 c 128,-1,52
 492 131 492 131 586 131 c 0,38,39
EndSplineSet
EndChar

StartChar: Uhorn
Encoding: 431 431 322
Width: 1621
GlyphClass: 2
Flags: W
AnchorPoint: "Anchor-4" 808 0 basechar 0
LayerCount: 2
Fore
SplineSet
1556 1493 m 128,-1,1
 1556 1523 1556 1523 1547.5 1545 c 128,-1,2
 1539 1567 1539 1567 1530 1582.5 c 128,-1,3
 1521 1598 1521 1598 1521 1608 c 0,4,5
 1522 1638 1522 1638 1550 1658.5 c 128,-1,6
 1578 1679 1578 1679 1615 1679 c 0,7,8
 1664 1679 1664 1679 1697 1648.5 c 128,-1,9
 1730 1618 1730 1618 1730 1547 c 0,10,11
 1730 1472 1730 1472 1694.5 1412.5 c 128,-1,12
 1659 1353 1659 1353 1576 1315.5 c 128,-1,13
 1493 1278 1493 1278 1354 1265 c 1,14,-1
 1354 518 l 2,15,16
 1354 341 1354 341 1290.5 221 c 128,-1,17
 1227 101 1227 101 1106.5 40 c 128,-1,18
 986 -21 986 -21 813 -21 c 0,19,20
 622 -21 622 -21 494 38 c 128,-1,21
 366 97 366 97 301 219.5 c 128,-1,22
 236 342 236 342 236 528 c 2,23,-1
 236 1257 l 1,24,-1
 61 1304 l 1,25,-1
 61 1396 l 1,26,-1
 632 1396 l 1,27,-1
 632 1304 l 1,28,-1
 457 1257 l 1,29,-1
 457 529 l 2,30,31
 457 401 457 401 499 318.5 c 128,-1,32
 541 236 541 236 625 197 c 128,-1,33
 709 158 709 158 835 158 c 0,34,35
 956 158 956 158 1037 195 c 128,-1,36
 1118 232 1118 232 1159.5 309.5 c 128,-1,37
 1201 387 1201 387 1201 509 c 2,38,-1
 1201 1257 l 1,39,-1
 1026 1304 l 1,40,-1
 1026 1396 l 1,41,-1
 1422 1396 l 2,42,43
 1473 1396 1473 1396 1502 1407.5 c 128,-1,44
 1531 1419 1531 1419 1543.5 1441 c 128,-1,0
 1556 1463 1556 1463 1556 1493 c 128,-1,1
EndSplineSet
EndChar

StartChar: uhorn
Encoding: 432 432 323
Width: 1264
GlyphClass: 2
Flags: W
AnchorPoint: "Anchor-4" 618 0 basechar 0
AnchorPoint: "Anchor-0" 584 1062 basechar 0
LayerCount: 2
Fore
SplineSet
1121 1166 m 0,0,1
 1121 1199 1121 1199 1112.5 1222.5 c 128,-1,2
 1104 1246 1104 1246 1094.5 1263 c 128,-1,3
 1085 1280 1085 1280 1085 1292 c 0,4,5
 1086 1323 1086 1323 1115 1345.5 c 128,-1,6
 1144 1368 1144 1368 1182 1368 c 0,7,8
 1233 1368 1233 1368 1267.5 1335 c 128,-1,9
 1302 1302 1302 1302 1302 1226 c 0,10,11
 1302 1114 1302 1114 1235.5 1050.5 c 128,-1,12
 1169 987 1169 987 1040 976 c 1,13,-1
 1035 915 l 1,14,-1
 1035 239 l 1,15,16
 1044 233 1044 233 1064 220 c 128,-1,17
 1084 207 1084 207 1109.5 192.5 c 128,-1,18
 1135 178 1135 178 1159 165 c 128,-1,19
 1183 152 1183 152 1199 145 c 1,20,-1
 1199 98 l 1,21,-1
 923 -22 l 1,22,-1
 888 -22 l 1,23,-1
 831 162 l 1,24,25
 772 110 772 110 730 76 c 0,26,27
 678 33 678 33 639.5 11.5 c 128,-1,28
 601 -10 601 -10 566.5 -16.5 c 128,-1,29
 532 -23 532 -23 488 -23 c 0,30,31
 338 -23 338 -23 268.5 61.5 c 128,-1,32
 199 146 199 146 199 310 c 2,33,-1
 199 895 l 1,34,-1
 32 970 l 1,35,-1
 32 1059 l 1,36,-1
 424 1074 l 1,37,-1
 405 916 l 1,38,-1
 405 367 l 2,39,40
 405 302 405 302 424.5 262 c 128,-1,41
 444 222 444 222 487 204 c 128,-1,42
 530 186 530 186 602 186 c 0,43,44
 664 186 664 186 728 202 c 0,45,46
 782 217 782 217 826 237 c 1,47,-1
 826 900 l 1,48,-1
 677 971 l 1,49,-1
 677 1062 l 1,50,-1
 981 1069 l 2,51,52
 1062 1071 1062 1071 1091.5 1097.5 c 128,-1,53
 1121 1124 1121 1124 1121 1166 c 0,0,1
EndSplineSet
EndChar

StartChar: uni01EA
Encoding: 490 490 335
Width: 1577
GlyphClass: 1
Flags: W
LayerCount: 2
Fore
SplineSet
830 -88 m 2,0,1
 807 -133 807 -133 794.5 -166 c 128,-1,2
 782 -199 782 -199 777.5 -224 c 128,-1,3
 773 -249 773 -249 773 -274 c 0,4,5
 773 -318 773 -318 796.5 -342 c 128,-1,6
 820 -366 820 -366 861 -366 c 0,7,8
 889 -366 889 -366 914.5 -357.5 c 128,-1,9
 940 -349 940 -349 979 -321 c 1,10,-1
 987 -385 l 1,11,12
 951 -421 951 -421 920.5 -442 c 128,-1,13
 890 -463 890 -463 860 -472 c 128,-1,14
 830 -481 830 -481 793 -481 c 0,15,16
 709 -481 709 -481 669.5 -438 c 128,-1,17
 630 -395 630 -395 630 -324 c 0,18,19
 630 -292 630 -292 637 -259 c 128,-1,20
 644 -226 644 -226 666 -184.5 c 128,-1,21
 688 -143 688 -143 732 -84 c 2,22,-1
 778 -21 l 1,23,24
 628 -19 628 -19 506 31 c 0,25,26
 379 83 379 83 289.5 178.5 c 128,-1,27
 200 274 200 274 152 405.5 c 128,-1,28
 104 537 104 537 104 696 c 0,29,30
 104 856 104 856 152.5 988 c 128,-1,31
 201 1120 201 1120 291 1216 c 128,-1,32
 381 1312 381 1312 507 1364.5 c 128,-1,33
 633 1417 633 1417 790 1417 c 0,34,35
 946 1417 946 1417 1072.5 1365 c 128,-1,36
 1199 1313 1199 1313 1288.5 1217.5 c 128,-1,37
 1378 1122 1378 1122 1425.5 990.5 c 128,-1,38
 1473 859 1473 859 1473 700 c 0,39,40
 1473 540 1473 540 1425 407.5 c 128,-1,41
 1377 275 1377 275 1287 179 c 128,-1,42
 1197 83 1197 83 1070 31 c 0,43,44
 977 -7 977 -7 867 -17 c 1,45,-1
 830 -88 l 2,0,1
797 139 m 0,46,47
 941 139 941 139 1040.5 201.5 c 128,-1,48
 1140 264 1140 264 1191.5 381 c 128,-1,49
 1243 498 1243 498 1243 663 c 0,50,51
 1243 852 1243 852 1189.5 984.5 c 128,-1,52
 1136 1117 1136 1117 1033 1186.5 c 128,-1,53
 930 1256 930 1256 781 1256 c 0,54,55
 637 1256 637 1256 537 1194 c 128,-1,56
 437 1132 437 1132 385.5 1015 c 128,-1,57
 334 898 334 898 334 733 c 0,58,59
 334 545 334 545 388 412 c 128,-1,60
 442 279 442 279 545 209 c 128,-1,61
 648 139 648 139 797 139 c 0,46,47
EndSplineSet
EndChar

StartChar: uni01EB
Encoding: 491 491 336
Width: 1185
GlyphClass: 1
Flags: W
LayerCount: 2
Fore
SplineSet
639 -95 m 2,0,1
 617 -146 617 -146 605 -180.5 c 128,-1,2
 593 -215 593 -215 587 -242.5 c 128,-1,3
 581 -270 581 -270 581 -296 c 0,4,5
 581 -344 581 -344 605.5 -369.5 c 128,-1,6
 630 -395 630 -395 673 -395 c 0,7,8
 702 -395 702 -395 727.5 -386 c 128,-1,9
 753 -377 753 -377 793 -347 c 1,10,-1
 802 -416 l 1,11,12
 745 -474 745 -474 701.5 -496.5 c 128,-1,13
 658 -519 658 -519 602 -519 c 0,14,15
 515 -519 515 -519 474 -473 c 128,-1,16
 433 -427 433 -427 433 -350 c 0,17,18
 433 -315 433 -315 441.5 -280 c 128,-1,19
 450 -245 450 -245 472.5 -200.5 c 128,-1,20
 495 -156 495 -156 536 -91 c 2,21,-1
 579 -23 l 1,22,23
 429 -22 429 -22 320 45 c 0,24,25
 210 113 210 113 150.5 237.5 c 128,-1,26
 91 362 91 362 91 527 c 0,27,28
 91 695 91 695 154 820.5 c 128,-1,29
 217 946 217 946 331.5 1015 c 128,-1,30
 446 1084 446 1084 601 1084 c 0,31,32
 754 1084 754 1084 865.5 1016 c 128,-1,33
 977 948 977 948 1036.5 824.5 c 128,-1,34
 1096 701 1096 701 1096 535 c 0,35,36
 1096 367 1096 367 1033 241.5 c 128,-1,37
 970 116 970 116 856 46 c 0,38,39
 775 -2 775 -2 674 -17 c 1,40,-1
 639 -95 l 2,0,1
586 131 m 0,41,42
 681 131 681 131 747 170.5 c 128,-1,43
 813 210 813 210 847 292.5 c 128,-1,44
 881 375 881 375 881 504 c 0,45,46
 881 647 881 647 850 741.5 c 128,-1,47
 819 836 819 836 756.5 883.5 c 128,-1,48
 694 931 694 931 599 931 c 128,-1,49
 504 931 504 931 438.5 892 c 128,-1,50
 373 853 373 853 339 770 c 128,-1,51
 305 687 305 687 305 557 c 0,52,53
 305 416 305 416 336 321 c 128,-1,54
 367 226 367 226 429.5 178.5 c 128,-1,55
 492 131 492 131 586 131 c 0,41,42
EndSplineSet
EndChar

StartChar: uni0237
Encoding: 567 567 379
Width: 585
GlyphClass: 2
Flags: W
AnchorPoint: "Anchor-4" 256 -504 basechar 0
AnchorPoint: "Anchor-0" 280 1062 basechar 0
LayerCount: 2
Fore
SplineSet
215 816 m 1,0,1
 205 825 205 825 175.5 843 c 128,-1,2
 146 861 146 861 112 881 c 128,-1,3
 78 901 78 901 48 917 c 1,4,-1
 48 978 l 1,5,-1
 380 1084 l 1,6,-1
 433 1084 l 1,7,-1
 421 846 l 1,8,-1
 421 11 l 2,9,10
 421 -54 421 -54 414 -103 c 128,-1,11
 407 -152 407 -152 387 -195.5 c 128,-1,12
 367 -239 367 -239 328 -284.5 c 128,-1,13
 289 -330 289 -330 225.5 -386.5 c 128,-1,14
 162 -443 162 -443 67 -519 c 1,15,-1
 -5 -424 l 1,16,17
 73 -334 73 -334 117.5 -280 c 128,-1,18
 162 -226 162 -226 182.5 -188.5 c 128,-1,19
 203 -151 203 -151 209 -118 c 128,-1,20
 215 -85 215 -85 215 -40 c 2,21,-1
 215 816 l 1,0,1
EndSplineSet
EndChar

StartChar: uni0259
Encoding: 601 601 380
Width: 1065
GlyphClass: 1
Flags: W
LayerCount: 2
Fore
SplineSet
509 -23 m 0,0,1
 365 -23 365 -23 274 41 c 128,-1,2
 183 105 183 105 139.5 229.5 c 128,-1,3
 96 354 96 354 91 535 c 1,4,-1
 773 535 l 1,5,6
 766 645 766 645 733 718 c 0,7,8
 692 809 692 809 610.5 852.5 c 128,-1,9
 529 896 529 896 406 896 c 0,10,11
 347 896 347 896 294.5 885.5 c 128,-1,12
 242 875 242 875 195 856.5 c 128,-1,13
 148 838 148 838 104 815 c 1,14,-1
 98 913 l 1,15,16
 164 968 164 968 231.5 1006 c 128,-1,17
 299 1044 299 1044 366 1064 c 128,-1,18
 433 1084 433 1084 495 1084 c 0,19,20
 640 1084 640 1084 748.5 1020.5 c 128,-1,21
 857 957 857 957 916.5 836.5 c 128,-1,22
 976 716 976 716 976 545 c 0,23,24
 976 377 976 377 918.5 248.5 c 128,-1,25
 861 120 861 120 756 48.5 c 128,-1,26
 651 -23 651 -23 509 -23 c 0,0,1
304 397 m 1,27,28
 310 309 310 309 332 252 c 0,29,30
 357 183 357 183 404 151.5 c 128,-1,31
 451 120 451 120 518 120 c 0,32,33
 599 120 599 120 656 157.5 c 128,-1,34
 713 195 713 195 744 276 c 0,35,36
 764 329 764 329 771 402 c 1,37,-1
 304 397 l 1,27,28
EndSplineSet
EndChar

StartChar: gravecomb
Encoding: 768 768 392
Width: 0
GlyphClass: 4
Flags: W
AnchorPoint: "Anchor-6" -28 1486 basemark 0
AnchorPoint: "Anchor-6" 0 983 mark 0
AnchorPoint: "Anchor-0" 0 983 mark 0
LayerCount: 2
Fore
SplineSet
69 1106 m 1,0,-1
 -42 1106 l 1,1,-1
 -345 1393 l 1,2,-1
 -345 1433 l 1,3,-1
 -98 1433 l 1,4,-1
 69 1106 l 1,0,-1
EndSplineSet
EndChar

StartChar: acutecomb
Encoding: 769 769 393
Width: 0
GlyphClass: 4
Flags: W
AnchorPoint: "Anchor-6" 28 1486 basemark 0
AnchorPoint: "Anchor-6" 0 983 mark 0
AnchorPoint: "Anchor-0" 0 983 mark 0
LayerCount: 2
Fore
SplineSet
-69 1106 m 1,0,-1
 98 1433 l 1,1,-1
 345 1433 l 1,2,-1
 345 1393 l 1,3,-1
 42 1106 l 1,4,-1
 -69 1106 l 1,0,-1
EndSplineSet
EndChar

StartChar: uni0302
Encoding: 770 770 394
Width: 0
GlyphClass: 4
Flags: W
AnchorPoint: "Anchor-6" 0 1433 basemark 0
AnchorPoint: "Anchor-6" 0 983 mark 0
AnchorPoint: "Anchor-0" 0 983 mark 0
LayerCount: 2
Fore
SplineSet
-325 1106 m 1,0,-1
 -92 1433 l 1,1,-1
 92 1433 l 1,2,-1
 325 1106 l 1,3,-1
 183 1106 l 1,4,-1
 0 1291 l 1,5,-1
 -183 1106 l 1,6,-1
 -325 1106 l 1,0,-1
EndSplineSet
EndChar

StartChar: tildecomb
Encoding: 771 771 395
Width: 0
GlyphClass: 4
Flags: W
AnchorPoint: "Anchor-6" 0 1354 basemark 0
AnchorPoint: "Anchor-6" 0 983 mark 0
AnchorPoint: "Anchor-0" 0 983 mark 0
LayerCount: 2
Fore
SplineSet
302 1421 m 1,0,1
 287 1297 287 1297 265 1230 c 128,-1,2
 243 1163 243 1163 208 1137.5 c 128,-1,3
 173 1112 173 1112 120 1112 c 0,4,5
 78 1112 78 1112 44 1136 c 128,-1,6
 10 1160 10 1160 -19 1191 c 128,-1,7
 -48 1222 -48 1222 -73.5 1245.5 c 128,-1,8
 -99 1269 -99 1269 -124 1269 c 0,9,10
 -141 1269 -141 1269 -154.5 1258 c 128,-1,11
 -168 1247 -168 1247 -178 1214.5 c 128,-1,12
 -188 1182 -188 1182 -199 1118 c 1,13,-1
 -310 1118 l 1,14,15
 -295 1242 -295 1242 -273 1309 c 128,-1,16
 -251 1376 -251 1376 -215.5 1401.5 c 128,-1,17
 -180 1427 -180 1427 -127 1427 c 0,18,19
 -85 1427 -85 1427 -51.5 1403 c 128,-1,20
 -18 1379 -18 1379 11 1348 c 128,-1,21
 40 1317 40 1317 65.5 1293.5 c 128,-1,22
 91 1270 91 1270 117 1270 c 0,23,24
 135 1270 135 1270 148 1281 c 128,-1,25
 161 1292 161 1292 171 1325 c 128,-1,26
 181 1358 181 1358 191 1421 c 1,27,-1
 302 1421 l 1,0,1
EndSplineSet
EndChar

StartChar: uni0304
Encoding: 772 772 396
Width: 0
GlyphClass: 4
Flags: W
AnchorPoint: "Anchor-6" 0 1433 basemark 0
AnchorPoint: "Anchor-6" 0 983 mark 0
AnchorPoint: "Anchor-0" 0 983 mark 0
LayerCount: 2
Fore
SplineSet
-284 1205 m 1,0,-1
 -284 1335 l 1,1,-1
 284 1335 l 1,2,-1
 284 1205 l 1,3,-1
 -284 1205 l 1,0,-1
EndSplineSet
EndChar

StartChar: uni0306
Encoding: 774 774 397
Width: 0
GlyphClass: 4
Flags: W
AnchorPoint: "Anchor-6" 0 1433 basemark 0
AnchorPoint: "Anchor-6" 0 983 mark 0
AnchorPoint: "Anchor-0" 0 983 mark 0
LayerCount: 2
Fore
SplineSet
0 1249 m 0,0,1
 58 1249 58 1249 96.5 1266.5 c 128,-1,2
 135 1284 135 1284 159.5 1324 c 128,-1,3
 184 1364 184 1364 199 1433 c 1,4,-1
 299 1433 l 1,5,6
 280 1304 280 1304 244.5 1231.5 c 128,-1,7
 209 1159 209 1159 149.5 1129.5 c 128,-1,8
 90 1100 90 1100 0 1100 c 0,9,10
 -89 1100 -89 1100 -149 1129.5 c 128,-1,11
 -209 1159 -209 1159 -244.5 1231.5 c 128,-1,12
 -280 1304 -280 1304 -299 1433 c 1,13,-1
 -199 1433 l 1,14,15
 -184 1364 -184 1364 -159.5 1324 c 128,-1,16
 -135 1284 -135 1284 -96 1266.5 c 128,-1,17
 -57 1249 -57 1249 0 1249 c 0,0,1
EndSplineSet
EndChar

StartChar: uni0307
Encoding: 775 775 398
Width: 0
GlyphClass: 4
Flags: W
AnchorPoint: "Anchor-6" 0 1354 basemark 0
AnchorPoint: "Anchor-6" 0 983 mark 0
AnchorPoint: "Anchor-0" 0 983 mark 0
LayerCount: 2
Fore
SplineSet
0 1147 m 128,-1,1
 -69 1147 -69 1147 -105 1180 c 128,-1,2
 -141 1213 -141 1213 -141 1271 c 0,3,4
 -141 1330 -141 1330 -105 1361 c 128,-1,5
 -69 1392 -69 1392 0 1392 c 128,-1,6
 69 1392 69 1392 105 1361 c 128,-1,7
 141 1330 141 1330 141 1271 c 0,8,9
 141 1213 141 1213 105 1180 c 128,-1,0
 69 1147 69 1147 0 1147 c 128,-1,1
EndSplineSet
EndChar

StartChar: uni0308
Encoding: 776 776 399
Width: 0
GlyphClass: 4
Flags: W
AnchorPoint: "Anchor-6" 0 1354 basemark 0
AnchorPoint: "Anchor-6" 0 983 mark 0
AnchorPoint: "Anchor-0" 0 983 mark 0
LayerCount: 2
Fore
SplineSet
206 1153 m 0,0,1
 146 1153 146 1153 115 1184 c 128,-1,2
 84 1215 84 1215 84 1271 c 128,-1,3
 84 1327 84 1327 115 1356.5 c 128,-1,4
 146 1386 146 1386 206 1386 c 0,5,6
 265 1386 265 1386 296.5 1356.5 c 128,-1,7
 328 1327 328 1327 328 1271 c 128,-1,8
 328 1215 328 1215 296.5 1184 c 128,-1,9
 265 1153 265 1153 206 1153 c 0,0,1
-205 1153 m 128,-1,11
 -265 1153 -265 1153 -296.5 1184 c 128,-1,12
 -328 1215 -328 1215 -328 1271 c 128,-1,13
 -328 1327 -328 1327 -296.5 1356.5 c 128,-1,14
 -265 1386 -265 1386 -205 1386 c 128,-1,15
 -145 1386 -145 1386 -114.5 1356.5 c 128,-1,16
 -84 1327 -84 1327 -84 1271 c 128,-1,17
 -84 1215 -84 1215 -114.5 1184 c 128,-1,10
 -145 1153 -145 1153 -205 1153 c 128,-1,11
EndSplineSet
EndChar

StartChar: hookabovecomb
Encoding: 777 777 400
Width: 0
GlyphClass: 4
Flags: W
AnchorPoint: "Anchor-6" 0 1433 basemark 0
AnchorPoint: "Anchor-6" 0 983 mark 0
AnchorPoint: "Anchor-0" 0 983 mark 0
LayerCount: 2
Fore
SplineSet
-182 1335 m 1,0,-1
 -169 1476 l 1,1,2
 -48 1473 -48 1473 25.5 1460 c 128,-1,3
 99 1447 99 1447 137 1425.5 c 128,-1,4
 175 1404 175 1404 189 1373.5 c 128,-1,5
 203 1343 203 1343 203 1304 c 0,6,7
 203 1256 203 1256 179.5 1216 c 128,-1,8
 156 1176 156 1176 95.5 1145 c 128,-1,9
 35 1114 35 1114 -77 1090 c 1,10,-1
 -93 1163 l 1,11,12
 -27 1178 -27 1178 5.5 1193 c 128,-1,13
 38 1208 38 1208 48.5 1224.5 c 128,-1,14
 59 1241 59 1241 59 1260 c 0,15,16
 59 1283 59 1283 43.5 1299.5 c 128,-1,17
 28 1316 28 1316 -23.5 1325 c 128,-1,18
 -75 1334 -75 1334 -182 1335 c 1,0,-1
EndSplineSet
EndChar

StartChar: uni030A
Encoding: 778 778 401
Width: 0
GlyphClass: 4
Flags: W
AnchorPoint: "Anchor-6" 0 1433 basemark 0
AnchorPoint: "Anchor-6" 0 983 mark 0
AnchorPoint: "Anchor-0" 0 983 mark 0
LayerCount: 2
Fore
SplineSet
-2 1156 m 0,0,1
 49 1156 49 1156 78 1187.5 c 128,-1,2
 107 1219 107 1219 107 1272 c 0,3,4
 107 1327 107 1327 78 1358.5 c 128,-1,5
 49 1390 49 1390 -2 1390 c 0,6,7
 -52 1390 -52 1390 -81 1358.5 c 128,-1,8
 -110 1327 -110 1327 -110 1272 c 0,9,10
 -110 1219 -110 1219 -81 1187.5 c 128,-1,11
 -52 1156 -52 1156 -2 1156 c 0,0,1
-2 1454 m 0,12,13
 79 1454 79 1454 127 1404.5 c 128,-1,14
 175 1355 175 1355 175 1272 c 128,-1,15
 175 1189 175 1189 127 1139.5 c 128,-1,16
 79 1090 79 1090 -2 1090 c 0,17,18
 -82 1090 -82 1090 -130 1139.5 c 128,-1,19
 -178 1189 -178 1189 -178 1272 c 128,-1,20
 -178 1355 -178 1355 -130 1404.5 c 128,-1,21
 -82 1454 -82 1454 -2 1454 c 0,12,13
EndSplineSet
EndChar

StartChar: uni030B
Encoding: 779 779 402
Width: 0
GlyphClass: 4
Flags: W
AnchorPoint: "Anchor-6" 0 1433 basemark 0
AnchorPoint: "Anchor-6" 0 983 mark 0
AnchorPoint: "Anchor-0" 0 983 mark 0
LayerCount: 2
Fore
SplineSet
-212 1106 m 1,0,-1
 -130 1433 l 1,1,-1
 91 1433 l 1,2,-1
 91 1397 l 1,3,-1
 -111 1106 l 1,4,-1
 -212 1106 l 1,0,-1
74 1106 m 1,5,-1
 246 1433 l 1,6,-1
 484 1433 l 1,7,-1
 484 1393 l 1,8,-1
 182 1106 l 1,9,-1
 74 1106 l 1,5,-1
EndSplineSet
EndChar

StartChar: uni030C
Encoding: 780 780 403
Width: 0
GlyphClass: 4
Flags: W
AnchorPoint: "Anchor-6" 0 1433 basemark 0
AnchorPoint: "Anchor-6" 0 983 mark 0
AnchorPoint: "Anchor-0" 0 983 mark 0
LayerCount: 2
Fore
SplineSet
0 1248 m 1,0,-1
 183 1433 l 1,1,-1
 325 1433 l 1,2,-1
 92 1106 l 1,3,-1
 -92 1106 l 1,4,-1
 -325 1433 l 1,5,-1
 -183 1433 l 1,6,-1
 0 1248 l 1,0,-1
EndSplineSet
EndChar

StartChar: uni030F
Encoding: 783 783 404
Width: 0
GlyphClass: 4
Flags: W
AnchorPoint: "Anchor-6" 0 1433 basemark 0
AnchorPoint: "Anchor-6" 0 983 mark 0
AnchorPoint: "Anchor-0" 0 983 mark 0
LayerCount: 2
Fore
SplineSet
212 1106 m 1,0,-1
 111 1106 l 1,1,-1
 -91 1397 l 1,2,-1
 -91 1433 l 1,3,-1
 130 1433 l 1,4,-1
 212 1106 l 1,0,-1
-74 1106 m 1,5,-1
 -182 1106 l 1,6,-1
 -484 1393 l 1,7,-1
 -484 1433 l 1,8,-1
 -246 1433 l 1,9,-1
 -74 1106 l 1,5,-1
EndSplineSet
EndChar

StartChar: uni0311
Encoding: 785 785 405
Width: 0
GlyphClass: 4
Flags: W
AnchorPoint: "Anchor-6" 0 1433 basemark 0
AnchorPoint: "Anchor-6" 0 983 mark 0
AnchorPoint: "Anchor-0" 0 983 mark 0
LayerCount: 2
Fore
SplineSet
0 1290 m 0,0,1
 -57 1290 -57 1290 -96 1272.5 c 128,-1,2
 -135 1255 -135 1255 -159 1214.5 c 128,-1,3
 -183 1174 -183 1174 -199 1106 c 1,4,-1
 -299 1106 l 1,5,6
 -280 1236 -280 1236 -244.5 1308 c 128,-1,7
 -209 1380 -209 1380 -149 1409.5 c 128,-1,8
 -89 1439 -89 1439 0 1439 c 0,9,10
 90 1439 90 1439 149.5 1409.5 c 128,-1,11
 209 1380 209 1380 244.5 1308 c 128,-1,12
 280 1236 280 1236 299 1106 c 1,13,-1
 199 1106 l 1,14,15
 185 1174 185 1174 160 1214.5 c 128,-1,16
 135 1255 135 1255 96.5 1272.5 c 128,-1,17
 58 1290 58 1290 0 1290 c 0,0,1
EndSplineSet
EndChar

StartChar: uni0312
Encoding: 786 786 406
Width: 0
GlyphClass: 4
Flags: W
AnchorPoint: "Anchor-6" 0 1433 basemark 0
AnchorPoint: "Anchor-6" 0 983 mark 0
AnchorPoint: "Anchor-0" 0 983 mark 0
LayerCount: 2
Fore
SplineSet
127 1216 m 0,0,1
 127 1166 127 1166 96.5 1130.5 c 128,-1,2
 66 1095 66 1095 5 1095 c 0,3,4
 -51 1095 -51 1095 -86.5 1128 c 128,-1,5
 -122 1161 -122 1161 -122 1237 c 0,6,7
 -122 1285 -122 1285 -100.5 1330 c 128,-1,8
 -79 1375 -79 1375 -25.5 1411 c 128,-1,9
 28 1447 28 1447 124 1465 c 1,10,-1
 141 1394 l 1,11,12
 68 1380 68 1380 43 1357 c 128,-1,13
 18 1334 18 1334 18 1306 c 0,14,15
 18 1285 18 1285 34.5 1271 c 128,-1,16
 51 1257 51 1257 72.5 1248 c 128,-1,17
 94 1239 94 1239 110.5 1232 c 128,-1,18
 127 1225 127 1225 127 1216 c 0,0,1
EndSplineSet
EndChar

StartChar: uni031B
Encoding: 795 795 407
Width: 0
GlyphClass: 4
Flags: W
AnchorPoint: "Anchor-2" 0 989 mark 0
LayerCount: 2
Fore
SplineSet
338 1141 m 0,0,1
 338 1028 338 1028 266 964 c 128,-1,2
 194 900 194 900 48 900 c 2,3,-1
 -72 900 l 1,4,-1
 -72 989 l 1,5,-1
 12 989 l 2,6,7
 71 989 71 989 104 1001 c 128,-1,8
 137 1013 137 1013 150.5 1035 c 128,-1,9
 164 1057 164 1057 164 1086 c 0,10,11
 164 1116 164 1116 155.5 1138 c 128,-1,12
 147 1160 147 1160 138 1176 c 128,-1,13
 129 1192 129 1192 129 1202 c 0,14,15
 130 1231 130 1231 158 1252 c 128,-1,16
 186 1273 186 1273 223 1273 c 0,17,18
 272 1273 272 1273 305 1242.5 c 128,-1,19
 338 1212 338 1212 338 1141 c 0,0,1
EndSplineSet
EndChar

StartChar: dotbelowcomb
Encoding: 803 803 408
Width: 0
GlyphClass: 4
Flags: W
AnchorPoint: "Anchor-5" 0 -481 basemark 0
AnchorPoint: "Anchor-5" 0 0 mark 0
AnchorPoint: "Anchor-4" 0 0 mark 0
LayerCount: 2
Fore
SplineSet
0 -349 m 128,-1,1
 -69 -349 -69 -349 -105 -317 c 128,-1,2
 -141 -285 -141 -285 -141 -225 c 0,3,4
 -141 -167 -141 -167 -105 -136 c 128,-1,5
 -69 -105 -69 -105 0 -105 c 128,-1,6
 69 -105 69 -105 105 -136 c 128,-1,7
 141 -167 141 -167 141 -225 c 0,8,9
 141 -285 141 -285 105 -317 c 128,-1,0
 69 -349 69 -349 0 -349 c 128,-1,1
EndSplineSet
EndChar

StartChar: uni0324
Encoding: 804 804 409
Width: 0
GlyphClass: 4
Flags: W
AnchorPoint: "Anchor-5" 0 -481 basemark 0
AnchorPoint: "Anchor-5" 0 0 mark 0
AnchorPoint: "Anchor-4" 0 0 mark 0
LayerCount: 2
Fore
SplineSet
206 -344 m 0,0,1
 146 -344 146 -344 115 -312.5 c 128,-1,2
 84 -281 84 -281 84 -226 c 0,3,4
 84 -169 84 -169 115 -139.5 c 128,-1,5
 146 -110 146 -110 206 -110 c 0,6,7
 265 -110 265 -110 296.5 -139.5 c 128,-1,8
 328 -169 328 -169 328 -226 c 0,9,10
 328 -281 328 -281 296.5 -312.5 c 128,-1,11
 265 -344 265 -344 206 -344 c 0,0,1
-206 -344 m 0,12,13
 -265 -344 -265 -344 -296.5 -312.5 c 128,-1,14
 -328 -281 -328 -281 -328 -226 c 0,15,16
 -328 -169 -328 -169 -296.5 -139.5 c 128,-1,17
 -265 -110 -265 -110 -206 -110 c 0,18,19
 -145 -110 -145 -110 -114.5 -139.5 c 128,-1,20
 -84 -169 -84 -169 -84 -226 c 0,21,22
 -84 -281 -84 -281 -114.5 -312.5 c 128,-1,23
 -145 -344 -145 -344 -206 -344 c 0,12,13
EndSplineSet
EndChar

StartChar: uni0326
Encoding: 806 806 410
Width: 0
GlyphClass: 4
Flags: W
AnchorPoint: "Anchor-5" 0 -481 basemark 0
AnchorPoint: "Anchor-5" 0 0 mark 0
AnchorPoint: "Anchor-4" 0 0 mark 0
LayerCount: 2
Fore
SplineSet
-122 -397 m 1,0,1
 -47 -380 -47 -380 -22 -358 c 128,-1,2
 3 -336 3 -336 3 -300 c 0,3,4
 3 -276 3 -276 -13.5 -261 c 128,-1,5
 -30 -246 -30 -246 -53 -236.5 c 128,-1,6
 -76 -227 -76 -227 -92.5 -218.5 c 128,-1,7
 -109 -210 -109 -210 -109 -199 c 0,8,9
 -109 -147 -109 -147 -79.5 -117.5 c 128,-1,10
 -50 -88 -50 -88 10 -88 c 0,11,12
 65 -88 65 -88 99 -122 c 128,-1,13
 133 -156 133 -156 133 -233 c 0,14,15
 133 -283 133 -283 114.5 -329.5 c 128,-1,16
 96 -376 96 -376 44 -412.5 c 128,-1,17
 -8 -449 -8 -449 -106 -470 c 1,18,-1
 -122 -397 l 1,0,1
EndSplineSet
EndChar

StartChar: uni0327
Encoding: 807 807 411
Width: 0
GlyphClass: 4
Flags: W
AnchorPoint: "Anchor-5" 8 -481 basemark 0
AnchorPoint: "Anchor-5" 0 0 mark 0
AnchorPoint: "Anchor-4" 0 0 mark 0
LayerCount: 2
Fore
SplineSet
-84 -481 m 0,0,1
 -170 -481 -170 -481 -202 -458 c 128,-1,2
 -234 -435 -234 -435 -234 -396 c 0,3,4
 -234 -367 -234 -367 -216.5 -350.5 c 128,-1,5
 -199 -334 -199 -334 -180 -334 c 0,6,7
 -167 -334 -167 -334 -149 -351 c 128,-1,8
 -131 -368 -131 -368 -107.5 -384.5 c 128,-1,9
 -84 -401 -84 -401 -53 -401 c 0,10,11
 -5 -401 -5 -401 18.5 -381.5 c 128,-1,12
 42 -362 42 -362 42 -325 c 0,13,14
 42 -299 42 -299 26 -280.5 c 128,-1,15
 10 -262 10 -262 -35 -247 c 128,-1,16
 -80 -232 -80 -232 -168 -218 c 1,17,-1
 -168 -196 l 1,18,-1
 -2 32 l 1,19,-1
 98 32 l 1,20,-1
 -11 -113 l 1,21,22
 46 -128 46 -128 82 -147 c 0,23,24
 134 -175 134 -175 153 -210 c 128,-1,25
 172 -245 172 -245 172 -287 c 0,26,27
 172 -350 172 -350 139 -393.5 c 128,-1,28
 106 -437 106 -437 48.5 -459 c 128,-1,29
 -9 -481 -9 -481 -84 -481 c 0,0,1
EndSplineSet
EndChar

StartChar: uni0328
Encoding: 808 808 412
Width: 0
GlyphClass: 4
Flags: W
AnchorPoint: "Anchor-3" 0 0 mark 0
LayerCount: 2
Fore
SplineSet
-126 -90 m 2,0,1
 -154 -135 -154 -135 -170.5 -167.5 c 128,-1,2
 -187 -200 -187 -200 -193.5 -225 c 128,-1,3
 -200 -250 -200 -250 -200 -274 c 0,4,5
 -200 -319 -200 -319 -176.5 -342.5 c 128,-1,6
 -153 -366 -153 -366 -112 -366 c 0,7,8
 -84 -366 -84 -366 -58.5 -357.5 c 128,-1,9
 -33 -349 -33 -349 7 -321 c 1,10,-1
 13 -385 l 1,11,12
 -23 -421 -23 -421 -53 -442 c 128,-1,13
 -83 -463 -83 -463 -112.5 -472 c 128,-1,14
 -142 -481 -142 -481 -180 -481 c 0,15,16
 -264 -481 -264 -481 -304 -438 c 128,-1,17
 -344 -395 -344 -395 -344 -324 c 0,18,19
 -344 -292 -344 -292 -335 -259.5 c 128,-1,20
 -326 -227 -326 -227 -301 -185.5 c 128,-1,21
 -276 -144 -276 -144 -226 -85 c 2,22,-1
 -114 49 l 1,23,-1
 -41 49 l 1,24,-1
 -126 -90 l 2,0,1
EndSplineSet
EndChar

StartChar: uni032E
Encoding: 814 814 413
Width: 0
GlyphClass: 4
Flags: W
AnchorPoint: "Anchor-5" 0 -481 basemark 0
AnchorPoint: "Anchor-5" 0 0 mark 0
AnchorPoint: "Anchor-4" 0 0 mark 0
LayerCount: 2
Fore
SplineSet
0 -244 m 0,0,1
 58 -244 58 -244 96.5 -226.5 c 128,-1,2
 135 -209 135 -209 159.5 -168.5 c 128,-1,3
 184 -128 184 -128 199 -60 c 1,4,-1
 299 -60 l 1,5,6
 280 -189 280 -189 244.5 -261.5 c 128,-1,7
 209 -334 209 -334 149.5 -363.5 c 128,-1,8
 90 -393 90 -393 0 -393 c 0,9,10
 -89 -393 -89 -393 -149 -363.5 c 128,-1,11
 -209 -334 -209 -334 -244.5 -261.5 c 128,-1,12
 -280 -189 -280 -189 -299 -60 c 1,13,-1
 -199 -60 l 1,14,15
 -184 -128 -184 -128 -159.5 -168.5 c 128,-1,16
 -135 -209 -135 -209 -96 -226.5 c 128,-1,17
 -57 -244 -57 -244 0 -244 c 0,0,1
EndSplineSet
EndChar

StartChar: uni0331
Encoding: 817 817 414
Width: 0
GlyphClass: 4
Flags: W
AnchorPoint: "Anchor-5" 0 -481 basemark 0
AnchorPoint: "Anchor-5" 0 0 mark 0
AnchorPoint: "Anchor-4" 0 0 mark 0
LayerCount: 2
Fore
SplineSet
-284 -296 m 1,0,-1
 -284 -165 l 1,1,-1
 284 -165 l 1,2,-1
 284 -296 l 1,3,-1
 -284 -296 l 1,0,-1
EndSplineSet
EndChar

StartChar: uni0335
Encoding: 821 821 415
Width: 0
GlyphClass: 4
Flags: W
AnchorPoint: "Anchor-1" 0 1175 mark 0
LayerCount: 2
Fore
SplineSet
-331 1117 m 1,0,-1
 -331 1232 l 1,1,-1
 331 1232 l 1,2,-1
 331 1117 l 1,3,-1
 -331 1117 l 1,0,-1
EndSplineSet
EndChar

StartChar: endash
Encoding: 8211 8211 514
Width: 1028
GlyphClass: 1
Flags: W
LayerCount: 2
Fore
SplineSet
124 567 m 1,0,-1
 904 567 l 1,1,-1
 904 434 l 1,2,-1
 124 434 l 1,3,-1
 124 567 l 1,0,-1
EndSplineSet
Substitution2: "'case' Case-Sensitive Forms in Latin lookup 9 subtable" endash.case
EndChar

StartChar: emdash
Encoding: 8212 8212 515
Width: 1342
GlyphClass: 1
Flags: W
LayerCount: 2
Fore
SplineSet
124 567 m 1,0,-1
 1218 567 l 1,1,-1
 1218 434 l 1,2,-1
 124 434 l 1,3,-1
 124 567 l 1,0,-1
EndSplineSet
Substitution2: "'case' Case-Sensitive Forms in Latin lookup 9 subtable" emdash.case
EndChar

StartChar: quoteleft
Encoding: 8216 8216 516
Width: 521
GlyphClass: 1
Flags: W
LayerCount: 2
Fore
SplineSet
434 1328 m 1,0,1
 337 1281 337 1281 306 1245 c 128,-1,2
 275 1209 275 1209 275 1162 c 0,3,4
 275 1132 275 1132 293.5 1109.5 c 128,-1,5
 312 1087 312 1087 336.5 1069.5 c 128,-1,6
 361 1052 361 1052 380 1037 c 128,-1,7
 399 1022 399 1022 399 1006 c 0,8,9
 399 943 399 943 361 902 c 128,-1,10
 323 861 323 861 254 861 c 0,11,12
 180 861 180 861 137.5 907 c 128,-1,13
 95 953 95 953 95 1034 c 0,14,15
 95 1117 95 1117 122.5 1183 c 128,-1,16
 150 1249 150 1249 215 1305 c 128,-1,17
 280 1361 280 1361 394 1412 c 1,18,-1
 434 1328 l 1,0,1
EndSplineSet
EndChar

StartChar: quoteright
Encoding: 8217 8217 517
Width: 520
GlyphClass: 1
Flags: W
LayerCount: 2
Fore
SplineSet
99 944 m 1,0,1
 196 990 196 990 227 1026 c 128,-1,2
 258 1062 258 1062 258 1109 c 0,3,4
 258 1139 258 1139 239 1161.5 c 128,-1,5
 220 1184 220 1184 196 1202 c 128,-1,6
 172 1220 172 1220 153 1235 c 128,-1,7
 134 1250 134 1250 134 1265 c 0,8,9
 134 1329 134 1329 172 1369.5 c 128,-1,10
 210 1410 210 1410 279 1410 c 0,11,12
 353 1410 353 1410 395.5 1364 c 128,-1,13
 438 1318 438 1318 438 1237 c 0,14,15
 438 1154 438 1154 410.5 1088 c 128,-1,16
 383 1022 383 1022 318 966.5 c 128,-1,17
 253 911 253 911 139 860 c 1,18,-1
 99 944 l 1,0,1
EndSplineSet
EndChar

StartChar: quotesinglbase
Encoding: 8218 8218 518
Width: 517
GlyphClass: 1
Flags: W
LayerCount: 2
Fore
SplineSet
68 -176 m 1,0,1
 166 -130 166 -130 197 -94 c 128,-1,2
 228 -58 228 -58 228 -11 c 0,3,4
 228 20 228 20 209.5 42 c 128,-1,5
 191 64 191 64 166.5 82 c 128,-1,6
 142 100 142 100 123 115 c 128,-1,7
 104 130 104 130 104 145 c 0,8,9
 104 209 104 209 142 249.5 c 128,-1,10
 180 290 180 290 249 290 c 0,11,12
 323 290 323 290 365.5 244 c 128,-1,13
 408 198 408 198 408 118 c 0,14,15
 408 34 408 34 380 -32 c 128,-1,16
 352 -98 352 -98 287 -153.5 c 128,-1,17
 222 -209 222 -209 108 -260 c 1,18,-1
 68 -176 l 1,0,1
EndSplineSet
EndChar

StartChar: dagger
Encoding: 8224 8224 522
Width: 766
GlyphClass: 1
Flags: W
LayerCount: 2
Fore
SplineSet
320 1253 m 1,0,-1
 291 1448 l 1,1,-1
 477 1448 l 1,2,-1
 448 1253 l 1,3,-1
 658 1275 l 1,4,-1
 658 1113 l 1,5,-1
 447 1135 l 1,6,-1
 476 927 l 1,7,-1
 423 693 l 1,8,-1
 342 693 l 1,9,-1
 292 927 l 1,10,-1
 320 1134 l 1,11,-1
 108 1113 l 1,12,-1
 108 1275 l 1,13,-1
 320 1253 l 1,0,-1
EndSplineSet
EndChar

StartChar: daggerdbl
Encoding: 8225 8225 523
Width: 798
GlyphClass: 1
Flags: W
LayerCount: 2
Fore
SplineSet
335 1003 m 1,0,-1
 328 1070 l 1,1,-1
 335 1138 l 1,2,-1
 124 1130 l 1,3,-1
 124 1277 l 1,4,-1
 334 1254 l 1,5,-1
 307 1448 l 1,6,-1
 493 1448 l 1,7,-1
 465 1254 l 1,8,-1
 674 1277 l 1,9,-1
 674 1130 l 1,10,-1
 465 1138 l 1,11,-1
 472 1070 l 1,12,-1
 465 1003 l 1,13,-1
 674 1011 l 1,14,-1
 674 864 l 1,15,-1
 465 886 l 1,16,-1
 493 693 l 1,17,-1
 307 693 l 1,18,-1
 334 886 l 1,19,-1
 124 864 l 1,20,-1
 124 1011 l 1,21,-1
 335 1003 l 1,0,-1
EndSplineSet
EndChar

StartChar: bullet
Encoding: 8226 8226 524
Width: 832
GlyphClass: 1
Flags: W
LayerCount: 2
Fore
SplineSet
416 759 m 128,-1,1
 490 759 490 759 545.5 728 c 128,-1,2
 601 697 601 697 632 639.5 c 128,-1,3
 663 582 663 582 663 501 c 0,4,5
 663 421 663 421 632 363 c 128,-1,6
 601 305 601 305 545.5 274 c 128,-1,7
 490 243 490 243 416 243 c 128,-1,8
 342 243 342 243 286.5 274 c 128,-1,9
 231 305 231 305 200 363 c 128,-1,10
 169 421 169 421 169 501 c 0,11,12
 169 582 169 582 200 639.5 c 128,-1,13
 231 697 231 697 286.5 728 c 128,-1,0
 342 759 342 759 416 759 c 128,-1,1
EndSplineSet
EndChar

StartChar: minute
Encoding: 8242 8242 527
Width: 466
GlyphClass: 1
Flags: W
LayerCount: 2
Fore
SplineSet
115 883 m 1,0,-1
 169 1396 l 1,1,-1
 395 1396 l 1,2,-1
 395 1348 l 1,3,-1
 244 883 l 1,4,-1
 115 883 l 1,0,-1
EndSplineSet
EndChar

StartChar: guilsinglleft
Encoding: 8249 8249 529
Width: 664
GlyphClass: 1
Flags: W
LayerCount: 2
Fore
SplineSet
318 499 m 1,0,-1
 570 124 l 1,1,-1
 488 45 l 1,2,-1
 86 439 l 1,3,-1
 86 560 l 1,4,-1
 488 954 l 1,5,-1
 570 874 l 1,6,-1
 318 499 l 1,0,-1
EndSplineSet
Substitution2: "'case' Case-Sensitive Forms in Latin lookup 9 subtable" guilsinglleft.case
EndChar

StartChar: guilsinglright
Encoding: 8250 8250 530
Width: 689
GlyphClass: 1
Flags: W
LayerCount: 2
Fore
SplineSet
355 500 m 1,0,-1
 103 875 l 1,1,-1
 184 954 l 1,2,-1
 587 560 l 1,3,-1
 587 439 l 1,4,-1
 184 45 l 1,5,-1
 103 125 l 1,6,-1
 355 500 l 1,0,-1
EndSplineSet
Substitution2: "'case' Case-Sensitive Forms in Latin lookup 9 subtable" guilsinglright.case
EndChar

StartChar: fraction
Encoding: 8260 8260 531
Width: 152
GlyphClass: 1
Flags: W
LayerCount: 2
Fore
SplineSet
-455 0 m 1,0,-1
 464 1396 l 1,1,-1
 610 1396 l 1,2,-1
 -310 0 l 1,3,-1
 -455 0 l 1,0,-1
EndSplineSet
EndChar

StartChar: zerosuperior
Encoding: 8304 8304 533
Width: 810
GlyphClass: 1
Flags: W
LayerCount: 2
Fore
SplineSet
402 633 m 0,0,1
 303 633 303 633 230.5 679 c 128,-1,2
 158 725 158 725 119 811 c 128,-1,3
 80 897 80 897 80 1019 c 0,4,5
 80 1144 80 1144 119 1231.5 c 128,-1,6
 158 1319 158 1319 232 1364 c 0,7,8
 304 1410 304 1410 408 1410 c 0,9,10
 507 1410 507 1410 579.5 1364 c 128,-1,11
 652 1318 652 1318 691 1232 c 128,-1,12
 730 1146 730 1146 730 1024 c 0,13,14
 730 899 730 899 691.5 811.5 c 128,-1,15
 653 724 653 724 579.5 678.5 c 128,-1,16
 506 633 506 633 402 633 c 0,0,1
407 750 m 0,17,18
 486 750 486 750 526 816.5 c 128,-1,19
 566 883 566 883 566 1006 c 0,20,21
 566 1099 566 1099 548 1163 c 128,-1,22
 530 1227 530 1227 494.5 1260 c 128,-1,23
 459 1293 459 1293 404 1293 c 0,24,25
 325 1293 325 1293 284 1227 c 128,-1,26
 243 1161 243 1161 243 1037 c 0,27,28
 243 944 243 944 261 880 c 128,-1,29
 279 816 279 816 316 783 c 128,-1,30
 353 750 353 750 407 750 c 0,17,18
EndSplineSet
EndChar

StartChar: uni2074
Encoding: 8308 8308 534
Width: 796
GlyphClass: 1
Flags: W
LayerCount: 2
Fore
SplineSet
551 871 m 1,0,-1
 551 744 l 1,1,-1
 678 714 l 1,2,-1
 678 645 l 1,3,-1
 240 645 l 1,4,-1
 240 714 l 1,5,-1
 379 744 l 1,6,-1
 379 871 l 1,7,-1
 47 871 l 1,8,-1
 47 968 l 1,9,-1
 375 1397 l 1,10,-1
 551 1397 l 1,11,-1
 551 991 l 1,12,-1
 639 991 l 1,13,-1
 749 1009 l 1,14,-1
 708 871 l 1,15,-1
 551 871 l 1,0,-1
379 991 m 1,16,-1
 379 1273 l 1,17,-1
 156 991 l 1,18,-1
 379 991 l 1,16,-1
EndSplineSet
EndChar

StartChar: uni20A6
Encoding: 8358 8358 538
Width: 1210
GlyphClass: 1
Flags: W
LayerCount: 2
Fore
SplineSet
1207 967 m 1,0,-1
 1207 853 l 1,1,-1
 1034 853 l 1,2,-1
 1034 657 l 1,3,-1
 1207 657 l 1,4,-1
 1207 543 l 1,5,-1
 1034 543 l 1,6,-1
 1034 -4 l 1,7,-1
 836 -4 l 1,8,-1
 602 543 l 1,9,-1
 320 543 l 1,10,-1
 320 114 l 1,11,-1
 463 81 l 1,12,-1
 463 0 l 1,13,-1
 55 0 l 1,14,-1
 55 81 l 1,15,-1
 196 114 l 1,16,-1
 196 543 l 1,17,-1
 13 543 l 1,18,-1
 13 657 l 1,19,-1
 196 657 l 1,20,-1
 196 853 l 1,21,-1
 13 853 l 1,22,-1
 13 967 l 1,23,-1
 196 967 l 1,24,-1
 196 1272 l 1,25,-1
 49 1314 l 1,26,-1
 49 1396 l 1,27,-1
 450 1396 l 1,28,-1
 633 967 l 1,29,-1
 909 967 l 1,30,-1
 909 1281 l 1,31,-1
 767 1314 l 1,32,-1
 767 1396 l 1,33,-1
 1174 1396 l 1,34,-1
 1174 1314 l 1,35,-1
 1034 1281 l 1,36,-1
 1034 967 l 1,37,-1
 1207 967 l 1,0,-1
320 1200 m 1,38,-1
 320 967 l 1,39,-1
 420 967 l 1,40,-1
 320 1200 l 1,38,-1
909 322 m 1,41,-1
 909 543 l 1,42,-1
 815 543 l 1,43,-1
 909 322 l 1,41,-1
909 853 m 1,44,-1
 682 853 l 1,45,-1
 766 657 l 1,46,-1
 909 657 l 1,47,-1
 909 853 l 1,44,-1
469 853 m 1,48,-1
 320 853 l 1,49,-1
 320 657 l 1,50,-1
 553 657 l 1,51,-1
 469 853 l 1,48,-1
EndSplineSet
Substitution2: "'rvrn' Required Variation Alternates in Latin lookup 11 subtable" uni20A6.1
Substitution2: "'tnum' Tabular Numbers in Latin lookup 7 subtable" uni20A6
Substitution2: "'pnum' Proportional Numbers in Latin lookup 6 subtable" uni20A6.lf
EndChar

StartChar: peseta
Encoding: 8359 8359 539
Width: 1210
GlyphClass: 1
Flags: W
LayerCount: 2
Fore
SplineSet
1127 950 m 0,0,1
 1162 950 1162 950 1188.5 945.5 c 128,-1,2
 1215 941 1215 941 1239 930 c 1,3,-1
 1250 686 l 1,4,-1
 1191 686 l 1,5,-1
 1159 841 l 1,6,7
 1153 842 1153 842 1148 842 c 0,8,9
 1107 842 1107 842 1087.5 814.5 c 128,-1,10
 1068 787 1068 787 1068 735 c 0,11,12
 1068 677 1068 677 1087.5 640.5 c 128,-1,13
 1107 604 1107 604 1135.5 574.5 c 128,-1,14
 1164 545 1164 545 1192.5 507 c 128,-1,15
 1221 469 1221 469 1240.5 409 c 128,-1,16
 1260 349 1260 349 1260 249 c 0,17,18
 1260 113 1260 113 1208 48 c 128,-1,19
 1156 -17 1156 -17 1062 -17 c 0,20,21
 1033 -17 1033 -17 1004.5 -11.5 c 128,-1,22
 976 -6 976 -6 950 5 c 1,23,-1
 930 268 l 1,24,-1
 991 268 l 1,25,-1
 1039 93 l 1,26,27
 1084 94 1084 94 1106 122 c 0,28,29
 1130 152 1130 152 1130 216 c 128,-1,30
 1130 280 1130 280 1111 318.5 c 128,-1,31
 1092 357 1092 357 1064 386.5 c 128,-1,32
 1036 416 1036 416 1008 451.5 c 128,-1,33
 980 487 980 487 960.5 543 c 128,-1,34
 941 599 941 599 941 693 c 0,35,36
 941 820 941 820 991 885 c 128,-1,37
 1041 950 1041 950 1127 950 c 0,0,1
630 163 m 2,38,-1
 630 786 l 1,39,-1
 583 786 l 1,40,-1
 583 861 l 1,41,42
 622 882 622 882 644 904.5 c 128,-1,43
 666 927 666 927 680.5 968 c 128,-1,44
 695 1009 695 1009 711 1086 c 1,45,-1
 781 1086 l 1,46,-1
 781 915 l 1,47,-1
 887 915 l 2,48,49
 888 915 888 915 884 786 c 1,50,-1
 781 786 l 1,51,-1
 781 201 l 2,52,53
 781 154 781 154 792 137 c 128,-1,54
 803 120 803 120 828 120 c 0,55,56
 845 120 845 120 862 124.5 c 128,-1,57
 879 129 879 129 900 141 c 1,58,-1
 900 39 l 1,59,60
 862 9 862 9 829 -2.5 c 128,-1,61
 796 -14 796 -14 762 -14 c 0,62,63
 719 -14 719 -14 689.5 2.5 c 128,-1,64
 660 19 660 19 645 57.5 c 128,-1,65
 630 96 630 96 630 163 c 2,38,-1
238 120 m 1,66,-1
 347 87 l 1,67,-1
 347 0 l 1,68,-1
 -22 0 l 1,69,-1
 -22 87 l 1,70,-1
 78 120 l 1,71,-1
 78 1275 l 1,72,-1
 -22 1309 l 1,73,-1
 -22 1396 l 1,74,-1
 144 1396 l 1,75,-1
 238 1396 l 1,76,-1
 289 1396 l 2,77,78
 385 1396 385 1396 444 1350 c 128,-1,79
 503 1304 503 1304 530.5 1214.5 c 128,-1,80
 558 1125 558 1125 558 991 c 0,81,82
 558 860 558 860 531 769 c 128,-1,83
 504 678 504 678 449.5 630.5 c 128,-1,84
 395 583 395 583 309 583 c 2,85,-1
 238 583 l 1,86,-1
 238 120 l 1,66,-1
238 1254 m 1,87,-1
 238 719 l 1,88,-1
 270 719 l 2,89,90
 317 719 317 719 345.5 746 c 128,-1,91
 374 773 374 773 387.5 832.5 c 128,-1,92
 401 892 401 892 401 990 c 0,93,94
 401 1079 401 1079 388.5 1137.5 c 128,-1,95
 376 1196 376 1196 344.5 1225 c 128,-1,96
 313 1254 313 1254 251 1254 c 2,97,-1
 238 1254 l 1,87,-1
EndSplineSet
Substitution2: "'tnum' Tabular Numbers in Latin lookup 7 subtable" peseta
Substitution2: "'pnum' Proportional Numbers in Latin lookup 6 subtable" peseta.lf
EndChar

StartChar: uni20A9
Encoding: 8361 8361 540
Width: 1210
GlyphClass: 1
Flags: W
LayerCount: 2
Fore
SplineSet
1216 967 m 1,0,-1
 1216 853 l 1,1,-1
 1076 853 l 1,2,-1
 1057 657 l 1,3,-1
 1216 657 l 1,4,-1
 1216 543 l 1,5,-1
 1047 543 l 1,6,-1
 996 -4 l 1,7,-1
 809 -4 l 1,8,-1
 711 543 l 1,9,-1
 507 543 l 1,10,-1
 388 -4 l 1,11,-1
 205 -4 l 1,12,-1
 160 543 l 1,13,-1
 -5 543 l 1,14,-1
 -5 657 l 1,15,-1
 151 657 l 1,16,-1
 135 853 l 1,17,-1
 -5 853 l 1,18,-1
 -5 967 l 1,19,-1
 126 967 l 1,20,-1
 100 1282 l 1,21,-1
 -10 1314 l 1,22,-1
 -10 1396 l 1,23,-1
 395 1396 l 1,24,-1
 395 1314 l 1,25,-1
 288 1288 l 1,26,-1
 310 967 l 1,27,-1
 491 967 l 1,28,-1
 585 1400 l 1,29,-1
 738 1400 l 1,30,-1
 816 967 l 1,31,-1
 980 967 l 1,32,-1
 1005 1287 l 1,33,-1
 903 1314 l 1,34,-1
 903 1396 l 1,35,-1
 1216 1396 l 1,36,-1
 1216 1314 l 1,37,-1
 1116 1289 l 1,38,-1
 1086 967 l 1,39,-1
 1216 967 l 1,0,-1
930 330 m 1,40,-1
 946 543 l 1,41,-1
 892 543 l 1,42,-1
 930 330 l 1,40,-1
353 333 m 1,43,-1
 399 543 l 1,44,-1
 339 543 l 1,45,-1
 353 333 l 1,43,-1
618 1058 m 1,46,-1
 599 967 l 1,47,-1
 634 967 l 1,48,-1
 618 1058 l 1,46,-1
574 853 m 1,49,-1
 531 657 l 1,50,-1
 690 657 l 1,51,-1
 655 853 l 1,52,-1
 574 853 l 1,49,-1
318 853 m 1,53,-1
 331 657 l 1,54,-1
 424 657 l 1,55,-1
 466 853 l 1,56,-1
 318 853 l 1,53,-1
836 853 m 1,57,-1
 871 657 l 1,58,-1
 955 657 l 1,59,-1
 971 853 l 1,60,-1
 836 853 l 1,57,-1
EndSplineSet
Substitution2: "'rvrn' Required Variation Alternates in Latin lookup 11 subtable" uni20A9.1
Substitution2: "'tnum' Tabular Numbers in Latin lookup 7 subtable" uni20A9
Substitution2: "'pnum' Proportional Numbers in Latin lookup 6 subtable" uni20A9.lf
EndChar

StartChar: trademark
Encoding: 8482 8482 552
Width: 1696
GlyphClass: 1
Flags: W
LayerCount: 2
Fore
SplineSet
1504 903 m 1,0,-1
 1572 884 l 1,1,-1
 1572 837 l 1,2,-1
 1301 837 l 1,3,-1
 1301 884 l 1,4,-1
 1362 900 l 1,5,-1
 1335 1306 l 1,6,-1
 1180 836 l 1,7,-1
 1063 836 l 1,8,-1
 906 1294 l 1,9,-1
 883 900 l 1,10,-1
 944 884 l 1,11,-1
 944 837 l 1,12,-1
 739 837 l 1,13,-1
 739 884 l 1,14,-1
 808 901 l 1,15,-1
 834 1325 l 1,16,-1
 759 1348 l 1,17,-1
 759 1396 l 1,18,-1
 1019 1396 l 1,19,-1
 1152 989 l 1,20,-1
 1282 1396 l 1,21,-1
 1544 1396 l 1,22,-1
 1544 1348 l 1,23,-1
 1475 1329 l 1,24,-1
 1504 903 l 1,0,-1
584 1396 m 1,25,-1
 611 1429 l 1,26,-1
 658 1429 l 1,27,-1
 685 1198 l 1,28,-1
 625 1197 l 1,29,-1
 582 1316 l 1,30,-1
 457 1316 l 1,31,-1
 457 900 l 1,32,-1
 523 882 l 1,33,-1
 523 837 l 1,34,-1
 249 837 l 1,35,-1
 249 882 l 1,36,-1
 316 900 l 1,37,-1
 316 1316 l 1,38,-1
 191 1316 l 1,39,-1
 147 1197 l 1,40,-1
 88 1198 l 1,41,-1
 114 1429 l 1,42,-1
 162 1429 l 1,43,-1
 189 1396 l 1,44,-1
 584 1396 l 1,25,-1
EndSplineSet
EndChar

StartChar: minus
Encoding: 8722 8722 553
Width: 1049
GlyphClass: 1
Flags: W
LayerCount: 2
Fore
SplineSet
129 572 m 1,0,1
 130 572 130 572 922 572 c 1,2,-1
 922 422 l 1,3,-1
 129 422 l 1,4,-1
 129 572 l 1,0,1
EndSplineSet
EndChar

StartChar: notequal
Encoding: 8800 8800 557
Width: 1049
GlyphClass: 1
Flags: W
LayerCount: 2
Fore
SplineSet
780 761 m 1,0,-1
 922 761 l 1,1,-1
 922 611 l 1,2,-1
 683 611 l 1,3,-1
 536 384 l 1,4,-1
 922 384 l 1,5,-1
 922 234 l 1,6,-1
 439 234 l 1,7,-1
 293 8 l 1,8,-1
 129 8 l 1,9,-1
 275 234 l 1,10,-1
 129 234 l 1,11,-1
 129 384 l 1,12,-1
 372 384 l 1,13,-1
 519 611 l 1,14,-1
 129 611 l 1,15,-1
 129 761 l 1,16,-1
 616 761 l 1,17,-1
 758 980 l 1,18,-1
 922 980 l 1,19,-1
 780 761 l 1,0,-1
EndSplineSet
EndChar

StartChar: lessequal
Encoding: 8804 8804 558
Width: 1049
GlyphClass: 1
Flags: W
LayerCount: 2
Fore
SplineSet
87 537 m 1,0,-1
 87 702 l 1,1,-1
 957 1014 l 1,2,-1
 957 856 l 1,3,-1
 260 620 l 1,4,-1
 957 384 l 1,5,-1
 957 223 l 1,6,-1
 87 537 l 1,0,-1
87 150 m 1,7,-1
 957 150 l 1,8,-1
 957 0 l 1,9,-1
 87 0 l 1,10,-1
 87 150 l 1,7,-1
EndSplineSet
EndChar

StartChar: greaterequal
Encoding: 8805 8805 559
Width: 1049
GlyphClass: 1
Flags: W
LayerCount: 2
Fore
SplineSet
962 537 m 1,0,-1
 93 223 l 1,1,-1
 93 384 l 1,2,-1
 790 620 l 1,3,-1
 93 856 l 1,4,-1
 93 1014 l 1,5,-1
 962 702 l 1,6,-1
 962 537 l 1,0,-1
962 150 m 1,7,-1
 962 0 l 1,8,-1
 93 0 l 1,9,-1
 93 150 l 1,10,-1
 962 150 l 1,7,-1
EndSplineSet
EndChar

StartChar: uni27E8
Encoding: 10216 10216 560
Width: 1049
GlyphClass: 1
Flags: W
LayerCount: 2
Fore
SplineSet
372 698 m 1,0,-1
 871 0 l 1,1,-1
 687 0 l 1,2,-1
 197 676 l 1,3,-1
 197 718 l 1,4,-1
 687 1396 l 1,5,-1
 871 1396 l 1,6,-1
 372 698 l 1,0,-1
EndSplineSet
EndChar

StartChar: uni27E9
Encoding: 10217 10217 561
Width: 1049
GlyphClass: 1
Flags: W
LayerCount: 2
Fore
SplineSet
678 698 m 1,0,-1
 180 1396 l 1,1,-1
 365 1396 l 1,2,-1
 855 718 l 1,3,-1
 855 676 l 1,4,-1
 365 0 l 2,5,6
 364 0 364 0 180 0 c 1,7,-1
 678 698 l 1,0,-1
EndSplineSet
EndChar

StartChar: f_f
Encoding: 64256 64256 562
Width: 1474
GlyphClass: 1
Flags: W
LayerCount: 2
Fore
SplineSet
1085 135 m 1,0,-1
 1261 90 l 1,1,-1
 1261 0 l 1,2,-1
 724 0 l 1,3,-1
 724 90 l 1,4,-1
 879 135 l 1,5,-1
 879 902 l 1,6,-1
 450 902 l 1,7,-1
 450 135 l 1,8,-1
 610 90 l 1,9,-1
 610 0 l 1,10,-1
 88 0 l 1,11,-1
 88 90 l 1,12,-1
 243 135 l 1,13,-1
 243 875 l 1,14,-1
 58 940 l 1,15,-1
 58 1002 l 1,16,-1
 243 1076 l 1,17,-1
 243 1091 l 2,18,19
 243 1205 243 1205 278.5 1291.5 c 128,-1,20
 314 1378 314 1378 378.5 1436 c 128,-1,21
 443 1494 443 1494 532 1523 c 128,-1,22
 621 1552 621 1552 729 1552 c 0,23,24
 815 1552 815 1552 880 1537.5 c 128,-1,25
 945 1523 945 1523 993 1495 c 0,26,27
 1008 1486 1008 1486 1021 1476 c 1,28,29
 1084 1530 1084 1530 1169 1558 c 0,30,31
 1259 1587 1259 1587 1367 1587 c 0,32,33
 1482 1587 1482 1587 1547.5 1566 c 128,-1,34
 1613 1545 1613 1545 1641.5 1508.5 c 128,-1,35
 1670 1472 1670 1472 1670 1425 c 0,36,37
 1670 1387 1670 1387 1654.5 1358 c 128,-1,38
 1639 1329 1639 1329 1612 1313 c 0,39,40
 1584 1297 1584 1297 1548 1297 c 0,41,42
 1529 1297 1529 1297 1509 1319 c 128,-1,43
 1489 1341 1489 1341 1461.5 1370.5 c 128,-1,44
 1434 1400 1434 1400 1398 1422 c 128,-1,45
 1362 1444 1362 1444 1314 1444 c 0,46,47
 1243 1444 1243 1444 1191.5 1419 c 128,-1,48
 1140 1394 1140 1394 1112.5 1340.5 c 128,-1,49
 1085 1287 1085 1287 1085 1203 c 2,50,-1
 1085 1062 l 1,51,-1
 1435 1062 l 1,52,-1
 1432 902 l 1,53,-1
 1085 902 l 1,54,-1
 1085 135 l 1,0,-1
879 1062 m 1,55,-1
 879 1116 l 2,56,57
 879 1227 879 1227 910 1312 c 1,58,59
 877 1348 877 1348 834 1374 c 0,60,61
 764 1413 764 1413 681 1413 c 0,62,63
 609 1413 609 1413 557.5 1386.5 c 128,-1,64
 506 1360 506 1360 478 1306 c 128,-1,65
 450 1252 450 1252 450 1172 c 2,66,-1
 450 1062 l 1,67,-1
 879 1062 l 1,55,-1
EndSplineSet
Ligature2: "'liga' Standard Ligatures in Latin lookup 10 subtable" f f
EndChar

